<?xml version="1.0" standalone="no"?>
<!DOCTYPE svg PUBLIC "-//W3C//DTD SVG 1.1//EN" "http://www.w3.org/Graphics/SVG/1.1/DTD/svg11.dtd" >
<svg>
<metadata>
Created by FontForge 20120731 at Thu Oct  3 04:32:28 2019
 By www
(c) 2003 Adobe Systems Incorporated. All Rights Reserved.
</metadata>
<defs>
<font id="KeplerStd-Bold" horiz-adv-x="1000" >
  <font-face 
    font-family="Kepler Std"
    font-weight="700"
    font-stretch="normal"
    units-per-em="1000"
    panose-1="2 4 8 3 6 7 10 6 2 4"
    ascent="700"
    descent="-300"
    x-height="430"
    cap-height="631"
    bbox="-186 -328 3778.11 880"
    underline-thickness="58"
    underline-position="-82"
    unicode-range="U+0020-FB06"
  />
<missing-glyph horiz-adv-x="500" 
d="M0 0v700h500v-700h-500zM250 395l170 255h-340zM280 350l170 -255v510zM80 50h340l-170 255zM50 605v-510l170 255z" />
    <glyph glyph-name="T_h" unicode="Th" horiz-adv-x="1107" 
d="M246 234v230q0 107 -1 131q-69 0 -101 -10.5t-47 -38.5q-24 -41 -48 -122l-29 5q11 61 21 208q51 -9 234 -9h98q172 0 226 7v23q77 0 152 13q-4 -86 -4 -174v-122q83 66 157 66q51 0 78.5 -19.5t37.5 -41.5q12 -26 12 -64q0 -45 -0.5 -137t-0.5 -122q0 -17 8.5 -22
t47.5 -7v-31q-13 0 -56.5 1.5t-70.5 1.5q-30 0 -71.5 -1.5t-51.5 -1.5l1 31q26 1 35 6.5t11 20.5q3 60 3 126q0 147 -6 163q-13 35 -48 35q-49 0 -75 -44q-11 -16 -11 -45v-111q0 -91 2 -117q1 -20 9 -26.5t39 -7.5v-31q-11 0 -55 1.5t-68 1.5q-38 0 -80 -1.5t-52 -1.5v31
q34 1 44.5 7t12.5 25q3 84 3 160v271q0 20 -0.5 49.5t-0.5 43.5q-81 14 -197 11q0 -9 -0.5 -51.5t-0.5 -71.5v-236q0 -121 4 -171q1 -27 25 -30q60 -7 61 -7l-3 -31q-8 0 -68.5 1.5t-107.5 1.5q-31 0 -83.5 -1.5t-73.5 -1.5l-3 31q9 1 25 3.5t29 3.5q33 3 34 28q4 68 4 171z
" />
    <glyph glyph-name="f_f" unicode="ff" horiz-adv-x="619" 
d="M27 427h60v23q0 99 56 155q50 52 129 52q51 0 81 -23.5t30 -58.5q0 -26 -19 -42.5t-49 -16.5q-33 0 -33 35q-2 69 -32 69q-25 0 -28 -47q-1 -14 4 -62t7 -84h153v13q0 90 34 135q51 97 164 97q56 0 86.5 -24.5t30.5 -59.5q0 -25 -19.5 -41.5t-49.5 -16.5q-17 0 -27 10
t-10 26q-1 70 -34 70q-26 0 -32 -48q-3 -29 4 -161h93l-5 -34l-89 -6q-2 -70 -2 -149q0 -117 4 -172q1 -18 6 -25.5t19 -8.5q38 -4 48 -4l-3 -31q-17 0 -62 1.5t-68 1.5q-25 0 -77.5 -1.5t-67.5 -1.5l2 31q30 0 39.5 4.5t10.5 19.5q4 58 4 141v196h-153q-1 -46 -1 -157
q0 -134 2 -167q1 -31 21 -34q1 0 38 -3l-3 -31q-12 0 -53 1.5t-64 1.5q-25 0 -78.5 -1.5t-73.5 -1.5l2 31q38 2 48.5 6t11.5 18q4 39 4 142v195l-62 6z" />
    <glyph glyph-name="f_i" unicode="fi" horiz-adv-x="606" 
d="M21 394l4 32h63v16q0 99 55 156q71 74 191 74q84 0 129 -30t45 -80q0 -30 -21.5 -50.5t-58.5 -20.5q-26 0 -41.5 12.5t-14.5 33.5q0 3 3 19t3 25q0 55 -62 55q-27 0 -45.5 -17.5t-25.5 -45.5q-13 -56 -13 -147h104q134 0 198 14q-4 -46 -4 -161v-116q0 -69 3 -102
q1 -20 11 -25.5t47 -7.5l-1 -31q-19 0 -63.5 1.5t-73.5 1.5q-37 0 -76 -1.5t-50 -1.5v31q31 1 42 7.5t13 22.5q3 54 3 111v96q0 73 -4 105q-3 19 -39 19h-111v-169q0 -112 3 -153q1 -24 11 -30.5t44 -8.5l-2 -31q-14 0 -54.5 1.5t-61.5 1.5q-26 0 -78.5 -1.5t-73.5 -1.5
l1 31q38 1 49 5.5t13 20.5q4 54 4 139v196z" />
    <glyph glyph-name="f_l" unicode="fl" horiz-adv-x="606" 
d="M24 426h63v21q0 107 60 165q63 60 166 60q66 0 107 -24q52 10 114 19q0 -1 -2 -65t-2 -138v-242q0 -135 1 -160q1 -22 11 -27t50 -7v-31q-21 0 -82.5 1.5t-80.5 1.5t-56 -1.5t-49 -1.5v31q32 0 42.5 8t12.5 31q6 60 6 180v262q0 61 -11 81q-20 47 -69 47q-45 0 -59 -50
q-14 -47 -14 -161h101l-7 -33l-95 -6v-164q0 -116 2 -156q1 -24 12 -30.5t46 -8.5l-3 -31q-14 0 -54 1.5t-63 1.5q-29 0 -82.5 -1.5t-69.5 -1.5l1 31q37 1 48.5 6t13.5 20q4 54 4 139v195l-65 5z" />
    <glyph glyph-name="f_f_i" unicode="ffi" horiz-adv-x="906" 
d="M26 426h62v23q0 85 54 141q66 69 181 69q86 0 131 -47q67 60 179 60q85 0 130 -30.5t45 -81.5q0 -30 -21 -50t-59 -20q-26 0 -41.5 11t-14.5 32q0 6 2 21t2 23q0 59 -61 59q-50 0 -68 -58q-15 -51 -15 -152h103q133 0 199 14q-4 -46 -4 -161v-115q0 -70 3 -103
q2 -20 11 -25.5t46 -7.5v-31q-19 0 -63.5 1.5t-73.5 1.5q-37 0 -75 -1.5t-49 -1.5l1 31q30 1 40 7t12 22q3 57 3 111v96q0 73 -4 105q-3 19 -39 19h-111q0 -16 -0.5 -67.5t-0.5 -83.5q0 -111 3 -171q1 -23 12 -29.5t50 -8.5l-3 -31q-20 0 -58 1.5t-60 1.5q-25 0 -78.5 -1.5
t-66.5 -1.5l1 31q30 1 39.5 5.5t11.5 18.5q4 39 4 140v196h-153q0 -18 -0.5 -69t-0.5 -84q0 -136 3 -172q1 -22 11 -27.5t47 -7.5l-3 -31q-11 0 -47 1.5t-59 1.5q-24 0 -84 -1.5t-80 -1.5l2 31q38 1 49 5.5t12 18.5q4 58 4 141v195l-63 6zM233 426h153q2 66 18 113
q-8 33 -32.5 59t-56.5 26q-53 0 -69 -56q-14 -43 -13 -142z" />
    <glyph glyph-name="f_f_l" unicode="ffl" horiz-adv-x="906" 
d="M26 427h62v20q0 89 54 143q66 68 183 68q77 0 127 -43q62 57 158 57q68 0 110 -25q40 7 115 20q-5 -130 -5 -203v-241q0 -136 1 -160q2 -23 11.5 -28.5t49.5 -6.5l-1 -31q-21 0 -82.5 1.5t-80.5 1.5t-55.5 -1.5t-48.5 -1.5l-1 31q32 0 43.5 8t13.5 31q5 100 5 180v256
q0 60 -10 84q-19 50 -71 50q-46 0 -60 -48q-13 -47 -13 -162h103l-8 -34l-95 -5q0 -16 -0.5 -67.5t-0.5 -83.5q0 -116 4 -171q1 -23 11.5 -29.5t47.5 -8.5l-4 -31q-14 0 -58.5 1.5t-71.5 1.5q-28 0 -75.5 -1.5t-58.5 -1.5l2 31q33 1 43 6t12 19q3 44 3 139v197h-153
q0 -19 -0.5 -70t-0.5 -83q0 -136 2 -170q2 -24 11.5 -30.5t48.5 -7.5l-3 -31q-11 0 -47.5 1.5t-59.5 1.5q-25 0 -84.5 -1.5t-78.5 -1.5l2 31q37 0 48 4.5t12 19.5q4 58 4 142v195l-64 6zM232 427h154q2 71 16 114q-8 31 -32 56.5t-55 25.5q-51 0 -69 -55q-14 -36 -14 -141z
" />
    <glyph glyph-name=".notdef" horiz-adv-x="500" 
d="M0 0v700h500v-700h-500zM250 395l170 255h-340zM280 350l170 -255v510zM80 50h340l-170 255zM50 605v-510l170 255z" />
    <glyph glyph-name=".null" horiz-adv-x="0" 
 />
    <glyph glyph-name="nonmarkingreturn" horiz-adv-x="333" 
 />
    <glyph glyph-name="space" unicode=" " horiz-adv-x="202" 
 />
    <glyph glyph-name="exclam" unicode="!" horiz-adv-x="272" 
d="M137 657h1q31 0 64.5 -34t33.5 -69q0 -32 -22 -84q-59 -149 -59 -244h-37q0 95 -59 244q-22 52 -22 84q0 39 36.5 71t63.5 32zM139 -14h-1q-33 0 -56.5 24.5t-23.5 61.5q0 36 24 60t59 24q34 0 58 -24.5t24 -60.5q0 -37 -23.5 -61t-60.5 -24z" />
    <glyph glyph-name="quotedbl" unicode="&#x22;" horiz-adv-x="377" 
d="M305 707h1q17 0 26.5 -21.5t9.5 -41.5q0 -62 -63 -210l-29 1q-14 163 -39 236q11 10 43 23t51 13zM131 707h1q17 0 26.5 -21.5t9.5 -41.5q0 -37 -21.5 -101t-41.5 -109l-28 1q-16 170 -40 236q13 10 44 23t50 13z" />
    <glyph glyph-name="numbersign" unicode="#" horiz-adv-x="501" 
d="M311 379h-105l-25 -104h104zM219 590l45 3q-10 -25 -37 -127h104q20 79 29 124l46 3q-18 -51 -37 -127q75 0 96 1q-15 -41 -24 -90q-17 1 -93 1l-25 -102q101 2 106 2q-6 -13 -23 -91q-53 0 -104 1q-7 -32 -17.5 -82t-12.5 -58l-46 -4q9 29 38 144h-105q-21 -84 -33 -140
l-45 -6q5 15 41 146h-44t-49 -1q9 28 20 90q8 0 19.5 -0.5t33 -1t41.5 -0.5l26 104q-41 1 -107 -1q13 38 21 89q21 -1 107 -1q1 4 29 124z" />
    <glyph glyph-name="dollar" unicode="$" horiz-adv-x="518" 
d="M369 127v1q0 18 -5.5 31t-21 25t-27.5 18.5t-42 20.5l-8 -177q43 2 73.5 23t30.5 58zM159 489v-1q0 -32 22 -50.5t68 -39.5l8 172q-49 -2 -73.5 -24.5t-24.5 -56.5zM263 676l40 6l-6 -82q69 -5 108 -33l19 38l24 -7q-20 -100 -18 -192l-28 1q-7 138 -108 159l-12 -182
q124 -57 141 -69q58 -41 58 -120q0 -71 -47 -118q-60 -59 -170 -63l-2 -85l-43 -8l6 93q-58 2 -180 26q12 62 15 188l28 4q0 -87 38 -132.5t102 -52.5l10 189q-100 47 -108 52q-77 47 -77 137q0 81 61 131q54 44 145 45z" />
    <glyph glyph-name="percent" unicode="%" horiz-adv-x="756" 
d="M169 -28l-36 28q99 134 394 561q-57 -31 -127 -31q-48 0 -80 13q16 -38 16 -90q0 -83 -40.5 -133t-109.5 -50q-68 0 -108 43t-40 126q-1 85 47 134t117 49q38 0 66 -15l18 13q17 -22 54 -38t81 -16q99 0 135 47q5 6 28 41l61 5q-13 -19 -84 -119.5t-125 -177t-131.5 -189
t-135.5 -201.5zM216 587h-1q-24 0 -38 -19q-26 -38 -27 -124q0 -89 25 -119q17 -19 40 -19q29 0 51.5 37t22.5 112q0 23 -3 43.5t-10.5 42t-22.5 34t-37 12.5zM580 356h1q72 0 105 -48t33 -124q0 -81 -39.5 -130.5t-109.5 -49.5q-69 0 -109.5 43t-40.5 124q0 87 46.5 136
t113.5 49zM601 322h-1q-26 0 -41 -21q-26 -38 -26 -122q0 -92 27 -122q13 -17 38 -17q31 0 53.5 37.5t22.5 108.5q0 31 -5 59t-22.5 52.5t-45.5 24.5z" />
    <glyph glyph-name="ampersand" unicode="&#x26;" horiz-adv-x="755" 
d="M715 33l-2 -30q-79 -21 -158 -21q-68 0 -145 83q-65 -81 -170 -81q-93 0 -143 45q-55 47 -55 130q0 68 53 110q28 22 86 53q-60 77 -60 146q0 71 51.5 115.5t137.5 44.5q82 0 129 -39.5t47 -95.5q0 -55 -56 -90q-32 -21 -94 -49q79 -92 133 -147q46 104 49 109
q27 57 54 86t63 29q30 0 44 -16t14 -40q0 -29 -20 -45q-12 -10 -24 -6q-14 7 -26 7q-36 0 -69 -49q-13 -17 -58 -99q70 -73 123 -111.5t96 -38.5zM307 596h-1q-28 0 -44.5 -21.5t-16.5 -61.5q0 -58 66 -134q65 48 65 121q0 41 -18.5 68.5t-50.5 27.5zM177 214v-1
q0 -64 37.5 -111.5t95.5 -47.5q48 0 73 35q-103 108 -180 205q-26 -33 -26 -80z" />
    <glyph glyph-name="quotesingle" unicode="'" horiz-adv-x="201" 
d="M132 707h1q17 0 27 -21.5t10 -41.5q0 -68 -64 -210l-27 1q-18 167 -42 236q13 10 44.5 23t50.5 13z" />
    <glyph glyph-name="parenleft" unicode="(" horiz-adv-x="365" 
d="M47 262v1q0 228 127 362q60 64 133 95l15 -29q-102 -54 -128 -201q-15 -87 -15 -230q0 -142 15 -229q28 -152 128 -201l-15 -31q-77 36 -133 97q-127 133 -127 366z" />
    <glyph glyph-name="parenright" unicode=")" horiz-adv-x="365" 
d="M318 258v-1q0 -229 -127 -362q-58 -62 -132 -96l-15 29q101 55 127 203q15 79 15 228q0 151 -15 230q-26 148 -127 201l15 30q74 -35 132 -96q127 -133 127 -366z" />
    <glyph glyph-name="asterisk" unicode="*" horiz-adv-x="423" 
d="M243 514l-2 21q22 7 57 34.5t44 28.5q16 3 31 -13.5t17 -27.5q3 -13 -3 -33.5t-24 -22.5q-7 -1 -51.5 7.5t-68.5 5.5zM227 490l16 14q15 -17 57.5 -34t47.5 -24q9 -16 3.5 -34.5t-14.5 -26.5q-5 -5 -15.5 -10t-24.5 -5t-21 10q-4 4 -18 48t-31 62zM195 491l20 -7
q-5 -22 1 -67t3 -53q-6 -15 -27 -19.5t-32 -1.5q-12 4 -27.5 19.5t-8.5 31.5q2 5 32 39t39 58zM182 517l3 -21q-23 -6 -58 -34t-43 -29q-16 -3 -30.5 13t-18.5 27q-1 16 4.5 35.5t22.5 21.5q6 1 51 -7.5t69 -5.5zM198 544l-16 -15q-16 16 -58.5 34t-47.5 25q-8 17 -2.5 34
t13.5 27q5 5 15.5 9.5t24.5 5t22 -9.5q4 -5 19 -48t30 -62zM230 542l-21 5q6 22 0 67.5t-4 52.5q6 15 26.5 19.5t33.5 1.5q13 -5 27 -20t8 -31q-2 -5 -31.5 -38.5t-38.5 -56.5z" />
    <glyph glyph-name="plus" unicode="+" horiz-adv-x="533" 
d="M300 4h-65v200h-182v60h182v181h65v-181h181v-60h-181v-200z" />
    <glyph glyph-name="comma" unicode="," horiz-adv-x="253" 
d="M42 -133l-7 28q52 10 87 42.5t35 76.5q0 11 -9 4q-16 -11 -41 -11q-27 0 -46.5 20.5t-18.5 54.5q0 32 23.5 56t55.5 24q44 0 68.5 -32.5t24.5 -85.5q0 -80 -54.5 -126.5t-117.5 -50.5z" />
    <glyph glyph-name="hyphen" unicode="-" horiz-adv-x="334" 
d="M38 191l13 78q117 -3 246 0l-12 -78q-129 4 -247 0z" />
    <glyph glyph-name="period" unicode="." horiz-adv-x="253" 
d="M127 158h1q35 0 58 -24.5t23 -61.5t-24 -61.5t-58 -24.5q-35 0 -59 24t-24 62q0 37 24 61.5t59 24.5z" />
    <glyph glyph-name="slash" unicode="/" horiz-adv-x="419" 
d="M325 704l58 -17q-11 -25 -60.5 -159t-88.5 -247q-132 -378 -134 -385l-59 14q13 31 140 388q90 251 144 406z" />
    <glyph glyph-name="zero" unicode="0" horiz-adv-x="518" 
d="M266 623h1q89 0 146 -58q79 -82 79 -253q0 -204 -100 -283q-55 -44 -138 -44q-87 0 -144 51q-84 80 -84 265q0 190 103 274q59 48 137 48zM262 589h-1q-32 0 -51 -48q-28 -76 -28 -230q0 -158 25 -234q19 -58 56 -58q35 0 53 57q22 70 22 227q0 169 -24 236
q-9 25 -20.5 37.5t-31.5 12.5z" />
    <glyph glyph-name="one" unicode="1" horiz-adv-x="518" 
d="M444 27l2 -30q-37 0 -100.5 1.5t-89.5 1.5q-28 0 -85 -1.5t-84 -1.5l-4 30l74 8q18 1 24.5 7t7.5 18q3 75 3 140v203q0 88 -2 144q-2 15 -13 15q-52 -3 -81 -4l7 33q201 20 240 33l5 -4q0 -10 -1.5 -74.5t-1.5 -122.5v-217q0 -98 3 -147q2 -23 22 -25z" />
    <glyph glyph-name="two" unicode="2" horiz-adv-x="518" 
d="M464 208l30 -12q-29 -93 -35 -201q-80 5 -311 5q-88 0 -117 -2l-5 9q14 43 31 82q187 112 225 254q13 53 13 123q0 54 -18 88t-53 34q-66 0 -66 -90q0 -15 7 -52q5 -21 -14 -40q-20 -18 -50 -18q-29 0 -47.5 19t-18.5 55q0 58 56 108q61 53 162 53q87 0 139 -37
q68 -51 68 -151q0 -85 -69 -148q-29 -27 -228 -170q202 4 251 11q20 1 29 22q10 23 21 58z" />
    <glyph glyph-name="three" unicode="3" horiz-adv-x="518" 
d="M258 623h1q76 0 134.5 -35t58.5 -106q0 -72 -68 -108q-32 -17 -116 -40v-5q114 -7 164 -44q55 -39 55 -110q0 -84 -68 -137t-190 -53q-87 0 -142 32t-55 83q0 27 21.5 46.5t51.5 19.5q31 0 42 -41q13 -58 32.5 -82.5t54.5 -24.5q41 0 61.5 39t20.5 105t-24 100.5
t-83 34.5q-24 0 -45 -7l-19 28l3 8q75 9 105 41q43 36 43 108q0 47 -18.5 79.5t-55.5 32.5q-67 0 -67 -81q0 -13 4 -35q3 -20 -11 -33q-16 -15 -43 -15t-43 16.5t-16 46.5q0 50 57 93.5t155 43.5z" />
    <glyph glyph-name="four" unicode="4" horiz-adv-x="518" 
d="M256 215q4 78 7 305q-138 -209 -184 -289q38 -16 177 -16zM22 185l-9 29q47 70 141.5 206t114.5 167q91 19 137 38l7 -3q-5 -100 -5 -340v-65q52 1 100 16l-1 -30q-35 -24 -99 -30q0 -25 1 -83t1 -90q-102 0 -156 -13l-6 5q4 41 7 177q-173 0 -233 16z" />
    <glyph glyph-name="five" unicode="5" horiz-adv-x="518" 
d="M95 246l-27 27q15 52 28 179t12 162q15 -5 62 -10q58 -4 98 -4q91 0 132.5 7.5t62.5 33.5l18 -17q-11 -40 -33.5 -75.5t-49.5 -49.5q-43 -28 -136 -28q-83 0 -123 10q-12 -100 -28 -173q31 25 77 42t93 17q91 0 145.5 -42t54.5 -129q0 -74 -40 -126q-63 -85 -210 -85
q-86 0 -140 31t-54 81q0 29 22 47t51 18q31 0 42 -41q13 -54 32 -78.5t51 -24.5q38 0 59 39.5t21 114.5q0 87 -42 121q-24 20 -61 20q-74 0 -117 -67z" />
    <glyph glyph-name="six" unicode="6" horiz-adv-x="518" 
d="M441 615l2 -36q-14 5 -44 5q-95 0 -151.5 -75.5t-63.5 -188.5q69 71 142 71q78 0 122.5 -50t44.5 -131q0 -96 -57 -156q-61 -68 -174 -68q-96 0 -154 49q-81 66 -81 213q0 191 122 298q92 78 226 78q39 0 66 -9zM264 328h-1q-46 0 -71 -53q-10 -23 -10 -65q0 -70 13 -115
q19 -75 68 -75q41 0 58 51q16 43 16 114q0 49 -12 88q-19 55 -61 55z" />
    <glyph glyph-name="seven" unicode="7" horiz-adv-x="518" 
d="M69 387l-29 9q16 47 25 122t6 102q40 -11 210 -11q173 0 197 2l5 -8q-30 -111 -55 -156q-74 -136 -115 -244.5t-41 -210.5l-6 -6q-59 -3 -97 13q-28 12 -28 41q0 17 16 56q24 57 124.5 198.5t122.5 188.5q-45 4 -151 4q-92 0 -119.5 -6.5t-37.5 -26.5q-13 -25 -27 -67z
" />
    <glyph glyph-name="eight" unicode="8" horiz-adv-x="518" 
d="M271 624h1q73 0 126 -40t53 -110q0 -44 -32 -72q-23 -22 -73 -52q80 -45 107.5 -84t27.5 -94q0 -78 -58 -128q-31 -27 -78.5 -42.5t-95.5 -15.5q-96 0 -153.5 40.5t-57.5 114.5q0 55 40 89q7 6 81 54q-51 33 -75 68.5t-24 85.5q0 70 41 119q58 67 170 67zM256 590h-1
q-36 0 -59.5 -23.5t-23.5 -61.5q0 -43 34 -71q21 -18 112 -67q41 36 41 101q0 52 -27 87t-76 35zM267 20h1q40 0 64 24t24 65q0 38 -32.5 70t-134.5 89q-46 -37 -46 -107q0 -58 32 -99.5t92 -41.5z" />
    <glyph glyph-name="nine" unicode="9" horiz-adv-x="518" 
d="M85 -7v34q48 -5 91 9q72 20 111 88t46 163q-68 -63 -135 -63q-81 0 -126 48.5t-45 132.5q0 82 51 142q65 76 182 76q97 0 153 -54q78 -73 78 -223q0 -93 -32 -167.5t-85 -120.5q-87 -73 -213 -73q-40 0 -76 8zM256 589h-1q-38 0 -56 -49q-17 -46 -17 -111
q0 -60 20.5 -102t58.5 -42q40 0 62 40q11 21 12 77q2 104 -27 154q-21 33 -52 33z" />
    <glyph glyph-name="colon" unicode=":" horiz-adv-x="252" 
d="M127 153h1q35 0 57.5 -23.5t22.5 -59.5t-24 -60t-58 -24t-57.5 23.5t-23.5 60.5q0 35 24 59t58 24zM128 426h1q35 0 58 -24t23 -59q0 -36 -24 -59.5t-58 -23.5t-58 23.5t-24 59.5q0 35 24.5 59t57.5 24z" />
    <glyph glyph-name="semicolon" unicode=";" horiz-adv-x="253" 
d="M126 426h1q34 0 57 -24t23 -59q0 -36 -24 -59.5t-58 -23.5t-57.5 23.5t-23.5 59.5q0 35 24 59t58 24zM45 -132l-8 28q52 10 86.5 41.5t34.5 74.5q0 10 -9 3q-17 -10 -40 -10q-26 0 -45.5 20.5t-19.5 53.5q1 32 24 55t55 23q43 0 67 -32t24 -84q0 -79 -54 -124t-115 -49z
" />
    <glyph glyph-name="less" unicode="&#x3c;" horiz-adv-x="514" 
d="M71 202v69l373 201v-72l-308 -163v-2l308 -163v-72z" />
    <glyph glyph-name="equal" unicode="=" horiz-adv-x="533" 
d="M480 171v-60h-428v60h428zM480 355v-60h-428v60h428z" />
    <glyph glyph-name="greater" unicode="&#x3e;" horiz-adv-x="514" 
d="M443 271v-70l-372 -201v72l307 163v2l-307 163v72z" />
    <glyph glyph-name="question" unicode="?" horiz-adv-x="447" 
d="M229 222l-29 -10q-59 66 -61 119q-1 35 30 66q8 8 107 96q23 21 23 50q0 40 -19.5 60.5t-50.5 20.5q-29 0 -46 -19t-17 -45q0 -16 8 -42q8 -24 -14 -40q-25 -19 -63 -19q-24 0 -41.5 16t-17.5 46q0 62 60.5 99t130.5 37q87 0 137 -47.5t50 -133.5q0 -72 -58 -111
q-77 -54 -106 -79q-18 -15 -23.5 -28t0.5 -36zM220 -14h-1q-33 0 -56.5 24.5t-23.5 61.5q0 36 24 60t59 24q34 0 58 -24.5t24 -60.5q0 -37 -23.5 -61t-60.5 -24z" />
    <glyph glyph-name="at" unicode="@" horiz-adv-x="784" 
d="M332 108v-1q0 -28 16 -28q34 0 72.5 54t56.5 113q9 26 17 60q-2 44 -34 44q-33 0 -63 -45q-65 -105 -65 -197zM562 -30l14 -27q-92 -107 -255 -107q-128 0 -202 78t-74 211q-1 116 47.5 211.5t145.5 154.5t225 59q136 0 207 -73t71 -184q0 -113 -65.5 -190.5
t-166.5 -77.5q-56 0 -66 27.5t9 85.5q-29 -47 -70.5 -79.5t-90.5 -32.5q-66 0 -66 86q0 61 34.5 131.5t92.5 107.5q50 31 101 31q38 0 54 -33l7 23q2 0 40 -0.5t59 -0.5q-47 -136 -73 -272q-6 -32 14 -32q57 -2 100 63.5t43 155.5q0 104 -62.5 166t-175.5 62
q-139 0 -221 -107q-88 -123 -88 -283q0 -119 51 -180q57 -66 156 -66q124 0 205 92z" />
    <glyph glyph-name="A" unicode="A" horiz-adv-x="636" 
d="M646 28v-31q-90 3 -156 3q-70 0 -157 -3l1 31q42 4 51.5 10t5.5 25q-14 63 -44 169q-24 1 -90 1q-64 0 -85 -1q-36 -119 -40 -145q-6 -33 8.5 -44t75.5 -15l-1 -31q-15 0 -52 1.5t-62 1.5q-15 0 -56.5 -1.5t-61.5 -1.5l1 31q42 4 60 15.5t33 48.5q68 181 160 465
q13 42 16 65q26 0 75.5 6t64.5 14q135 -482 178 -584q10 -23 38 -26zM267 540q-64 -206 -82 -268q9 0 36 -0.5t42 -0.5q16 0 41 0.5t33 0.5q-8 30 -22.5 86.5t-26 101.5t-21.5 80z" />
    <glyph glyph-name="B" unicode="B" horiz-adv-x="636" 
d="M19 -3v31q48 2 62.5 7t15.5 21q5 67 5 153v236q0 100 -3 130q-1 12 -17 17.5t-62 7.5l-1 31q18 0 68 -1.5t78 -1.5q23 0 88 1.5t92 1.5q78 0 114.5 -8t62.5 -29q41 -34 41 -101q0 -87 -78 -124q-28 -13 -93 -26v-6q107 -11 150 -40q57 -36 57 -117q0 -89 -71 -137
q-65 -45 -215 -45q-25 0 -74.5 1t-73.5 1q-16 0 -72.5 -1.5t-73.5 -1.5zM260 467v-115q10 -1 39 -1q50 0 74.5 28t24.5 99q0 51 -16 82q-22 37 -79 37q-25 0 -32 -4t-7 -13q-4 -54 -4 -113zM260 317v-132q0 -98 3 -137q2 -17 37 -17q72 0 100 44q24 37 24 109q0 66 -25 100
q-27 36 -100 36q-23 0 -39 -3z" />
    <glyph glyph-name="C" unicode="C" horiz-adv-x="631" 
d="M578 413l-30 -4q-9 83 -47 141.5t-111 58.5q-69 0 -111 -58q-59 -80 -59 -230q0 -123 43 -199q46 -82 137 -82q125 0 175 147l30 -18q-55 -186 -258 -186q-161 0 -239 98q-68 81 -68 223q0 171 109 267q86 73 218 73q118 0 173 -53l19 51l27 -9q-16 -121 -8 -220z" />
    <glyph glyph-name="D" unicode="D" horiz-adv-x="705" 
d="M101 229v200q0 104 -2 142q-1 14 -6.5 19t-19.5 7l-53 4l2 30q7 0 59 -1.5t83 -1.5q26 0 83.5 2t90.5 2q144 0 211 -42q117 -71 117 -256q0 -104 -40.5 -184.5t-128.5 -120.5q-76 -33 -183 -31q-26 0 -80 1t-81 1q-29 0 -80.5 -1.5t-57.5 -1.5l1 31l43 3q35 3 36 27
q6 63 6 171zM259 424v-195q0 -143 3 -179q2 -20 42 -20q94 0 136 62q51 73 51 235q0 160 -53 221q-43 50 -124 50q-32 0 -41 -5t-10 -17q-4 -56 -4 -152z" />
    <glyph glyph-name="E" unicode="E" horiz-adv-x="594" 
d="M19 601v30q14 0 79.5 -1.5t94.5 -1.5h179q98 0 147 7q-7 -45 -4 -187l-29 -3q-12 62 -33 99q-19 32 -44 41.5t-94 9.5h-32q-19 0 -19 -17q-5 -78 -5 -147v-88q12 -1 48 -1q53 0 74 21t30 73h27q-14 -126 -4 -239l-29 1q-4 30 -9 46.5t-15 33t-28.5 23t-47.5 6.5
q-34 0 -46 -2v-69q0 -124 3 -177q1 -15 11.5 -20t49.5 -5q62 0 91 6t53 27q45 37 72 131l28 -7q-1 -19 -12 -97t-16 -98q-88 4 -217 4h-124q-33 0 -100.5 -1.5t-84.5 -1.5l1 31l52 4q15 2 22 9t8 23q5 90 5 179v184q0 107 -3 148q-1 20 -32 23z" />
    <glyph glyph-name="F" unicode="F" horiz-adv-x="561" 
d="M21 600l-3 31q12 0 77 -1.5t102 -1.5h141q123 0 191 7q-5 -45 -6.5 -103t-0.5 -90l-28 -1q-10 63 -29 99q-15 30 -45 42.5t-96 12.5h-42q-17 0 -20 -14q0 -2 -1 -20t-1.5 -51.5t-0.5 -73.5v-104q11 -2 54 -2q56 0 78.5 18.5t31.5 77.5l29 -2q-5 -48 -5 -129t5 -112h-30
q-12 66 -31.5 88.5t-79.5 22.5q-43 0 -52 -2v-92q0 -79 3 -136q3 -26 27 -29q5 0 27.5 -3t38.5 -4l-3 -31q-15 0 -76.5 1.5t-92.5 1.5q-33 0 -92.5 -1.5t-71.5 -1.5l-3 31l50 5q27 3 30 25q5 53 5 165v203q0 122 -3 146q-1 22 -21 24z" />
    <glyph glyph-name="G" unicode="G" horiz-adv-x="694" 
d="M594 411h-31q-12 99 -56.5 149.5t-110.5 50.5q-41 0 -70.5 -16t-53.5 -54q-51 -81 -51 -228q0 -131 40 -211q43 -84 125 -84q59 0 63 50q4 31 4 137q0 40 -7.5 51.5t-35.5 14.5l-50 4l-3 31q18 0 80.5 -1.5t84.5 -1.5q96 0 143 3l2 -29q-31 -4 -42 -11t-13 -22
q-3 -29 -3 -102q0 -64 5 -111q-6 -1 -97 -26q-78 -21 -145 -21q-194 0 -273 106q-60 78 -60 219q0 188 134 279q80 56 212 56q61 0 107.5 -16t67.5 -36l21 52l27 -8q-7 -33 -12 -100.5t-2 -124.5z" />
    <glyph glyph-name="H" unicode="H" horiz-adv-x="729" 
d="M101 200v223q0 116 -1 146q-1 18 -16 23.5t-59 7.5l1 31q15 0 70.5 -1.5t74.5 -1.5q17 0 79 1.5t80 1.5l-2 -31q-39 -1 -51 -7t-14 -26q-4 -37 -4 -128v-91q23 -1 100 -1q72 0 111 1v105q0 64 -2 120q-1 15 -15 20t-52 7v31q102 -3 147 -3q94 0 154 3v-31
q-42 -2 -55.5 -7.5t-14.5 -21.5q-4 -64 -4 -136v-222q0 -109 4 -159q1 -14 15 -19t58 -7l-2 -31q-11 0 -67.5 1.5t-92.5 1.5q-65 0 -146 -3l1 31q39 2 53.5 8t15.5 23q3 66 3 139v111q-33 1 -114 1q-74 0 -97 -1v-111q0 -102 3 -140q1 -17 16 -22.5t56 -7.5v-31
q-18 0 -77.5 1.5t-90.5 1.5q-23 0 -73 -1.5t-74 -1.5v31q45 2 60.5 8t16.5 23q5 57 5 141z" />
    <glyph glyph-name="I" unicode="I" horiz-adv-x="361" 
d="M101 207v231q0 88 -2 130q-1 18 -15 24t-61 8l2 31q11 0 66 -1.5t89 -1.5q31 0 85 1.5t68 1.5v-31q-44 -3 -56.5 -8t-13.5 -21q-4 -44 -4 -133v-227q0 -100 4 -150q1 -19 14.5 -25t58.5 -8l-2 -31q-14 0 -70 1.5t-90 1.5q-32 0 -86.5 -1.5t-67.5 -1.5l1 31q46 3 60 8.5
t15 22.5q5 55 5 148z" />
    <glyph glyph-name="J" unicode="J" horiz-adv-x="350" 
d="M21 601l5 31q13 0 63.5 -2t86.5 -2q33 0 87.5 2t67.5 2l-1 -31l-36 -3q-18 -2 -23.5 -8t-6.5 -20q-4 -55 -4 -410q0 -49 -9 -107q-12 -91 -68 -152q-84 -94 -184 -94q-35 0 -57 14t-22 33t18.5 38.5t34.5 19.5t28 -16q32 -41 57 -41q32 0 36 66q6 85 8 309v208
q0 72 -2 130q-1 24 -24 28q-8 1 -27.5 2.5t-27.5 2.5z" />
    <glyph glyph-name="K" unicode="K" horiz-adv-x="676" 
d="M101 204v226q0 96 -2 140q-1 18 -13.5 23t-59.5 8l2 31q8 0 61 -1.5t88 -1.5q36 0 90.5 1.5t62.5 1.5l2 -31q-44 -3 -55.5 -7.5t-12.5 -21.5q-5 -63 -5 -141v-106q52 28 125.5 111.5t101.5 135.5q11 18 -9 20l-59 8l9 32q15 0 54 -1.5t64 -1.5q32 0 116 3l2 -30
q-77 -4 -108 -30q-12 -11 -32 -31.5t-36.5 -39.5t-46 -52.5t-45.5 -50.5q43 -78 114 -191.5t97 -144.5q16 -19 31.5 -25t55.5 -8l-5 -32q-62 3 -131 0q-40 -2 -110 -8q-4 8 -157 280q-20 33 -31 33v-89q0 -54 4 -154q1 -18 13 -22.5t63 -8.5l-2 -31q-11 0 -68.5 1.5
t-96.5 1.5q-34 0 -89 -1.5t-65 -1.5l1 31q49 4 62.5 9t14.5 22q5 47 5 145z" />
    <glyph glyph-name="L" unicode="L" horiz-adv-x="555" 
d="M503 207l31 -1q-3 -22 -7 -59.5t-8 -84t-6 -66.5q-27 3 -120 3q-59 1 -215 1q-24 0 -89 -1.5t-75 -1.5l1 31l52 5q16 1 21.5 6.5t7.5 19.5q5 77 5 173v207q0 92 -2 134q-1 22 -26 23l-50 4l2 31q8 0 69.5 -1.5t91.5 -1.5q26 0 77 1.5t79 1.5l3 -31l-52 -4q-28 -3 -29 -25
q-5 -95 -5 -177v-171q0 -131 3 -170q1 -11 8 -15.5t28 -4.5q66 0 96 7.5t50 30.5q35 40 59 136z" />
    <glyph glyph-name="M" unicode="M" horiz-adv-x="855" 
d="M23 600l2 31q84 -3 149 -3q81 0 105 3q9 -28 36.5 -96t65.5 -161.5t60 -148.5q102 266 145 406q25 -3 104 -3q31 0 77.5 1.5t61.5 1.5l3 -31q-11 -1 -34 -3t-28 -2q-17 -3 -19 -24q0 -3 0.5 -42t0.5 -78q0 -309 6 -382q1 -20 7.5 -27t21.5 -9l50 -5v-31q-81 3 -160 3
q-12 0 -159 -3l2 31q43 3 56.5 10.5t14.5 27.5q4 64 14 512h-1q-40 -115 -80 -236.5t-70 -214.5t-38 -118l-72 -15q-16 55 -52.5 159.5t-83.5 234.5t-65 183h-2q0 -238 7 -467q2 -39 10 -52.5t35 -16.5l54 -7l-2 -31q-15 0 -58 1.5t-67 1.5q-25 0 -64 -1.5t-48 -1.5l1 31
q7 0 41 5q22 4 32.5 20t12.5 60q11 224 11 454l-3 14q-3 14 -27 15z" />
    <glyph glyph-name="N" unicode="N" horiz-adv-x="672" 
d="M14 600v31q4 0 52 -1.5t79 -1.5q77 0 112 3q14 -25 51 -83q24 -40 238 -354q1 264 -9 359q-4 24 -15.5 33t-39.5 11l-46 3l5 31q25 0 67.5 -1.5t57.5 -1.5q16 0 53.5 1.5t52.5 1.5l1 -30q-44 -7 -47 -8q-13 -3 -19 -10.5t-10 -24.5q-14 -70 -14 -314v-245q-53 0 -99 -11
q-49 78 -180 281t-162 252q0 -374 9 -446q5 -34 36 -39q58 -7 69 -8l-2 -31q-18 0 -64 1.5t-75 1.5q-27 0 -62.5 -1.5t-44.5 -1.5l1 31q8 0 46 6q30 4 36 49q16 144 16 467q-5 17 -13 28q-10 14 -37 18z" />
    <glyph glyph-name="O" unicode="O" horiz-adv-x="703" 
d="M358 644h1q141 0 223 -89.5t82 -231.5q0 -156 -80.5 -247.5t-231.5 -91.5q-152 0 -232.5 90t-80.5 236q0 142 82.5 238t236.5 96zM349 612h-1q-58 0 -91 -62q-37 -68 -37 -222q0 -80 12.5 -148t32.5 -102q35 -61 94 -61t90 61q34 68 34 224q0 165 -37 244q-35 66 -97 66z
" />
    <glyph glyph-name="P" unicode="P" horiz-adv-x="605" 
d="M102 256v186q0 62 -3 128q-2 23 -25 25l-60 5l8 31q7 0 57.5 -1.5t79.5 -1.5q24 0 83.5 2t95.5 2q130 0 182 -47t52 -136q0 -91 -53 -142q-59 -58 -161 -58q-44 0 -71 9l1 32q20 -5 41 -5q32 0 49 27q26 43 26 130q0 93 -30 126q-24 29 -72 29q-23 0 -30 -3.5t-8 -14.5
q-5 -73 -5 -152v-135v-124q0 -47 3 -104q1 -15 8.5 -21t28.5 -8l57 -7l-2 -31q-19 0 -78.5 1.5t-103.5 1.5q-32 0 -85.5 -1.5t-72.5 -1.5v31l39 4q26 2 34.5 9t9.5 30q5 103 5 185z" />
    <glyph glyph-name="Q" unicode="Q" horiz-adv-x="703" 
d="M739 -93l2 -26q-30 -33 -74.5 -49.5t-89.5 -16.5q-48 0 -96.5 29t-112.5 91q-46 45 -105 59q-43 10 -80 30.5t-70.5 55.5t-53 92.5t-19.5 130.5q0 149 83.5 245t237.5 96q139 0 221 -88.5t82 -237.5q0 -78 -20.5 -139t-56 -98.5t-74.5 -59t-83 -29.5v-4q14 -7 95 -41
q102 -45 165 -45q25 -2 49 5zM351 612h-1q-53 0 -88 -58q-41 -70 -41 -234q0 -77 13 -146t34 -103q36 -59 93 -59q55 0 86 55q36 72 36 244q0 163 -40 241q-32 60 -92 60z" />
    <glyph glyph-name="R" unicode="R" horiz-adv-x="643" 
d="M101 213v202q0 116 -2 158q-2 22 -28 23l-55 6l5 30q7 0 60.5 -2t81.5 -2q27 0 90 2t90 2q132 0 179 -42q39 -35 39 -101q0 -136 -188 -161v-5q87 -11 129 -38t55 -81q14 -41 20 -130q4 -46 48 -46q9 0 25 2l-6 -31q-23 -9 -84 -9q-76 0 -115 30t-44 96q-1 15 -3 46.5
t-4 47.5q-4 57 -29 75.5t-82 18.5h-24v-95q0 -106 3 -148q1 -18 13 -23.5t62 -9.5l-2 -31q-14 0 -70 1.5t-87 1.5q-37 0 -93 -1.5t-67 -1.5l2 31q47 4 61.5 9.5t15.5 21.5q4 44 4 154zM259 433v-96h24q61 0 87 32.5t26 103.5q0 59 -17 88q-22 38 -73 38q-5 0 -29 -3
q-13 -3 -14 -21q-4 -48 -4 -142z" />
    <glyph glyph-name="S" unicode="S" horiz-adv-x="522" 
d="M53 217l29 5q1 -86 44 -144.5t119 -58.5q47 0 74.5 25.5t27.5 71.5q0 50 -41 78q-7 4 -72.5 41t-94.5 56q-88 55 -88 158q0 92 59.5 144t154.5 52q96 0 138 -40l19 45l28 -6q-16 -84 -16 -203l-29 -5q-5 78 -42 126.5t-92 48.5q-45 0 -69 -26.5t-24 -67.5q0 -61 57 -90
q30 -18 69.5 -39t64.5 -35t42 -26q74 -47 74 -140q0 -102 -71.5 -152.5t-184.5 -50.5q-93 0 -186 35q8 56 10 198z" />
    <glyph glyph-name="T" unicode="T" horiz-adv-x="608" 
d="M379 471v-236q0 -120 4 -170q1 -27 25 -30q48 -6 69 -7l-3 -31q-7 0 -71.5 1.5t-111.5 1.5q-31 0 -88.5 -1.5t-79.5 -1.5l-3 31q11 1 31.5 3.5t31.5 3.5q33 3 34 27q4 66 4 172v230q0 108 -1 132q-66 0 -88.5 -9.5t-37.5 -39.5q-23 -41 -48 -124l-29 6q10 51 21 208
q52 -9 213 -9h99q180 0 231 9q0 -1 -2 -24l-4 -46t-3 -59.5t0 -68.5l-30 -9q-13 83 -40 130q-10 22 -34 29.5t-88 6.5q0 -9 -0.5 -52.5t-0.5 -72.5z" />
    <glyph glyph-name="U" unicode="U" horiz-adv-x="659" 
d="M385 34h1q63 0 100 32.5t45 125.5q13 180 -2 364q-1 24 -9.5 31.5t-28.5 9.5l-51 5l-3 30q15 0 52.5 -2t57.5 -2q17 0 52 2t54 2l4 -30l-38 -4q-19 -1 -25 -10t-8 -32q-2 -33 -6 -186t-10 -202q-12 -96 -74 -141q-56 -43 -163 -43q-145 0 -200 67q-40 48 -41 146
q0 40 -0.5 188t-1.5 179t-19 32l-52 6v30q18 0 72 -2t83 -2t80.5 2t67.5 2l3 -31l-48 -5q-18 -1 -21 -24q-6 -58 -7 -181t4 -207q2 -52 11 -77t28 -42q31 -31 93 -31z" />
    <glyph glyph-name="V" unicode="V" horiz-adv-x="632" 
d="M-12 600l-2 31q9 0 66.5 -1.5t91.5 -1.5q26 0 78 1.5t81 1.5l5 -31l-49 -7q-20 -3 -16 -21q6 -28 52.5 -172.5t84.5 -252.5q39 104 81 234t51 179q5 29 -17 32q-31 5 -61 8l-3 31q9 0 50.5 -1.5t61.5 -1.5q16 0 52 1.5t62 1.5l5 -31q-45 -1 -63.5 -14t-36.5 -55
q-67 -153 -194 -540q-14 2 -50.5 0.5t-48.5 -4.5q-135 407 -198 566q-12 28 -27.5 37t-55.5 10z" />
    <glyph glyph-name="W" unicode="W" horiz-adv-x="923" 
d="M729 600l-4 31q15 0 55 -2t64 -1q22 0 54 1.5t50 1.5v-31q-45 -5 -59 -14t-29 -46q-72 -198 -171 -549q-43 3 -96 -4q-16 64 -68 240t-70 239q-98 -377 -121 -475q-1 0 -97 -4q-96 357 -161 551q-14 40 -29 50t-58 12v31q13 0 65.5 -1.5t79.5 -1.5q26 0 78 1.5t81 1.5
l5 -31l-48 -6q-19 -3 -15 -24q7 -32 27 -109t45 -169t33 -123q88 332 114 460q54 -6 112 2q10 -43 135 -470q85 273 108 395q4 21 -0.5 28.5t-19.5 9.5z" />
    <glyph glyph-name="X" unicode="X" horiz-adv-x="612" 
d="M4 600v31q17 0 71 -1.5t85 -1.5q26 0 75 1.5t76 1.5l7 -31l-42 -5q-19 -3 -10 -24q35 -74 82 -158q68 103 91 152q8 15 4.5 22.5t-21.5 9.5l-43 3l5 31q20 0 58.5 -2t50.5 -2q23 -1 61.5 1.5t51.5 2.5l4 -31q-54 -4 -76 -14.5t-48 -41.5q-41 -48 -119 -164
q133 -248 171 -312q23 -33 65 -37l35 -3l-3 -31q-19 0 -74 2t-84 2q-34 0 -95 -2t-73 -2l-1 31q39 4 47.5 10.5t0.5 24.5q-23 45 -100 201q-78 -130 -100 -176q-14 -27 -11 -39.5t24 -14.5l51 -6l6 -31q-16 0 -57.5 1.5t-69.5 1.5t-63 -1.5t-52 -1.5l-4 31q40 3 60 12t41 34
q29 33 155 223q-87 166 -147 273q-10 16 -28.5 22t-56.5 8z" />
    <glyph glyph-name="Y" unicode="Y" horiz-adv-x="584" 
d="M470 28l4 -31q-30 0 -93 1.5t-95 1.5q-37 0 -91 -1.5t-78 -1.5l-3 31q22 2 64 8q19 2 27.5 10t9.5 25q2 25 5 189q0 24 -11 47q-45 101 -137 249q-17 27 -33.5 35t-55.5 9v31q8 0 63 -1.5t88 -1.5q42 0 94 1.5t64 1.5l3 -31l-42 -4q-20 -3 -8 -28q37 -82 114 -233
q75 149 102 224q6 20 3.5 26.5t-13.5 8.5q-7 1 -26.5 3.5t-29.5 3.5l3 30q7 0 45.5 -1.5t63.5 -1.5q21 0 55 1.5t50 1.5l3 -31q-43 -2 -61 -11t-37 -37q-47 -73 -128 -238q-11 -21 -11 -47q-3 -148 3 -208q3 -21 22 -23q43 -6 67 -8z" />
    <glyph glyph-name="Z" unicode="Z" horiz-adv-x="620" 
d="M281 628h49h130q16 0 34.5 0.5t40.5 1.5t35 1q-10 -41 -27 -74q-4 -7 -144 -243q-136 -229 -164 -280q148 -1 192.5 7.5t71.5 40.5q32 38 63 143l29 -8q-22 -166 -23 -224q-52 4 -117 6q-43 1 -131 1h-189q-64 0 -92 -3l-10 20q267 424 351 577h-76q-86 0 -121 -13.5
t-54 -48.5q-19 -36 -43 -122l-28 6q21 138 14 221q24 -6 69 -8q28 -1 140 -1z" />
    <glyph glyph-name="bracketleft" unicode="[" horiz-adv-x="364" 
d="M320 -140l-6 -33q-175 4 -213 -5q3 201 3 440q0 342 -3 434q22 -3 98.5 -3t120.5 3l-4 -33q-42 0 -87 -7q-13 -1 -16 -19q-8 -56 -8 -375q0 -330 6 -383q2 -15 28 -16z" />
    <glyph glyph-name="backslash" unicode="\" horiz-adv-x="397" 
d="M39 684l57 22q26 -87 135 -418q13 -38 60 -183.5t65 -192.5l-61 -19q-5 15 -51.5 166t-72.5 233q-110 340 -132 392z" />
    <glyph glyph-name="bracketright" unicode="]" horiz-adv-x="364" 
d="M45 660l5 34q173 -4 214 5q-3 -204 -3 -440q0 -343 3 -434q-19 4 -99 3.5t-120 -3.5l3 33q42 0 87 7q13 1 16 19q8 56 8 375q0 343 -6 384q-1 15 -28 15z" />
    <glyph glyph-name="asciicircum" unicode="^" horiz-adv-x="505" 
d="M454 275h-72l-132 292l-126 -292h-74l170 363h64z" />
    <glyph glyph-name="underscore" unicode="_" horiz-adv-x="500" 
d="M500 -111v-58h-500v58h500z" />
    <glyph glyph-name="grave" unicode="`" horiz-adv-x="456" 
d="M267 497l-22 -16q-32 27 -77.5 66l-52.5 45q-24 26 -24 54q0 23 12 35t29 12q35 0 58 -40q9 -14 40.5 -80.5t36.5 -75.5z" />
    <glyph glyph-name="a" unicode="a" horiz-adv-x="522" 
d="M302 290v39q0 80 -57 80q-64 0 -64 -67q0 -17 3 -32q3 -16 -11 -27q-21 -16 -52 -16q-28 0 -46.5 13t-18.5 42q0 45 60 82t151 37q118 0 162 -64q14 -23 14 -48v-245q0 -37 19 -37q11 0 22.5 18t17.5 46l31 -13q-24 -112 -131 -112q-82 0 -99 71q-69 -71 -140 -71
q-61 0 -95 34.5t-34 93.5q0 68 57 92q22 9 70 25.5t83.5 30.5t57.5 28zM185 139v-1q0 -32 14.5 -56t41.5 -24q37 0 54 41q7 14 7 46v110q-10 -6 -37.5 -20t-39.5 -21q-21 -12 -30.5 -28.5t-9.5 -46.5z" />
    <glyph glyph-name="b" unicode="b" horiz-adv-x="567" 
d="M2 621v31q127 0 214 17q0 -6 -1 -37t-2.5 -83.5t-1.5 -111.5v-58q81 62 152 62q90 0 134 -67q36 -54 36 -137q0 -124 -63 -187.5t-183 -63.5q-77 0 -131 29q-10 -3 -39 -13.5t-46 -16.5l-7 5q0 19 1 106t1 153v217q0 78 -3 130q-1 17 -10.5 21t-50.5 4zM283 19h1
q95 0 95 201q0 81 -24 123q-22 39 -62 39q-46 0 -74 -44q-7 -10 -9.5 -35.5t-2.5 -115.5q0 -51 2 -78.5t4 -34.5t7 -16q21 -39 63 -39z" />
    <glyph glyph-name="c" unicode="c" horiz-adv-x="479" 
d="M426 145l30 -16q-25 -73 -72.5 -108t-123.5 -35q-124 0 -183 71q-43 53 -43 149q0 104 64.5 169.5t181.5 65.5q74 0 122 -30.5t48 -81.5q0 -34 -23.5 -50.5t-52.5 -16.5q-22 0 -36 9q-15 11 -12 29q5 35 5 39q0 69 -54 69q-41 0 -63.5 -50t-22.5 -132q0 -75 21 -120
q30 -63 94 -63q43 0 71.5 24t48.5 78z" />
    <glyph glyph-name="d" unicode="d" horiz-adv-x="577" 
d="M287 625l3 30q93 0 219 14q-6 -141 -6 -220l-1 -221q0 -125 4 -167q2 -14 6.5 -19.5t14.5 -5.5l42 -1l-4 -31q-147 -5 -209 -19q0 7 1 30t0 33h-3q-67 -62 -139 -62q-88 0 -135 59q-46 57 -46 154q0 106 60 174t176 68q59 0 87 -19q0 148 -1 171q-2 22 -12.5 27t-56.5 5z
M189 221v-1q0 -84 27 -131q25 -39 67 -39t65 38q9 15 9 125q0 138 -7 150q-21 42 -64 42q-46 0 -71.5 -50.5t-25.5 -133.5z" />
    <glyph glyph-name="e" unicode="e" horiz-adv-x="486" 
d="M455 124q-49 -138 -200 -138q-122 0 -176 68q-45 54 -45 152q0 101 59.5 168t170.5 67q59 0 100.5 -19.5t59.5 -50.5t25 -57t7 -52q0 -31 -17 -40q-24 -12 -119 -15q-28 -1 -130 -1q-2 -62 21 -107q27 -57 93 -57q82 0 120 99zM263 409h-1q-32 0 -50 -46.5t-20 -122.5h50
q42 0 61 6q18 5 18 41q0 17 -2.5 35t-8 39t-18 34.5t-29.5 13.5z" />
    <glyph glyph-name="f" unicode="f" horiz-adv-x="321" 
d="M25 394l5 33l57 -1v27q2 109 57 164q57 55 138 55q56 0 86.5 -24t30.5 -59q0 -25 -19.5 -41t-50.5 -16q-35 0 -35 35q-1 35 -8 52.5t-25 17.5q-29 0 -33 -48q-2 -28 5 -162h90l-6 -34l-85 -6q-1 -34 -1 -156q0 -123 2 -166q1 -17 6.5 -24.5t19.5 -8.5q38 -4 50 -4l-4 -31
q-15 0 -64.5 1.5t-74.5 1.5q-27 0 -78 -1.5t-65 -1.5l2 31q35 1 45.5 6t11.5 19q4 58 4 136v198z" />
    <glyph glyph-name="g" unicode="g" horiz-adv-x="514" 
d="M132 -55l15 -18q-33 -16 -33 -45q0 -34 37 -59t108 -25q84 0 125.5 30t41.5 72q0 22 -14.5 34t-40.5 12h-192q-84 0 -128 53q-24 31 -24 74q0 72 70 119q-32 35 -32 89q0 56 31.5 93.5t74 52t90.5 14.5q79 0 112 -23q61 54 101 54q19 0 33.5 -11.5t14.5 -23.5
q-1 -12 -16 -28.5t-26 -20.5q-21 16 -56 16q-14 0 -25 -3q52 -41 52 -109q0 -43 -18.5 -74.5t-49 -48.5t-63.5 -24.5t-68 -7.5q-91 0 -131 34q-15 -5 -25.5 -19t-10.5 -30q0 -17 15 -28t40 -11q18 0 98.5 2t149.5 2q51 0 87 -28q42 -36 42 -95q0 -99 -87.5 -153t-201.5 -54
q-96 0 -146.5 29.5t-50.5 77.5q0 36 43 60q25 13 58 21zM257 408h-1q-52 0 -52 -118q0 -56 14.5 -89t40.5 -33q52 0 52 120t-54 120z" />
    <glyph glyph-name="h" unicode="h" horiz-adv-x="580" 
d="M21 625l1 30q125 2 203 14q-4 -84 -4 -181v-113q81 66 157 66q51 0 78.5 -19.5t37.5 -41.5q12 -25 12 -64q0 -48 -0.5 -143t-0.5 -116q0 -17 8.5 -22t47.5 -7v-31q-13 0 -56.5 1.5t-70.5 1.5q-30 0 -71.5 -1.5t-51.5 -1.5l1 31q26 1 35 6.5t11 20.5q3 30 3 126
q0 145 -7 163q-13 35 -48 35q-48 0 -74 -44q-11 -16 -11 -45v-109q0 -93 1 -119q2 -20 10.5 -26.5t38.5 -7.5v-31q-11 0 -55 1.5t-68 1.5q-38 0 -80 -1.5t-52 -1.5v31q34 1 44.5 7t12.5 25q3 84 3 155v271q0 99 -2 119q-2 13 -11 16.5t-42 3.5z" />
    <glyph glyph-name="i" unicode="i" horiz-adv-x="306" 
d="M151 642h1q35 0 54.5 -19.5t19.5 -54.5q0 -31 -21.5 -51t-56.5 -20q-31 0 -51 19.5t-20 50.5q0 33 20.5 54t53.5 21zM289 28v-31q-15 0 -60 1.5t-80 1.5q-37 0 -76 -1.5t-50 -1.5v31q37 1 48 7.5t12 22.5q3 28 3 106v109q0 82 -2 98q-1 13 -11 16.5t-44 2.5l1 31
q153 9 204 19q-3 -72 -3 -160v-117q0 -34 3 -103q1 -18 10.5 -23.5t44.5 -8.5z" />
    <glyph glyph-name="j" unicode="j" horiz-adv-x="295" 
d="M146 642h1q35 0 54.5 -19t19.5 -55q0 -31 -21.5 -51t-56.5 -20q-31 0 -51 19.5t-20 50.5q0 33 20.5 54t53.5 21zM21 393l-2 30q113 5 207 18l4 -3q-1 -69 -1 -305q0 -132 -10 -179q-11 -66 -51 -111q-34 -38 -82 -59.5t-82 -21.5q-17 0 -27 12q-8 12 -15 25l9 12
q26 -6 45 -6q51 0 59 75q9 92 9 286q0 168 -3 210q-1 10 -5 13.5t-17 3.5h-38z" />
    <glyph glyph-name="k" unicode="k" horiz-adv-x="539" 
d="M20 621l1 31q142 4 203 17q-3 -78 -3 -219v-213q25 6 70.5 52.5t72.5 88.5q9 15 -8 16l-41 4v30q69 -1 207 7v-29q-69 -8 -91 -25q-34 -27 -89 -87q107 -192 149 -245q15 -18 45 -20l25 -1l-2 -31q-148 0 -206 -11q-7 14 -108 202q-9 16 -14 21t-11 4q0 -122 2 -153
q1 -19 10.5 -25t46.5 -7l-1 -31q-15 0 -58.5 1.5t-74.5 1.5q-39 0 -80.5 -1.5t-50.5 -1.5v31q34 1 45 7t12 20q4 40 4 157v221q0 128 -1 173q-1 14 -22 15h-32z" />
    <glyph glyph-name="l" unicode="l" horiz-adv-x="296" 
d="M19 624l1 31q73 0 205 14q-4 -112 -4 -196v-254q0 -131 1 -157q1 -21 11.5 -26.5t47.5 -7.5l-1 -31q-17 0 -67.5 1.5t-72.5 1.5q-30 0 -72.5 -1.5t-55.5 -1.5v31q36 1 47 8t13 31q4 80 4 162v243q0 103 -1 127q-1 16 -10 20t-46 5z" />
    <glyph glyph-name="m" unicode="m" horiz-adv-x="870" 
d="M86 173v90q0 69 -3 113q-1 10 -11 13t-44 3l3 31q107 0 192 14q4 -18 10 -68q82 72 163 72q63 0 93 -39q10 -11 19 -35q29 24 44 35t50 25t71 14q74 0 105 -53q17 -29 17 -68v-263q0 -16 8.5 -20.5t47.5 -9.5l-1 -30q-17 0 -59 2t-71 2q-34 0 -74 -2t-47 -2v30
q27 2 36.5 8t11.5 20q3 34 3 133q0 145 -6 159q-13 29 -47 29q-45 0 -74 -48q-10 -19 -10 -43v-133q0 -72 1 -97q1 -15 10.5 -20t40.5 -7l-3 -31q-7 0 -52.5 1.5t-74.5 1.5q-34 0 -72.5 -1.5t-44.5 -1.5v31q28 2 37 8t10 23q3 87 3 120v101q0 56 -6 70q-14 26 -44 26
q-47 0 -75 -47q-12 -19 -12 -48v-130q0 -55 3 -96q1 -15 10 -20t39 -7l-5 -31q-7 0 -49.5 1.5t-70.5 1.5q-32 0 -76 -1.5t-55 -1.5v31q36 2 45.5 7t10.5 24q3 38 3 114z" />
    <glyph glyph-name="n" unicode="n" horiz-adv-x="590" 
d="M27 -3v31q36 1 45 6.5t11 24.5q3 46 3 109v95q0 72 -3 111q-1 10 -9.5 13.5t-40.5 4.5l1 31q103 0 190 14q7 -41 8 -65q75 69 153 69q83 0 115 -57q15 -26 15 -62v-266q0 -16 9 -20t49 -8l-1 -31q-19 0 -62.5 1.5t-69.5 1.5q-36 0 -76 -1.5t-44 -1.5v31q27 1 36 7.5
t10 21.5q4 40 4 134q1 100 -0.5 125t-7.5 35q-15 26 -46 26q-47 0 -75 -45q-10 -17 -10 -43v-126q0 -80 2 -109q1 -14 10.5 -19t39.5 -7v-31q-9 0 -55.5 1.5t-72.5 1.5q-31 0 -73 -1.5t-55 -1.5z" />
    <glyph glyph-name="o" unicode="o" horiz-adv-x="554" 
d="M282 441h1q107 0 172.5 -60t65.5 -165q0 -107 -66.5 -168.5t-179.5 -61.5q-119 0 -180 61t-61 162q0 103 65.5 167.5t182.5 64.5zM277 408h-1q-36 0 -58 -39q-23 -46 -23 -139q0 -109 25 -164q21 -47 65 -47q41 0 58 41q20 51 20 146q0 110 -26 160q-21 42 -60 42z" />
    <glyph glyph-name="p" unicode="p" horiz-adv-x="578" 
d="M-6 -228l5 31q44 4 56.5 9.5t13.5 21.5q6 76 6 192v217q0 93 -2 127q-2 14 -12.5 18.5t-46.5 4.5l5 30q149 7 199 17q3 -35 5 -71q78 72 159 72q74 0 116 -54q46 -54 46 -150q0 -123 -60 -187t-173 -64q-59 0 -91 22q0 -125 3 -169q2 -20 14.5 -26t62.5 -7l-5 -32
q-3 0 -51 1.5t-91 1.5q-29 0 -159 -5zM296 22h1q49 0 71 55.5t22 139.5q0 79 -24 121q-20 38 -58 38q-45 0 -74 -46q-10 -15 -11 -37q-3 -86 -1 -198q0 -19 7 -32q25 -41 67 -41z" />
    <glyph glyph-name="q" unicode="q" horiz-adv-x="567" 
d="M501 220v-245q0 -93 5 -143q1 -13 13.5 -17.5t59.5 -5.5l-5 -32q-175 2 -310 -9l5 32q49 5 65 11.5t17 22.5q4 36 4 108v97q-71 -53 -140 -53q-77 0 -124 45q-57 57 -57 164q0 113 64.5 179.5t180.5 66.5q70 0 119 -27l91 25h15q0 -8 -1 -37t-1.5 -78t-0.5 -104zM286 406
h-1q-48 0 -71.5 -55t-23.5 -129q0 -95 30 -140q26 -37 65 -37q41 0 61 34q10 16 10 112q0 105 -3 154q-3 20 -13 35q-20 26 -54 26z" />
    <glyph glyph-name="r" unicode="r" horiz-adv-x="428" 
d="M86 176v69q0 90 -6 126q-5 17 -21 17h-33l1 31q128 5 184 20l5 -3q8 -44 8 -105h4q21 53 49.5 81.5t73.5 28.5q31 0 50 -20.5t19 -51.5q0 -40 -22 -59t-43 -19q-30 0 -39 19q-5 11 -8 17t-9 10t-15 4q-27 0 -44 -47q-9 -24 -9 -58q0 -151 1 -175q2 -19 16.5 -25t68.5 -8
l-3 -31q-18 0 -48 1t-55.5 1.5t-49.5 0.5q-10 0 -139 -3l4 31q34 1 44 6t12 18q4 48 4 124z" />
    <glyph glyph-name="s" unicode="s" horiz-adv-x="427" 
d="M358 286l-29 -6q-4 49 -37.5 88t-80.5 39q-30 0 -47 -15.5t-17 -39.5q0 -27 27 -43q16 -9 78 -32t79 -32q64 -33 64 -103q0 -80 -59 -117.5t-142 -37.5q-88 0 -150 27q4 48 2 153h28q8 -51 27 -82q36 -63 111 -63q34 0 53 15t19 40q0 28 -28 43q-14 7 -122 52
q-87 37 -87 120q0 70 49 109.5t123 39.5t105 -27l14 36l29 -9q-12 -68 -9 -155z" />
    <glyph glyph-name="t" unicode="t" horiz-adv-x="357" 
d="M224 427h116l-2 -34l-115 -7q0 -13 -1 -66.5t-1 -94.5q0 -117 4 -158q4 -32 29 -32q27 0 46 24t26 56h13l13 -40q-16 -41 -57.5 -65t-99.5 -24q-72 0 -102 36q-19 25 -19 66q0 1 4 299l-60 6l4 34h57q0 16 0.5 54.5t0.5 56.5q96 23 139 51l10 -2q-5 -65 -5 -160z" />
    <glyph glyph-name="u" unicode="u" horiz-adv-x="581" 
d="M298 394v31q93 3 123 5q17 1 36.5 2t31.5 2t17 1q-3 -69 -3 -136v-115q0 -86 3 -122q2 -19 11.5 -23.5t49.5 -3.5l-1 -32q-37 -1 -115 -8q-46 -3 -89 -9q-2 33 -5 79q-72 -79 -168 -79q-86 0 -109 54q-10 20 -10 59q0 37 1 107t1 97q0 56 -1 72q-1 14 -11.5 17.5
t-42.5 3.5l2 31q60 0 114 3q23 1 92 7q-9 -52 -9 -197q0 -136 5 -160q6 -32 39 -32q32 0 55 22t34 53q9 23 9 57v112q0 60 -3 82q-1 12 -12.5 15.5t-44.5 4.5z" />
    <glyph glyph-name="v" unicode="v" horiz-adv-x="480" 
d="M-9 399l-3 31q81 -3 127 -3q29 0 77.5 1.5t60.5 1.5l4 -31l-32 -4q-11 -2 -13.5 -6.5t1.5 -16.5q12 -41 86 -233q61 155 81 226q8 27 -16 30l-41 4v31q16 0 48 -1.5t47 -1.5q21 0 49 1.5t37 1.5v-31q-34 -3 -49.5 -13.5t-30.5 -42.5q-57 -119 -144 -351q-47 -2 -74 -5
q-87 229 -148 366q-14 29 -25 37t-42 9z" />
    <glyph glyph-name="w" unicode="w" horiz-adv-x="729" 
d="M-9 399v31q84 -3 126 -3q27 0 144 3l3 -31l-40 -4q-19 -2 -13 -23q9 -33 22.5 -76.5t28 -89t18.5 -59.5q29 78 94 282q26 -2 72 1q6 -16 54 -138.5t60 -153.5q56 158 69 229q3 15 -2 20.5t-23 7.5l-39 4v31q17 0 51 -1.5t50 -1.5q21 0 50.5 1.5t38.5 1.5v-31
q-37 -3 -51.5 -13.5t-30.5 -47.5q-36 -80 -128 -346q-32 0 -75 -5q-8 22 -28.5 74.5t-46.5 116.5t-36 90q-44 -120 -98 -281q-59 4 -75 5q-47 151 -127 363q-12 27 -24 35t-44 9z" />
    <glyph glyph-name="x" unicode="x" horiz-adv-x="497" 
d="M4 399v31q78 -3 127 -3q11 0 131 3l2 -31l-21 -3q-16 -3 -5 -22q9 -17 27 -47.5t20 -34.5q31 42 54 84q10 16 -11 19l-24 4l2 31q9 0 41 -1.5t51 -1.5q18 0 48.5 1.5t41.5 1.5v-31q-63 -5 -96 -33q-31 -28 -89 -105q95 -160 126 -202q12 -15 28.5 -21t53.5 -10l-1 -31
q-87 3 -138 3q-11 0 -137 -3l-1 30l21 4q17 5 7 23q-9 18 -31.5 57.5t-29.5 51.5q-40 -55 -66 -105q-7 -13 -3.5 -18.5t17.5 -7.5l31 -4l-2 -31q-14 0 -50.5 1.5t-54.5 1.5q-20 0 -49 -1.5t-36 -1.5l-2 31q36 3 56 12.5t43 33.5q46 52 98 122q-68 119 -103 169
q-12 18 -27 24.5t-49 9.5z" />
    <glyph glyph-name="y" unicode="y" horiz-adv-x="466" 
d="M-10 399v31q96 -3 125 -3q30 0 76 1.5t57 1.5l4 -31l-29 -4q-18 -2 -12 -23q11 -33 29.5 -79.5t39 -96t23.5 -56.5q40 110 67 213q6 23 0 31.5t-30 11.5l-35 3l1 31q12 0 44.5 -2t49.5 -2q13 0 45 2t47 2l-1 -31q-32 -2 -46.5 -13.5t-32.5 -55.5q-41 -99 -153 -408
q-30 -85 -59.5 -123t-79.5 -38q-32 0 -53 18.5t-21 50.5q0 30 17.5 47t40.5 17q26 0 35 -19q12 -29 31 -29q6 0 12.5 5t12 14.5t10.5 19t10 24t8 23t7 22t5 16.5q-18 13 -40 65q-108 261 -138 322q-10 22 -19.5 29.5t-27.5 9.5z" />
    <glyph glyph-name="z" unicode="z" horiz-adv-x="477" 
d="M79 264l-30 -4q10 163 10 178q29 -11 121 -11h90q81 0 165 3q-3 -27 -21 -58q-16 -29 -96.5 -169.5t-96.5 -169.5q58 -1 106 7q37 5 58.5 38t37.5 108l29 -11q-15 -98 -17 -180q-57 5 -277 5q-39 0 -76.5 -1.5t-39.5 -1.5l-12 20q45 61 126.5 200t97.5 177q-55 0 -91 -5
q-24 -3 -36 -12t-22 -32q-13 -25 -26 -81z" />
    <glyph glyph-name="braceleft" unicode="{" horiz-adv-x="366" 
d="M317 710l-3 -35q-57 -2 -73.5 -23.5t-8.5 -86.5q16 -122 14 -164q-1 -58 -33 -90.5t-105 -54.5q73 -24 105.5 -56.5t32.5 -94.5q0 -36 -10 -138q-8 -81 4.5 -105t72.5 -25l3 -35q-30 -3 -62 4.5t-62 24.5t-49.5 50t-19.5 76q0 25 3 101.5t3 106.5q0 41 -21 57t-65 16
l-6 35q45 0 68.5 18t23.5 60q0 27 -3.5 94.5t-2.5 89.5q0 49 19 86t49 55.5t62 27t64 6.5z" />
    <glyph glyph-name="bar" unicode="|" horiz-adv-x="275" 
d="M94 750h87v-1000h-87v1000z" />
    <glyph glyph-name="braceright" unicode="}" horiz-adv-x="366" 
d="M46 -198l4 35q57 2 75 23.5t10 86.5q-2 18 -7.5 51.5t-8.5 59.5t-3 50q2 60 33.5 93t104.5 55q-72 21 -105 55.5t-33 98.5q0 35 12 135q9 79 -4.5 104t-73.5 26l-3 34q30 3 62.5 -4.5t63 -24t50.5 -49.5t20 -77q0 -25 -5 -99.5t-5 -103.5q0 -78 87 -78l6 -34
q-93 0 -93 -79q0 -30 5 -97t5 -87q0 -49 -20 -85.5t-51 -55.5t-63.5 -27t-62.5 -6z" />
    <glyph glyph-name="asciitilde" unicode="~" horiz-adv-x="537" 
d="M428 328l61 -11q-11 -185 -126 -185q-32 0 -58.5 18.5t-62.5 58.5q-18 21 -26 29.5t-21 17t-25 8.5q-48 0 -61 -126l-61 8q10 187 128 187q53 0 112 -70q51 -60 78 -60q23 0 39 25.5t23 99.5z" />
    <glyph glyph-name="uni00A0" unicode="&#xa0;" horiz-adv-x="202" 
 />
    <glyph glyph-name="exclamdown" unicode="&#xa1;" horiz-adv-x="270" 
d="M134 -231h-1q-25 0 -61 33t-36 71q0 32 22 84q59 148 59 243h37q0 -96 59 -243q22 -52 22 -84q0 -34 -35 -69t-66 -35zM132 440h1q36 0 59 -24t23 -61q0 -36 -24.5 -60.5t-58.5 -24.5t-58 24t-24 60t24 61t58 25z" />
    <glyph glyph-name="cent" unicode="&#xa2;" horiz-adv-x="518" 
d="M471 253l5 -42q-22 -43 -69 -71t-101 -33l-3 -82l-42 -10l6 91q-129 1 -185 68q-44 50 -44 138q0 104 70.5 163t180.5 61l3 77l42 8l-6 -85q70 -4 111 -32t41 -74q0 -28 -19.5 -44t-47.5 -16q-22 0 -33.5 10.5t-7.5 24.5q6 28 6 40q0 49 -53 59q-9 -153 -16 -354
q57 0 90 25t52 79zM191 327v-1q0 -83 22 -126q20 -38 58 -47q11 200 17 353q-35 -4 -58 -36t-31 -68.5t-8 -74.5z" />
    <glyph glyph-name="sterling" unicode="&#xa3;" horiz-adv-x="518" 
d="M16 298l14 44q36 -2 74 -2q-10 92 2 137q16 73 81 114q55 32 123 32q85 0 124.5 -33t39.5 -75q0 -35 -22 -52.5t-52 -17.5q-24 0 -35 8q-14 10 -11 26q5 27 5 38q0 30 -12.5 52t-41.5 22q-54 0 -53 -98q0 -50 9 -153q22 0 151 3l-15 -46q-78 3 -135 3q0 -72 -29 -113
q-31 -42 -105 -80q288 6 301 14q12 7 16 20q9 27 20 59l32 5q-27 -123 -25 -209l-8 -5q-122 9 -312 9q-71 0 -129 -4l-6 8l27 80q22 11 34.5 21t24 33.5t12.5 56.5q1 41 -7 105q-54 0 -92 -2z" />
    <glyph glyph-name="currency" unicode="&#xa4;" horiz-adv-x="519" 
d="M254 456h-1q-48 1 -74 -41t-26 -106q0 -75 28 -114.5t73 -39.5q47 0 71.5 42t24.5 106q0 66 -22.5 109.5t-73.5 43.5zM258 504h1q67 0 107 -33l58 77l52 -49l-74 -64q42 -46 42 -131q0 -82 -46 -130l77 -70l-50 -51l-67 87q-44 -34 -109 -34t-108 31l-60 -80l-45 50
l68 64q-45 51 -45 132q0 84 51 135l-72 61l50 51l61 -79q41 31 109 33z" />
    <glyph glyph-name="yen" unicode="&#xa5;" horiz-adv-x="518" 
d="M-9 585l4 30q23 0 71 -1t67 -1q50 0 93 1t49 1v-30q-7 -1 -22 -2.5t-21 -2.5q-12 -1 -6 -19q7 -17 20.5 -48.5t32.5 -74.5t30 -69q20 45 76 180q7 20 -3 27t-52 9l3 30q17 0 50 -1t49 -1q14 0 43 1t41 1v-30q-33 -1 -49 -10t-36 -38q-12 -20 -31 -57.5t-41 -84t-29 -59.5
q13 0 117 4l-12 -43q-3 0 -40 1t-69 1v-70q63 0 115 2l-10 -42q-4 0 -40 1t-65 1q0 -79 3 -132q1 -24 20 -25q30 -4 68 -6l-4 -31q-96 3 -172 3q-15 0 -72 -1.5t-81 -1.5l2 31q59 7 62 7q22 3 24 25q2 21 4 132q-82 0 -111 -2l6 43q81 -3 107 -3v70q-68 1 -118 -3l11 43
q5 0 16 -0.5t33.5 -1.5t51.5 -1q-21 50 -54.5 116t-51.5 94q-16 24 -31 31t-48 7z" />
    <glyph glyph-name="brokenbar" unicode="&#xa6;" horiz-adv-x="275" 
d="M96 675h87v-350h-87v350zM96 -175v350h87v-350h-87z" />
    <glyph glyph-name="section" unicode="&#xa7;" horiz-adv-x="520" 
d="M294 616h1q53 0 91 -24t38 -70q0 -25 -18 -40t-42 -15q-31 0 -47 13q-11 11 -7 18q8 16 8 33q0 22 -16.5 35.5t-41.5 13.5q-24 0 -39.5 -14.5t-15.5 -35.5q0 -26 24 -53q5 -5 88 -72.5t118 -109.5q43 -52 43 -130q0 -122 -79 -213q-83 -96 -183 -96q-51 0 -94 25t-43 74
q0 28 19 46t46 18q36 0 56 -27q8 -13 1 -22q-11 -15 -11 -30q0 -21 15.5 -34t43.5 -13q30 0 48 16t17 40q0 32 -49 76q-13 11 -53 45.5t-72 62.5t-47 44q-54 59 -54 145q0 74 33 135t75 98q69 61 147 61zM418 83v1q0 62 -45 113q-28 31 -102.5 96.5t-85.5 77.5
q-55 57 -49 132q-34 -43 -34 -107q0 -77 75 -144q23 -20 57 -49.5t57.5 -50.5t39.5 -36q53 -55 57 -124q30 33 30 91z" />
    <glyph glyph-name="dieresis" unicode="&#xa8;" horiz-adv-x="456" 
d="M130 638h1q30 0 47 -18t17 -48q0 -32 -21 -51.5t-47 -19.5q-25 0 -43.5 16.5t-18.5 49.5q0 31 18 51t47 20zM327 638h1q29 0 46.5 -18t17.5 -47q0 -33 -20.5 -52.5t-46.5 -19.5t-44.5 17t-18.5 49q0 31 18 51t47 20z" />
    <glyph glyph-name="copyright" unicode="&#xa9;" horiz-adv-x="705" 
d="M353 643h1q133 0 219.5 -91.5t86.5 -228.5t-88 -227.5t-219 -90.5q-132 0 -220 90t-88 228q0 135 89 227.5t219 92.5zM353 609h-1q-113 0 -188.5 -81t-75.5 -205t76 -204.5t191 -80.5q112 0 187.5 80.5t75.5 204.5q0 123 -73.5 204.5t-191.5 81.5zM489 276l23 -11
q-30 -106 -149 -106q-90 0 -139 51q-38 43 -38 114q0 83 55 130q49 44 132 44q53 0 91 -24q7 -5 8 1l10 21l19 -2q-9 -58 -3 -133h-23q-5 46 -29 79q-23 29 -60 29q-38 0 -59 -28q-27 -34 -27 -105q0 -74 26 -106q25 -31 70 -31q66 0 93 77z" />
    <glyph glyph-name="ordfeminine" unicode="&#xaa;" horiz-adv-x="396" 
d="M219 460v30q0 41 -35 41q-18 0 -27.5 -10t-9.5 -22q0 -11 3 -20q3 -12 -11 -25q-19 -13 -50 -13q-21 0 -33 10t-12 25q0 33 44 58t109 25q90 0 119 -41q11 -13 11 -34q0 -4 -0.5 -61.5t-0.5 -78.5q0 -28 15 -28q16 0 29 41l24 -11q-20 -79 -101 -79q-66 0 -73 41l-1 6
q-50 -47 -105 -47q-39 0 -63.5 23.5t-24.5 59.5q0 46 48 62q122 36 145 48zM219 378v55q-30 -11 -53 -23q-26 -15 -26 -43q0 -22 10 -34.5t26 -12.5q28 0 39 30q4 9 4 28z" />
    <glyph glyph-name="guillemotleft" unicode="&#xab;" horiz-adv-x="548" 
d="M253 412l27 -12q-22 -90 -85 -188q72 -107 85 -183l-23 -16q-33 70 -94.5 122.5t-109.5 65.5l10 24q51 17 104.5 68.5t85.5 118.5zM469 413l28 -12q-25 -98 -86 -189q70 -99 86 -184l-24 -16q-34 70 -96.5 123t-109.5 66l9 24q51 17 105.5 69t87.5 119z" />
    <glyph glyph-name="logicalnot" unicode="&#xac;" horiz-adv-x="537" 
d="M418 97v198h-364v60h428v-258h-64z" />
    <glyph glyph-name="uni00AD" unicode="&#xad;" horiz-adv-x="334" 
d="M38 191l13 78q117 -3 246 0l-12 -78q-129 4 -247 0z" />
    <glyph glyph-name="registered" unicode="&#xae;" horiz-adv-x="268" 
d="M137 647h1q50 0 83 -34.5t33 -86.5q0 -50 -33.5 -85.5t-83.5 -35.5q-49 0 -82.5 35.5t-33.5 85.5q0 52 33 86.5t83 34.5zM137 627h-1q-37 0 -63.5 -28.5t-26.5 -72.5q0 -41 27 -70t66 -29t65.5 28.5t26.5 70.5q0 43 -26.5 72t-67.5 29zM77 568l1 13q2 0 13.5 -0.5
t15.5 -0.5q3 0 17 0.5t25 0.5q36 0 36 -25q0 -23 -29 -26v-1q23 -2 28 -14q4 -8 4 -16q2 -11 9 -11q4 0 6 1l-1 -13q-10 -2 -26 -2q-22 0 -22 23q0 3 -0.5 7t-0.5 6q-1 9 -12 11h-15q0 -5 0.5 -14t0.5 -12q0 -5 4 -5l9 -2v-13h-60v13l7 1q6 1 7 4q1 8 1 37q0 28 -1 32
q0 5 -4 5zM151 550v1q0 18 -16 18q-8 0 -9 -3v-33q7 0 12 1q13 2 13 16z" />
    <glyph glyph-name="macron" unicode="&#xaf;" horiz-adv-x="456" 
d="M106 523l11 73h234l-9 -73h-236z" />
    <glyph glyph-name="degree" unicode="&#xb0;" horiz-adv-x="339" 
d="M176 654h1q56 0 90.5 -33.5t34.5 -89.5q0 -62 -38.5 -96.5t-97.5 -34.5q-57 0 -93 32t-36 91q0 62 39 96.5t100 34.5zM173 621q-17 0 -29 -9.5t-17.5 -25t-7.5 -28.5t-2 -27q0 -94 52 -94q56 0 56 97q0 86 -52 87z" />
    <glyph glyph-name="plusminus" unicode="&#xb1;" horiz-adv-x="533" 
d="M481 62v-60h-428v60h428zM300 97h-65v180h-182v59h182v169h65v-169h181v-59h-181v-180z" />
    <glyph glyph-name="two.superior" unicode="&#xb2;" horiz-adv-x="389" 
d="M350 565l28 -8q-22 -70 -28 -137q-44 4 -213 4q-74 0 -95 -2l-3 6q1 3 22 60q132 59 156 136q9 25 9 63q0 63 -41 63q-42 0 -42 -61q0 -10 3 -31q1 -13 -10 -20q-12 -10 -34 -10q-54 0 -54 51q0 36 42 68q43 33 114 33q62 0 98 -23q47 -29 47 -86q0 -50 -44 -80
q-26 -20 -147 -83q111 3 156 6q12 1 18 11q8 16 18 40z" />
    <glyph glyph-name="three.superior" unicode="&#xb3;" horiz-adv-x="389" 
d="M208 780q32 0 61 -6.5t53.5 -26.5t24.5 -52q0 -42 -47 -62q-16 -6 -72 -20v-3q73 -3 107 -24q35 -19 35 -62q0 -49 -51 -78q-47 -31 -130 -31q-60 0 -103 22t-43 59q0 20 17.5 34t41.5 14q15 0 22 -7.5t11 -25.5q11 -66 57 -66q51 0 51 72q0 73 -68 73q-20 0 -36 -4
l-14 24l4 7q50 2 72 18q30 18 30 57q0 25 -11.5 41.5t-33.5 16.5q-47 0 -47 -53q0 -16 2 -25q1 -10 -9 -16.5t-25 -6.5q-52 0 -52 42q0 32 41.5 60.5t111.5 28.5z" />
    <glyph glyph-name="acute" unicode="&#xb4;" horiz-adv-x="456" 
d="M208 481l-22 17q9 15 48 79.5t48 77.5q28 39 62 39q37 0 37 -43q0 -32 -37 -63q-11 -9 -30 -24.5t-51.5 -40.5t-54.5 -42z" />
    <glyph glyph-name="mu" unicode="&#xb5;" horiz-adv-x="582" 
d="M574 109l28 -21q-32 -101 -151 -101q-52 0 -71 23.5t-21 62.5q-61 -85 -138 -84q-28 0 -43 13q2 -79 25 -242l-9 -7q-40 0 -74 7t-49.5 14t-17.5 11q5 58 10 128t8 116.5t4 53.5v222q0 87 -3 123q44 -1 158 9q-10 -57 -10 -200q0 -134 6 -158q8 -30 35 -30q34 0 58 26
t35 68q7 25 7 59v94q0 34 -1.5 79t-1.5 51q67 2 152 9q-4 -46 -4 -136v-115q0 -86 3 -120q2 -26 15 -26t27 17t23 54z" />
    <glyph glyph-name="paragraph" unicode="&#xb6;" horiz-adv-x="542" 
d="M509 562v-32l-67 -8q-15 -2 -20 -10.5t-5 -40.5v-316q0 -149 -12 -216t-52 -106q-42 -41 -109 -41q-53 0 -90.5 26t-37.5 83q0 31 20 54.5t49 23.5q20 0 33.5 -8.5t17.5 -14.5t10 -20q7 -14 0 -19q-1 -1 -3 0q-15 3 -16 3q-17 0 -25.5 -11t-8.5 -26q0 -25 17.5 -40
t48.5 -15q53 0 76.5 51.5t23.5 193.5v54q-60 -27 -98 -27q-89 0 -148 62.5t-59 160.5q0 147 114 210q50 27 117 27q25 0 67.5 -0.5t51.5 -0.5q36 0 105 3z" />
    <glyph glyph-name="periodcentered" unicode="&#xb7;" horiz-adv-x="260" 
d="M131 311h1q35 0 58 -24.5t23 -61.5t-24 -61.5t-58 -24.5q-35 0 -59 24.5t-24 61.5t24.5 61.5t58.5 24.5z" />
    <glyph glyph-name="cedilla" unicode="&#xb8;" horiz-adv-x="456" 
d="M233 5h34q-17 -25 -35 -56q77 -16 77 -81q0 -40 -28.5 -65.5t-75.5 -25.5q-41 0 -68 20l11 31q21 -12 47 -12q41 0 41 32q0 17 -18 27.5t-49 9.5l-6 13q11 17 34.5 52.5t35.5 54.5z" />
    <glyph glyph-name="one.superior" unicode="&#xb9;" horiz-adv-x="389" 
d="M332 450l1 -29q-23 0 -67 1.5t-62 1.5q-23 0 -61.5 -1.5t-51.5 -1.5l-3 29l46 4q22 3 22 16q3 54 3 84v92q0 40 -2 76q0 8 -9 8q-33 -6 -57 -10l5 33q149 20 173 28l4 -3q-3 -60 -3 -127v-97q0 -46 2 -84q2 -14 16 -15z" />
    <glyph glyph-name="ordmasculine" unicode="&#xba;" horiz-adv-x="410" 
d="M210 559h1q75 0 122.5 -36t47.5 -107q0 -66 -48.5 -107t-133.5 -41q-83 0 -126.5 38.5t-43.5 103.5q0 66 48 107.5t133 41.5zM207 530h-1q-24 0 -38 -24q-17 -27 -17 -92q0 -57 13 -87t43 -30q28 0 40 28q14 33 14 93q0 57 -13 86q-13 26 -41 26z" />
    <glyph glyph-name="guillemotright" unicode="&#xbb;" horiz-adv-x="548" 
d="M297 13l-27 12q22 92 84 188q-71 105 -84 183l23 16q33 -70 94.5 -122.5t109.5 -65.5l-10 -24q-51 -17 -104.5 -68.5t-85.5 -118.5zM81 12l-28 12q25 98 86 189q-70 99 -86 184l24 16q34 -70 96.5 -123t109.5 -66l-9 -24q-51 -17 -105.5 -69t-87.5 -119z" />
    <glyph glyph-name="onequarter" unicode="&#xbc;" horiz-adv-x="817" 
d="M310 302l1 -29q-23 0 -67 1.5t-62 1.5q-23 0 -61.5 -1.5t-51.5 -1.5l-3 29l46 4q22 3 22 16q3 54 3 84v92q0 40 -2 76q0 8 -9 8q-33 -6 -57 -10l5 33q149 20 173 28l4 -3q-3 -60 -3 -127v-97q0 -46 2 -84q2 -14 16 -15zM603 669l38 -24q-218 -330 -424 -675l-37 27
q253 388 423 672zM413 114l-9 24q140 167 177 217q65 8 106 22l5 -4q-2 -86 -2 -193v-39q39 2 70 15v-26q-27 -18 -70 -24q0 -12 0.5 -41.5t0.5 -44.5q-89 -1 -117 -10l-4 4q2 25 4 87q-120 0 -161 13zM576 139q5 95 5 167q-68 -83 -120 -157q30 -10 115 -10z" />
    <glyph glyph-name="onehalf" unicode="&#xbd;" horiz-adv-x="817" 
d="M291 302v-29q-22 0 -66 1.5t-62 1.5q-23 0 -61.5 -1.5t-51.5 -1.5l-3 29l46 4q22 3 22 16q3 57 3 84v92q0 42 -2 76q0 8 -9 8q-33 -6 -57 -10l5 33q149 20 173 28l4 -3q-3 -60 -3 -126v-97q0 -45 2 -85q2 -14 16 -15zM577 669l38 -24q-207 -314 -423 -675l-37 27
q242 370 422 672zM750 164l27 -8q-24 -78 -27 -138q-46 4 -213 4q-75 0 -96 -2l-3 5q19 51 23 61q134 61 155 137q9 25 9 63q0 64 -40 64q-43 0 -43 -62q0 -7 3 -31q1 -13 -10 -20q-12 -10 -34 -10q-54 0 -54 51q0 37 42 69q43 33 114 33q62 0 98 -23q47 -29 47 -86
q0 -51 -44 -82q-31 -22 -147 -83q114 3 155 6q13 1 19 11q1 2 19 41z" />
    <glyph glyph-name="threequarters" unicode="&#xbe;" horiz-adv-x="817" 
d="M205 632h1q31 0 60.5 -6.5t54 -27t24.5 -51.5q0 -42 -47 -62q-16 -6 -72 -20v-3q74 -3 106 -24q35 -19 35 -62q0 -49 -51 -78q-47 -31 -130 -31q-60 0 -103 22t-43 59q0 20 17.5 34t41.5 14q15 0 22 -7.5t11 -25.5q11 -66 57 -66q51 0 51 72q0 73 -68 73q-20 0 -36 -4
l-14 24l4 7q51 2 73 18q30 18 30 57q0 25 -12 41.5t-34 16.5q-47 0 -47 -53q0 -16 2 -25q1 -10 -9 -16.5t-25 -6.5q-52 0 -52 42q0 32 41.5 60.5t111.5 28.5zM624 669l39 -24q-221 -334 -423 -675l-38 27q237 360 422 672zM432 114l-10 24q133 157 177 216q60 8 106 23l5 -5
q-2 -84 -2 -192v-39q39 2 70 15v-26q-27 -18 -70 -24q0 -12 0.5 -41.5t0.5 -44.5q-89 -1 -117 -10l-4 4q2 25 4 87q-119 0 -160 13zM594 139q5 95 5 167q-72 -89 -119 -157q28 -10 114 -10z" />
    <glyph glyph-name="questiondown" unicode="&#xbf;" horiz-adv-x="447" 
d="M222 205l29 10q59 -66 61 -119q1 -35 -30 -66q-8 -8 -107 -96q-23 -21 -23 -50q0 -40 19.5 -60.5t50.5 -20.5q29 0 46 19t17 45q0 21 -8 42q-8 24 14 40q25 19 63 19q24 0 41.5 -16t17.5 -46q0 -63 -60.5 -99.5t-130.5 -36.5q-88 0 -138 47.5t-50 133.5q0 72 59 111
q77 54 106 79q18 15 23.5 28t-0.5 36zM231 441h1q33 0 56.5 -24.5t23.5 -61.5q0 -36 -24 -60t-59 -24q-34 0 -58 24.5t-24 60.5q0 37 23.5 61t60.5 24z" />
    <glyph glyph-name="Agrave" unicode="&#xc0;" horiz-adv-x="636" 
d="M646 28v-31q-90 3 -156 3q-70 0 -157 -3l1 31q42 4 51.5 10t5.5 25q-14 63 -44 169q-24 1 -90 1q-64 0 -85 -1q-36 -119 -40 -145q-6 -33 8.5 -44t75.5 -15l-1 -31q-15 0 -52 1.5t-62 1.5q-15 0 -56.5 -1.5t-61.5 -1.5l1 31q42 4 60 15.5t33 48.5q68 181 160 465
q13 42 16 65q26 0 75.5 6t64.5 14q135 -482 178 -584q10 -23 38 -26zM267 540q-64 -206 -82 -268q9 0 36 -0.5t42 -0.5q16 0 41 0.5t33 0.5q-8 30 -22.5 86.5t-26 101.5t-21.5 80zM376 702l-15 -23q-107 33 -161 54q-43 16 -46 53q-3 21 9.5 34t30.5 15q29 3 55 -15
q10 -8 63.5 -58.5t63.5 -59.5z" />
    <glyph glyph-name="Aacute" unicode="&#xc1;" horiz-adv-x="636" 
d="M646 28v-31q-90 3 -156 3q-70 0 -157 -3l1 31q42 4 51.5 10t5.5 25q-14 63 -44 169q-24 1 -90 1q-64 0 -85 -1q-36 -119 -40 -145q-6 -33 8.5 -44t75.5 -15l-1 -31q-15 0 -52 1.5t-62 1.5q-15 0 -56.5 -1.5t-61.5 -1.5l1 31q42 4 60 15.5t33 48.5q68 181 160 465
q13 42 16 65q26 0 75.5 6t64.5 14q135 -482 178 -584q10 -23 38 -26zM267 540q-64 -206 -82 -268q9 0 36 -0.5t42 -0.5q16 0 41 0.5t33 0.5q-8 30 -22.5 86.5t-26 101.5t-21.5 80zM276 677l-15 22q14 11 71 59.5t71 59.5q29 21 60 16q17 -2 26.5 -14t6.5 -32q-4 -37 -53 -55
q-39 -15 -167 -56z" />
    <glyph glyph-name="Acircumflex" unicode="&#xc2;" horiz-adv-x="636" 
d="M646 28v-31q-90 3 -156 3q-70 0 -157 -3l1 31q42 4 51.5 10t5.5 25q-14 63 -44 169q-24 1 -90 1q-64 0 -85 -1q-36 -119 -40 -145q-6 -33 8.5 -44t75.5 -15l-1 -31q-15 0 -52 1.5t-62 1.5q-15 0 -56.5 -1.5t-61.5 -1.5l1 31q42 4 60 15.5t33 48.5q68 181 160 465
q13 42 16 65q26 0 75.5 6t64.5 14q135 -482 178 -584q10 -23 38 -26zM267 540q-64 -206 -82 -268q9 0 36 -0.5t42 -0.5q16 0 41 0.5t33 0.5q-8 30 -22.5 86.5t-26 101.5t-21.5 80zM312 825l26 4q14 -27 49.5 -63.5t86.5 -67.5l-16 -26q-79 23 -133 55q-61 -34 -133 -55
l-16 26q94 60 136 127z" />
    <glyph glyph-name="Atilde" unicode="&#xc3;" horiz-adv-x="636" 
d="M646 28v-31q-90 3 -156 3q-70 0 -157 -3l1 31q42 4 51.5 10t5.5 25q-14 63 -44 169q-24 1 -90 1q-64 0 -85 -1q-36 -119 -40 -145q-6 -33 8.5 -44t75.5 -15l-1 -31q-15 0 -52 1.5t-62 1.5q-15 0 -56.5 -1.5t-61.5 -1.5l1 31q42 4 60 15.5t33 48.5q68 181 160 465
q13 42 16 65q26 0 75.5 6t64.5 14q135 -482 178 -584q10 -23 38 -26zM267 540q-64 -206 -82 -268q9 0 36 -0.5t42 -0.5q16 0 41 0.5t33 0.5q-8 30 -22.5 86.5t-26 101.5t-21.5 80zM225 678l-36 4q2 57 24 95.5t65 38.5q31 0 70 -34q34 -28 48 -28q29 0 33 64l36 -7
q-2 -57 -22.5 -94.5t-60.5 -37.5q-32 0 -77 38q-30 24 -44 24t-24.5 -17.5t-11.5 -45.5z" />
    <glyph glyph-name="Adieresis" unicode="&#xc4;" horiz-adv-x="636" 
d="M646 28v-31q-90 3 -156 3q-70 0 -157 -3l1 31q42 4 51.5 10t5.5 25q-14 63 -44 169q-24 1 -90 1q-64 0 -85 -1q-36 -119 -40 -145q-6 -33 8.5 -44t75.5 -15l-1 -31q-15 0 -52 1.5t-62 1.5q-15 0 -56.5 -1.5t-61.5 -1.5l1 31q42 4 60 15.5t33 48.5q68 181 160 465
q13 42 16 65q26 0 75.5 6t64.5 14q135 -482 178 -584q10 -23 38 -26zM267 540q-64 -206 -82 -268q9 0 36 -0.5t42 -0.5q16 0 41 0.5t33 0.5q-8 30 -22.5 86.5t-26 101.5t-21.5 80zM223 813h1q28 0 45 -18t17 -45q0 -31 -20 -50t-45 -19t-43 16t-18 47t17.5 50t45.5 19z
M422 813h1q29 0 46 -18t17 -45q0 -31 -19.5 -50t-45.5 -19q-25 0 -43 16t-18 47t17.5 50t44.5 19z" />
    <glyph glyph-name="Aring" unicode="&#xc5;" horiz-adv-x="636" 
d="M646 28v-31q-90 3 -156 3q-70 0 -157 -3l1 31q42 4 51.5 10t5.5 25q-14 63 -44 169q-24 1 -90 1q-64 0 -85 -1q-36 -119 -40 -145q-6 -33 8.5 -44t75.5 -15l-1 -31q-15 0 -52 1.5t-62 1.5q-15 0 -56.5 -1.5t-61.5 -1.5l1 31q42 4 60 15.5t33 48.5q68 181 160 465
q13 42 16 65q26 0 75.5 6t64.5 14q135 -482 178 -584q10 -23 38 -26zM267 540q-64 -206 -82 -268q9 0 36 -0.5t42 -0.5q16 0 41 0.5t33 0.5q-8 30 -22.5 86.5t-26 101.5t-21.5 80zM324 861h1q44 0 70.5 -24t26.5 -69q0 -46 -29.5 -71t-75.5 -25q-45 0 -73.5 23t-28.5 66
q0 48 30.5 74t78.5 26zM320 833h-1q-38 0 -38 -64q0 -34 11 -51t28 -17q37 0 37 70q0 62 -37 62z" />
    <glyph glyph-name="AE" unicode="&#xc6;" horiz-adv-x="886" 
d="M467 628h196q39 0 89 2q24 1 57 6q-7 -44 -4 -186l-28 -1q-13 56 -32 93q-18 32 -47.5 42.5t-96.5 10.5h-29q-18 0 -19 -16q-4 -56 -4 -125v-127h45q53 0 74.5 19.5t30.5 69.5h27q-12 -127 -3 -235l-29 1q-5 29 -9 43.5t-14.5 33t-29.5 26.5t-49 8l-43 -1v-78
q0 -110 3 -156q2 -15 12.5 -20t50.5 -5q61 0 90.5 6t52.5 26q49 41 72 132l28 -6q-6 -79 -27 -196q-31 2 -100 4q-40 1 -141 1h-107q-33 0 -96 -1.5t-79 -1.5l1 31l49 4q15 2 21.5 7.5t7.5 20.5q4 72 4 153v79q-10 0 -75 -1t-90 -2q-73 -144 -96 -213q-8 -20 -0.5 -29.5
t36.5 -13.5l45 -5l-1 -31q-23 0 -60.5 1.5t-56.5 1.5q-20 0 -56 -1.5t-54 -1.5v31q40 4 58.5 18t43.5 60q101 190 246 471q10 18 -9 19l-81 5l-2 30q33 1 115.5 -1t112.5 -2zM391 327v266h-10q-88 -165 -135 -265q52 -3 145 -1z" />
    <glyph glyph-name="Ccedilla" unicode="&#xc7;" horiz-adv-x="633" 
d="M382 -15q-16 -26 -21 -35q75 -16 75 -79q0 -39 -27.5 -64t-73.5 -25q-40 0 -67 20l11 30q19 -12 46 -12q40 0 40 31q0 17 -18 27t-48 10l-5 12q6 9 24 37t30 47h-11q-156 5 -230 99q-67 80 -67 221q0 172 107 265q86 75 224 75q113 0 172 -52l19 50l26 -9
q-15 -120 -8 -217l-29 -4q-9 83 -47 140t-112 57q-70 0 -113 -58q-59 -80 -59 -232q0 -125 42 -197q47 -83 139 -83q126 0 177 145l30 -18q-28 -87 -82 -131t-144 -50z" />
    <glyph glyph-name="Egrave" unicode="&#xc8;" horiz-adv-x="594" 
d="M19 601v30q7 0 34.5 -0.5t45.5 -0.5q64 -2 94 -2h179q98 0 147 7q-7 -45 -4 -187l-29 -3q-12 62 -33 99q-19 32 -44 41.5t-94 9.5h-32q-19 0 -19 -17q-5 -78 -5 -147v-88q12 -1 48 -1q53 0 74 21t30 73h27q-14 -126 -4 -239l-29 1q-4 30 -9 46.5t-15 33t-28.5 23
t-47.5 6.5q-34 0 -46 -2v-69q0 -124 3 -177q1 -15 11.5 -20t49.5 -5q62 0 91 6t53 27q45 37 72 131l28 -7q-1 -19 -12 -97t-16 -98q-88 4 -217 4h-124q-14 0 -49 -0.5t-52 -0.5q-66 -2 -84 -2l1 31l52 4q15 2 22 9t8 23q5 90 5 179v184q0 107 -3 148q-1 20 -32 23zM352 706
l-15 -23q-107 32 -161 54q-43 16 -46 53q-3 21 9.5 34t30.5 15q29 3 55 -15q10 -8 63.5 -58.5t63.5 -59.5z" />
    <glyph glyph-name="Eacute" unicode="&#xc9;" horiz-adv-x="594" 
d="M19 601v30q7 0 34.5 -0.5t45.5 -0.5q64 -2 94 -2h179q98 0 147 7q-7 -45 -4 -187l-29 -3q-12 62 -33 99q-19 32 -44 41.5t-94 9.5h-32q-19 0 -19 -17q-5 -78 -5 -147v-88q12 -1 48 -1q53 0 74 21t30 73h27q-14 -126 -4 -239l-29 1q-4 30 -9 46.5t-15 33t-28.5 23
t-47.5 6.5q-34 0 -46 -2v-69q0 -124 3 -177q1 -15 11.5 -20t49.5 -5q62 0 91 6t53 27q45 37 72 131l28 -7q-1 -19 -12 -97t-16 -98q-88 4 -217 4h-124q-14 0 -49 -0.5t-52 -0.5q-66 -2 -84 -2l1 31l52 4q15 2 22 9t8 23q5 90 5 179v184q0 107 -3 148q-1 20 -32 23zM253 681
l-15 22q14 11 71 59.5t71 59.5q29 21 60 16q17 -2 26.5 -14t6.5 -32q-4 -37 -53 -55q-39 -15 -167 -56z" />
    <glyph glyph-name="Ecircumflex" unicode="&#xca;" horiz-adv-x="594" 
d="M19 601v30q7 0 34.5 -0.5t45.5 -0.5q64 -2 94 -2h179q98 0 147 7q-7 -45 -4 -187l-29 -3q-12 62 -33 99q-19 32 -44 41.5t-94 9.5h-32q-19 0 -19 -17q-5 -78 -5 -147v-88q12 -1 48 -1q53 0 74 21t30 73h27q-14 -126 -4 -239l-29 1q-4 30 -9 46.5t-15 33t-28.5 23
t-47.5 6.5q-34 0 -46 -2v-69q0 -124 3 -177q1 -15 11.5 -20t49.5 -5q62 0 91 6t53 27q45 37 72 131l28 -7q-1 -19 -12 -97t-16 -98q-88 4 -217 4h-124q-14 0 -49 -0.5t-52 -0.5q-66 -2 -84 -2l1 31l52 4q15 2 22 9t8 23q5 90 5 179v184q0 107 -3 148q-1 20 -32 23zM285 835
l26 4q14 -27 49.5 -63.5t86.5 -67.5l-16 -26q-79 23 -133 55q-61 -34 -133 -55l-16 26q94 60 136 127z" />
    <glyph glyph-name="Edieresis" unicode="&#xcb;" horiz-adv-x="594" 
d="M19 601v30q7 0 34.5 -0.5t45.5 -0.5q64 -2 94 -2h179q98 0 147 7q-7 -45 -4 -187l-29 -3q-12 62 -33 99q-19 32 -44 41.5t-94 9.5h-32q-19 0 -19 -17q-5 -78 -5 -147v-88q12 -1 48 -1q53 0 74 21t30 73h27q-14 -126 -4 -239l-29 1q-4 30 -9 46.5t-15 33t-28.5 23
t-47.5 6.5q-34 0 -46 -2v-69q0 -124 3 -177q1 -15 11.5 -20t49.5 -5q62 0 91 6t53 27q45 37 72 131l28 -7q-1 -19 -12 -97t-16 -98q-88 4 -217 4h-124q-14 0 -49 -0.5t-52 -0.5q-66 -2 -84 -2l1 31l52 4q15 2 22 9t8 23q5 90 5 179v184q0 107 -3 148q-1 20 -32 23zM197 819
h1q28 0 45 -18t17 -45q0 -31 -20 -50t-45 -19t-43 16t-18 47t17.5 50t45.5 19zM396 819h1q29 0 46 -18t17 -45q0 -31 -19.5 -50t-45.5 -19q-25 0 -43 16t-18 47t17.5 50t44.5 19z" />
    <glyph glyph-name="Igrave" unicode="&#xcc;" horiz-adv-x="361" 
d="M101 207v231q0 88 -2 130q-1 18 -15 24t-61 8l2 31q11 0 66 -1.5t89 -1.5q31 0 85 1.5t68 1.5v-31q-44 -3 -56.5 -8t-13.5 -21q-4 -44 -4 -133v-227q0 -100 4 -150q1 -19 14.5 -25t58.5 -8l-2 -31q-14 0 -70 1.5t-90 1.5q-32 0 -86.5 -1.5t-67.5 -1.5l1 31q46 3 60 8.5
t15 22.5q5 55 5 148zM235 703l-15 -23q-107 33 -161 54q-43 16 -46 53q-3 21 9.5 34t30.5 15q29 3 55 -15q10 -8 63.5 -58.5t63.5 -59.5z" />
    <glyph glyph-name="Iacute" unicode="&#xcd;" horiz-adv-x="361" 
d="M101 207v231q0 88 -2 130q-1 18 -15 24t-61 8l2 31q11 0 66 -1.5t89 -1.5q31 0 85 1.5t68 1.5v-31q-44 -3 -56.5 -8t-13.5 -21q-4 -44 -4 -133v-227q0 -100 4 -150q1 -19 14.5 -25t58.5 -8l-2 -31q-14 0 -70 1.5t-90 1.5q-32 0 -86.5 -1.5t-67.5 -1.5l1 31q46 3 60 8.5
t15 22.5q5 55 5 148zM130 676l-15 22q14 11 71 59.5t71 59.5q29 21 60 16q17 -2 26.5 -14t6.5 -32q-4 -37 -53 -55q-39 -15 -167 -56z" />
    <glyph glyph-name="Icircumflex" unicode="&#xce;" horiz-adv-x="361" 
d="M101 207v231q0 88 -2 130q-1 18 -15 24t-61 8l2 31q11 0 66 -1.5t89 -1.5q31 0 85 1.5t68 1.5v-31q-44 -3 -56.5 -8t-13.5 -21q-4 -44 -4 -133v-227q0 -100 4 -150q1 -19 14.5 -25t58.5 -8l-2 -31q-14 0 -70 1.5t-90 1.5q-32 0 -86.5 -1.5t-67.5 -1.5l1 31q46 3 60 8.5
t15 22.5q5 55 5 148zM166 828l26 4q14 -27 49.5 -63.5t86.5 -67.5l-16 -26q-79 23 -133 55q-61 -34 -133 -55l-16 26q94 60 136 127z" />
    <glyph glyph-name="Idieresis" unicode="&#xcf;" horiz-adv-x="361" 
d="M101 207v231q0 88 -2 130q-1 18 -15 24t-61 8l2 31q11 0 66 -1.5t89 -1.5q31 0 85 1.5t68 1.5v-31q-44 -3 -56.5 -8t-13.5 -21q-4 -44 -4 -133v-227q0 -100 4 -150q1 -19 14.5 -25t58.5 -8l-2 -31q-14 0 -70 1.5t-90 1.5q-32 0 -86.5 -1.5t-67.5 -1.5l1 31q46 3 60 8.5
t15 22.5q5 55 5 148zM78 815h1q28 0 45 -18t17 -45q0 -31 -20 -50t-45 -19t-43 16t-18 47t17.5 50t45.5 19zM277 815h1q29 0 46 -18t17 -45q0 -31 -19.5 -50t-45.5 -19q-25 0 -43 16t-18 47t17.5 50t44.5 19z" />
    <glyph glyph-name="Eth" unicode="&#xd0;" horiz-adv-x="716" 
d="M18 311l5 44q25 -1 89 -3v78q0 99 -2 141q-1 25 -24 26l-55 6l1 29q7 0 61.5 -2t83.5 -2q15 0 74 2t96 2q146 0 208 -39q122 -74 122 -261q0 -103 -41 -184t-128 -120q-73 -31 -183 -31q-29 0 -87 2q-13 0 -38.5 0.5t-37.5 0.5q-26 0 -77 -1.5t-57 -1.5l1 30l41 4
q35 3 36 27q6 63 6 170v86q-49 0 -94 -3zM398 355l-6 -45q-6 0 -24 0.5t-45.5 1.5t-52.5 1v-85q0 -143 3 -179q2 -20 42 -20q92 0 135 61q52 79 52 235q0 161 -54 224q-21 25 -48.5 37t-78.5 12q-46 0 -48 -20q-3 -45 -3 -153v-74q60 0 128 4z" />
    <glyph glyph-name="Ntilde" unicode="&#xd1;" horiz-adv-x="672" 
d="M14 600v31q4 0 52 -1.5t79 -1.5q77 0 112 3q14 -25 51 -83q24 -40 238 -354q1 264 -9 359q-4 24 -15.5 33t-39.5 11l-46 3l5 31q25 0 67.5 -1.5t57.5 -1.5q16 0 53.5 1.5t52.5 1.5l1 -30q-44 -7 -47 -8q-13 -3 -19 -10.5t-10 -24.5q-14 -70 -14 -314v-245q-53 0 -99 -11
q-49 78 -180 281t-162 252q0 -374 9 -446q5 -34 36 -39q58 -7 69 -8l-2 -31q-18 0 -64 1.5t-75 1.5q-27 0 -62.5 -1.5t-44.5 -1.5l1 31q8 0 46 6q30 4 36 49q16 144 16 467q-5 17 -13 28q-10 14 -37 18zM245 687l-36 4q2 57 24 95.5t65 38.5q31 0 70 -34q34 -28 48 -28
q29 0 33 64l36 -7q-2 -57 -22.5 -94.5t-60.5 -37.5q-32 0 -77 38q-30 24 -44 24t-24.5 -17.5t-11.5 -45.5z" />
    <glyph glyph-name="Ograve" unicode="&#xd2;" horiz-adv-x="703" 
d="M358 644h1q141 0 223 -89.5t82 -231.5q0 -156 -80.5 -247.5t-231.5 -91.5q-152 0 -232.5 90t-80.5 236q0 142 82.5 238t236.5 96zM349 612h-1q-58 0 -91 -62q-37 -68 -37 -222q0 -80 12.5 -148t32.5 -102q35 -61 94 -61t90 61q34 68 34 224q0 165 -37 244q-35 66 -97 66z
M408 712l-15 -23q-107 33 -161 54q-43 16 -46 53q-3 21 9.5 34t30.5 15q29 3 55 -15q10 -8 63.5 -58.5t63.5 -59.5z" />
    <glyph glyph-name="Oacute" unicode="&#xd3;" horiz-adv-x="703" 
d="M358 644h1q141 0 223 -89.5t82 -231.5q0 -156 -80.5 -247.5t-231.5 -91.5q-152 0 -232.5 90t-80.5 236q0 142 82.5 238t236.5 96zM349 612h-1q-58 0 -91 -62q-37 -68 -37 -222q0 -80 12.5 -148t32.5 -102q35 -61 94 -61t90 61q34 68 34 224q0 165 -37 244q-35 66 -97 66z
M290 689l-15 22q14 11 71 59.5t71 59.5q29 21 60 16q17 -2 26.5 -14t6.5 -32q-4 -37 -53 -55q-39 -15 -167 -56z" />
    <glyph glyph-name="Ocircumflex" unicode="&#xd4;" horiz-adv-x="703" 
d="M358 644h1q141 0 223 -89.5t82 -231.5q0 -156 -80.5 -247.5t-231.5 -91.5q-152 0 -232.5 90t-80.5 236q0 142 82.5 238t236.5 96zM349 612h-1q-58 0 -91 -62q-37 -68 -37 -222q0 -80 12.5 -148t32.5 -102q35 -61 94 -61t90 61q34 68 34 224q0 165 -37 244q-35 66 -97 66z
M335 838l26 4q14 -27 49.5 -63.5t86.5 -67.5l-16 -26q-79 23 -133 55q-61 -34 -133 -55l-16 26q94 60 136 127z" />
    <glyph glyph-name="Otilde" unicode="&#xd5;" horiz-adv-x="703" 
d="M358 644h1q141 0 223 -89.5t82 -231.5q0 -156 -80.5 -247.5t-231.5 -91.5q-152 0 -232.5 90t-80.5 236q0 142 82.5 238t236.5 96zM349 612h-1q-58 0 -91 -62q-37 -68 -37 -222q0 -80 12.5 -148t32.5 -102q35 -61 94 -61t90 61q34 68 34 224q0 165 -37 244q-35 66 -97 66z
M246 691l-36 4q2 57 24 95.5t65 38.5q31 0 70 -34q34 -28 48 -28q29 0 33 64l36 -7q-2 -57 -22.5 -94.5t-60.5 -37.5q-32 0 -77 38q-30 24 -44 24t-24.5 -17.5t-11.5 -45.5z" />
    <glyph glyph-name="Odieresis" unicode="&#xd6;" horiz-adv-x="703" 
d="M358 644h1q141 0 223 -89.5t82 -231.5q0 -156 -80.5 -247.5t-231.5 -91.5q-152 0 -232.5 90t-80.5 236q0 142 82.5 238t236.5 96zM349 612h-1q-58 0 -91 -62q-37 -68 -37 -222q0 -80 12.5 -148t32.5 -102q35 -61 94 -61t90 61q34 68 34 224q0 165 -37 244q-35 66 -97 66z
M249 823h1q28 0 45 -18t17 -45q0 -31 -20 -50t-45 -19t-43 16t-18 47t17.5 50t45.5 19zM448 823h1q29 0 46 -18t17 -45q0 -31 -19.5 -50t-45.5 -19q-25 0 -43 16t-18 47t17.5 50t44.5 19z" />
    <glyph glyph-name="multiply" unicode="&#xd7;" horiz-adv-x="533" 
d="M474 392l-165 -166l165 -167l-44 -47l-164 170l-162 -170l-44 47l164 167l-164 165l44 46l162 -168l164 170z" />
    <glyph glyph-name="Oslash" unicode="&#xd8;" horiz-adv-x="705" 
d="M565 662l36 -21q-31 -43 -44 -60q52 -43 80 -110t28 -146q0 -154 -82.5 -247.5t-233.5 -93.5q-102 0 -170 43q-7 -11 -14 -21.5t-16 -23t-15 -21.5l-37 18q9 13 25 34.5t25 34.5q-52 43 -79.5 111t-27.5 150q0 91 35.5 166t110 122t177.5 47q94 0 162 -41q7 9 40 59z
M356 612h-1q-54 0 -89 -54q-20 -32 -33.5 -98t-13.5 -140q0 -90 18 -154q44 70 120 192.5t101 162.5q-32 91 -102 91zM352 17h1q62 0 93 58q40 75 40 245q0 91 -15 152q-69 -107 -221 -356q32 -99 102 -99z" />
    <glyph glyph-name="Ugrave" unicode="&#xd9;" horiz-adv-x="659" 
d="M385 34h1q63 0 100 32.5t45 125.5q13 180 -2 364q-1 24 -9.5 31.5t-28.5 9.5l-51 5l-3 30q15 0 52.5 -2t57.5 -2q17 0 52 2t54 2l4 -30l-38 -4q-19 -1 -25 -10t-8 -32q-2 -33 -6 -186t-10 -202q-12 -96 -74 -141q-56 -43 -163 -43q-145 0 -200 67q-40 48 -41 146
q0 40 -0.5 188t-1.5 179t-19 32l-52 6v30q18 0 72 -2t83 -2t80.5 2t67.5 2l3 -31l-48 -5q-18 -1 -21 -24q-6 -58 -7 -181t4 -207q2 -52 11 -77t28 -42q31 -31 93 -31zM418 704l-15 -23q-107 33 -161 54q-43 16 -46 53q-3 21 9.5 34t30.5 15q29 3 55 -15q10 -8 63.5 -58.5
t63.5 -59.5z" />
    <glyph glyph-name="Uacute" unicode="&#xda;" horiz-adv-x="659" 
d="M385 34h1q63 0 100 32.5t45 125.5q13 180 -2 364q-1 24 -9.5 31.5t-28.5 9.5l-51 5l-3 30q15 0 52.5 -2t57.5 -2q17 0 52 2t54 2l4 -30l-38 -4q-19 -1 -25 -10t-8 -32q-2 -33 -6 -186t-10 -202q-12 -96 -74 -141q-56 -43 -163 -43q-145 0 -200 67q-40 48 -41 146
q0 40 -0.5 188t-1.5 179t-19 32l-52 6v30q18 0 72 -2t83 -2t80.5 2t67.5 2l3 -31l-48 -5q-18 -1 -21 -24q-6 -58 -7 -181t4 -207q2 -52 11 -77t28 -42q31 -31 93 -31zM296 681l-15 22q14 11 71 59.5t71 59.5q29 21 60 16q17 -2 26.5 -14t6.5 -32q-4 -37 -53 -55
q-39 -15 -167 -56z" />
    <glyph glyph-name="Ucircumflex" unicode="&#xdb;" horiz-adv-x="659" 
d="M385 34h1q63 0 100 32.5t45 125.5q13 180 -2 364q-1 24 -9.5 31.5t-28.5 9.5l-51 5l-3 30q15 0 52.5 -2t57.5 -2q17 0 52 2t54 2l4 -30l-38 -4q-19 -1 -25 -10t-8 -32q-2 -33 -6 -186t-10 -202q-12 -96 -74 -141q-56 -43 -163 -43q-145 0 -200 67q-40 48 -41 146
q0 40 -0.5 188t-1.5 179t-19 32l-52 6v30q18 0 72 -2t83 -2t80.5 2t67.5 2l3 -31l-48 -5q-18 -1 -21 -24q-6 -58 -7 -181t4 -207q2 -52 11 -77t28 -42q31 -31 93 -31zM344 832l26 4q14 -27 49.5 -63.5t86.5 -67.5l-16 -26q-79 23 -133 55q-61 -34 -133 -55l-16 26
q94 60 136 127z" />
    <glyph glyph-name="Udieresis" unicode="&#xdc;" horiz-adv-x="659" 
d="M385 34h1q63 0 100 32.5t45 125.5q13 180 -2 364q-1 24 -9.5 31.5t-28.5 9.5l-51 5l-3 30q15 0 52.5 -2t57.5 -2q17 0 52 2t54 2l4 -30l-38 -4q-19 -1 -25 -10t-8 -32q-2 -33 -6 -186t-10 -202q-12 -96 -74 -141q-56 -43 -163 -43q-145 0 -200 67q-40 48 -41 146
q0 40 -0.5 188t-1.5 179t-19 32l-52 6v30q18 0 72 -2t83 -2t80.5 2t67.5 2l3 -31l-48 -5q-18 -1 -21 -24q-6 -58 -7 -181t4 -207q2 -52 11 -77t28 -42q31 -31 93 -31zM254 818h1q28 0 45 -18t17 -45q0 -31 -20 -50t-45 -19t-43 16t-18 47t17.5 50t45.5 19zM453 818h1
q29 0 46 -18t17 -45q0 -31 -19.5 -50t-45.5 -19q-25 0 -43 16t-18 47t17.5 50t44.5 19z" />
    <glyph glyph-name="Yacute" unicode="&#xdd;" horiz-adv-x="584" 
d="M470 28l4 -31q-30 0 -93 1.5t-95 1.5q-37 0 -91 -1.5t-78 -1.5l-3 31q22 2 64 8q19 2 27.5 10t9.5 25q2 25 5 189q0 24 -11 47q-45 101 -137 249q-17 27 -33.5 35t-55.5 9v31q8 0 63 -1.5t88 -1.5q42 0 94 1.5t64 1.5l3 -31l-42 -4q-20 -3 -8 -28q37 -82 114 -233
q75 149 102 224q6 20 3.5 26.5t-13.5 8.5q-7 1 -26.5 3.5t-29.5 3.5l3 30q7 0 45.5 -1.5t63.5 -1.5q21 0 55 1.5t50 1.5l3 -31q-43 -2 -61 -11t-37 -37q-47 -73 -128 -238q-11 -21 -11 -47q-3 -148 3 -208q3 -21 22 -23q43 -6 67 -8zM256 682l-15 22q14 11 71 59.5t71 59.5
q29 21 60 16q17 -2 26.5 -14t6.5 -32q-4 -37 -53 -55q-39 -15 -167 -56z" />
    <glyph glyph-name="Thorn" unicode="&#xde;" horiz-adv-x="610" 
d="M101 221v224q0 103 -1 125q-1 18 -14.5 23.5t-59.5 7.5l6 31q12 0 59.5 -1t83.5 -2q39 -1 91 1t64 2l1 -31q-45 -1 -55.5 -6t-12.5 -22q-2 -18 -2 -63q81 3 106 3q108 0 157 -46q51 -49 51 -138t-56 -143q-59 -58 -178 -58q-51 0 -82 9q0 -53 2 -74q1 -21 13.5 -26.5
t69.5 -8.5l-1 -31q-15 0 -70.5 1.5t-96.5 1.5q-28 0 -83.5 -1.5t-72.5 -1.5l2 31q48 3 61 9.5t14 29.5q4 62 4 154zM259 384v-204q24 -16 58 -16q45 0 65 36q25 45 25 127q0 84 -29 121q-24 30 -78 30q-39 0 -39 -16q-2 -30 -2 -78z" />
    <glyph glyph-name="germandbls" unicode="&#xdf;" horiz-adv-x="616" 
d="M28 427h59v10q0 104 75 172q66 63 179 63q99 0 145.5 -43.5t46.5 -105.5q0 -29 -6 -43q-56 -14 -82.5 -38t-26.5 -50q0 -29 26 -52q12 -11 37.5 -31.5t31.5 -25.5q36 -27 53.5 -57t17.5 -74q0 -76 -53.5 -120.5t-133.5 -44.5q-39 0 -103 17q3 32 -2 101l27 5
q9 -39 31 -63.5t55 -24.5q25 0 44 16.5t19 46.5q0 35 -33 65q-5 4 -27.5 22.5t-34.5 29.5q-60 53 -60 116q0 88 109 143q9 19 9 58q0 52 -23.5 86t-69.5 34q-57 0 -82 -61t-25 -184v-207q0 -101 2 -128q2 -17 9.5 -23t32.5 -8l-1 -31q-24 0 -68 1.5t-67 1.5t-64.5 -1.5
t-51.5 -1.5l1 31q36 1 46.5 6.5t11.5 22.5q4 50 4 164v166l-61 6z" />
    <glyph glyph-name="agrave" unicode="&#xe0;" horiz-adv-x="522" 
d="M302 290v39q0 80 -57 80q-64 0 -64 -67q0 -17 3 -32q3 -16 -11 -27q-21 -16 -52 -16q-28 0 -46.5 13t-18.5 42q0 45 60 82t151 37q118 0 162 -64q14 -23 14 -48v-245q0 -37 19 -37q11 0 22.5 18t17.5 46l31 -13q-24 -112 -131 -112q-82 0 -99 71q-69 -71 -140 -71
q-61 0 -95 34.5t-34 93.5q0 68 57 92q22 9 70 25.5t83.5 30.5t57.5 28zM185 139v-1q0 -32 14.5 -56t41.5 -24q37 0 54 41q7 14 7 46v110q-10 -6 -37.5 -20t-39.5 -21q-21 -12 -30.5 -28.5t-9.5 -46.5zM300 497l-22 -16q-32 27 -77.5 66l-52.5 45q-24 26 -24 54q0 23 12 35
t29 12q35 0 58 -40q9 -14 40.5 -80.5t36.5 -75.5z" />
    <glyph glyph-name="aacute" unicode="&#xe1;" horiz-adv-x="522" 
d="M302 290v39q0 80 -57 80q-64 0 -64 -67q0 -17 3 -32q3 -16 -11 -27q-21 -16 -52 -16q-28 0 -46.5 13t-18.5 42q0 45 60 82t151 37q118 0 162 -64q14 -23 14 -48v-245q0 -37 19 -37q11 0 22.5 18t17.5 46l31 -13q-24 -112 -131 -112q-82 0 -99 71q-69 -71 -140 -71
q-61 0 -95 34.5t-34 93.5q0 68 57 92q22 9 70 25.5t83.5 30.5t57.5 28zM185 139v-1q0 -32 14.5 -56t41.5 -24q37 0 54 41q7 14 7 46v110q-10 -6 -37.5 -20t-39.5 -21q-21 -12 -30.5 -28.5t-9.5 -46.5zM231 481l-22 17q9 15 48 79.5t48 77.5q28 39 62 39q37 0 37 -43
q0 -32 -37 -63q-11 -9 -30 -24.5t-51.5 -40.5t-54.5 -42z" />
    <glyph glyph-name="acircumflex" unicode="&#xe2;" horiz-adv-x="522" 
d="M302 290v39q0 80 -57 80q-64 0 -64 -67q0 -17 3 -32q3 -16 -11 -27q-21 -16 -52 -16q-28 0 -46.5 13t-18.5 42q0 45 60 82t151 37q118 0 162 -64q14 -23 14 -48v-245q0 -37 19 -37q11 0 22.5 18t17.5 46l31 -13q-24 -112 -131 -112q-82 0 -99 71q-69 -71 -140 -71
q-61 0 -95 34.5t-34 93.5q0 68 57 92q22 9 70 25.5t83.5 30.5t57.5 28zM185 139v-1q0 -32 14.5 -56t41.5 -24q37 0 54 41q7 14 7 46v110q-10 -6 -37.5 -20t-39.5 -21q-21 -12 -30.5 -28.5t-9.5 -46.5zM248 691l28 5q35 -88 117 -194l-23 -21q-58 44 -109 100
q-49 -54 -109 -100l-22 21q80 102 118 189z" />
    <glyph glyph-name="atilde" unicode="&#xe3;" horiz-adv-x="522" 
d="M302 290v39q0 80 -57 80q-64 0 -64 -67q0 -17 3 -32q3 -16 -11 -27q-21 -16 -52 -16q-28 0 -46.5 13t-18.5 42q0 45 60 82t151 37q118 0 162 -64q14 -23 14 -48v-245q0 -37 19 -37q11 0 22.5 18t17.5 46l31 -13q-24 -112 -131 -112q-82 0 -99 71q-69 -71 -140 -71
q-61 0 -95 34.5t-34 93.5q0 68 57 92q22 9 70 25.5t83.5 30.5t57.5 28zM185 139v-1q0 -32 14.5 -56t41.5 -24q37 0 54 41q7 14 7 46v110q-10 -6 -37.5 -20t-39.5 -21q-21 -12 -30.5 -28.5t-9.5 -46.5zM160 500l-35 4q2 55 23 93t65 38q28 0 68 -32q36 -29 49 -29q28 0 32 62
l34 -7q-4 -130 -81 -130q-29 0 -75 36q-30 25 -45 25q-32 0 -35 -60z" />
    <glyph glyph-name="adieresis" unicode="&#xe4;" horiz-adv-x="522" 
d="M302 290v39q0 80 -57 80q-64 0 -64 -67q0 -17 3 -32q3 -16 -11 -27q-21 -16 -52 -16q-28 0 -46.5 13t-18.5 42q0 45 60 82t151 37q118 0 162 -64q14 -23 14 -48v-245q0 -37 19 -37q11 0 22.5 18t17.5 46l31 -13q-24 -112 -131 -112q-82 0 -99 71q-69 -71 -140 -71
q-61 0 -95 34.5t-34 93.5q0 68 57 92q22 9 70 25.5t83.5 30.5t57.5 28zM185 139v-1q0 -32 14.5 -56t41.5 -24q37 0 54 41q7 14 7 46v110q-10 -6 -37.5 -20t-39.5 -21q-21 -12 -30.5 -28.5t-9.5 -46.5zM163 638h1q30 0 47 -18t17 -48q0 -32 -21 -51.5t-47 -19.5
q-25 0 -43.5 16.5t-18.5 49.5q0 31 18 51t47 20zM360 638h1q29 0 46.5 -18t17.5 -47q0 -33 -20.5 -52.5t-46.5 -19.5t-44.5 17t-18.5 49q0 31 18 51t47 20z" />
    <glyph glyph-name="aring" unicode="&#xe5;" horiz-adv-x="522" 
d="M302 290v39q0 80 -57 80q-64 0 -64 -67q0 -17 3 -32q3 -16 -11 -27q-21 -16 -52 -16q-28 0 -46.5 13t-18.5 42q0 45 60 82t151 37q118 0 162 -64q14 -23 14 -48v-245q0 -37 19 -37q11 0 22.5 18t17.5 46l31 -13q-24 -112 -131 -112q-82 0 -99 71q-69 -71 -140 -71
q-61 0 -95 34.5t-34 93.5q0 68 57 92q22 9 70 25.5t83.5 30.5t57.5 28zM185 139v-1q0 -32 14.5 -56t41.5 -24q37 0 54 41q7 14 7 46v110q-10 -6 -37.5 -20t-39.5 -21q-21 -12 -30.5 -28.5t-9.5 -46.5zM266 677h1q45 0 72.5 -24t27.5 -69q0 -46 -30.5 -72.5t-75.5 -26.5
q-46 0 -74.5 24t-28.5 68q0 48 30 74t78 26zM264 649h-1q-39 0 -39 -66q0 -69 40 -69q38 0 38 70q0 24 -8.5 44.5t-29.5 20.5z" />
    <glyph glyph-name="ae" unicode="&#xe6;" horiz-adv-x="745" 
d="M185 134v-1q0 -31 15 -54t40 -23q40 0 56 42q5 15 5 49l1 107q-4 -2 -34.5 -17.5t-44.5 -24.5q-38 -24 -38 -78zM714 122q-48 -136 -201 -136q-136 0 -183 89q-29 -26 -48 -41.5t-53.5 -31.5t-66.5 -16q-61 1 -94.5 35.5t-33.5 89.5q0 39 14.5 60.5t44.5 34.5q2 1 88 32
t121 51v42q0 38 -16 58t-44 20q-30 0 -46 -17.5t-15 -48.5q0 -15 3 -32q3 -18 -12 -29q-22 -14 -52 -14t-47 14.5t-17 39.5q0 45 59.5 82.5t147.5 36.5q95 0 130 -50q52 50 135 50q48 0 83.5 -13.5t55 -33t31 -46t15 -47t3.5 -40.5q0 -29 -17 -37q-18 -12 -79 -15
q-71 -5 -172 -3q-1 -62 20 -107q29 -57 97 -57q81 0 119 96zM520 409h-1q-31 0 -49 -46t-20 -121q15 -2 53 -2q41 0 61 6q16 5 16 33q0 130 -60 130z" />
    <glyph glyph-name="ccedilla" unicode="&#xe7;" horiz-adv-x="478" 
d="M288 -13q-3 -6 -10.5 -17.5t-10.5 -16.5q77 -16 77 -81q0 -40 -28 -65.5t-75 -25.5q-38 0 -68 19l10 32q21 -12 48 -12q40 0 40 32q0 17 -18 27t-49 10l-5 13q7 11 25.5 38.5t29.5 45.5q-121 3 -176 71q-44 53 -44 149q0 104 64.5 169.5t180.5 65.5q75 0 123 -30.5
t48 -81.5q0 -34 -23.5 -50.5t-52.5 -16.5q-23 0 -37 10q-15 10 -12 24q6 30 6 42q0 70 -54 70q-41 0 -63.5 -50.5t-22.5 -131.5q0 -78 21 -120q30 -63 94 -63q43 0 71.5 24t48.5 78l30 -16q-39 -131 -168 -142z" />
    <glyph glyph-name="egrave" unicode="&#xe8;" horiz-adv-x="486" 
d="M455 124q-49 -138 -200 -138q-122 0 -176 68q-45 54 -45 152q0 101 59.5 168t170.5 67q59 0 100.5 -19.5t59.5 -50.5t25 -57t7 -52q0 -31 -17 -40q-24 -12 -119 -15q-28 -1 -130 -1q-2 -62 21 -107q27 -57 93 -57q82 0 120 99zM263 409h-1q-32 0 -50 -46.5t-20 -122.5h50
q42 0 61 6q18 5 18 41q0 17 -2.5 35t-8 39t-18 34.5t-29.5 13.5zM294 497l-22 -16q-32 27 -77.5 66l-52.5 45q-24 26 -24 54q0 23 12 35t29 12q35 0 58 -40q9 -14 40.5 -80.5t36.5 -75.5z" />
    <glyph glyph-name="eacute" unicode="&#xe9;" horiz-adv-x="486" 
d="M455 124q-49 -138 -200 -138q-122 0 -176 68q-45 54 -45 152q0 101 59.5 168t170.5 67q59 0 100.5 -19.5t59.5 -50.5t25 -57t7 -52q0 -31 -17 -40q-24 -12 -119 -15q-28 -1 -130 -1q-2 -62 21 -107q27 -57 93 -57q82 0 120 99zM263 409h-1q-32 0 -50 -46.5t-20 -122.5h50
q42 0 61 6q18 5 18 41q0 17 -2.5 35t-8 39t-18 34.5t-29.5 13.5zM223 481l-22 17q9 15 48 79.5t48 77.5q28 39 62 39q37 0 37 -43q0 -32 -37 -63q-11 -9 -30 -24.5t-51.5 -40.5t-54.5 -42z" />
    <glyph glyph-name="ecircumflex" unicode="&#xea;" horiz-adv-x="486" 
d="M455 124q-49 -138 -200 -138q-122 0 -176 68q-45 54 -45 152q0 101 59.5 168t170.5 67q59 0 100.5 -19.5t59.5 -50.5t25 -57t7 -52q0 -31 -17 -40q-24 -12 -119 -15q-28 -1 -130 -1q-2 -62 21 -107q27 -57 93 -57q82 0 120 99zM263 409h-1q-32 0 -50 -46.5t-20 -122.5h50
q42 0 61 6q18 5 18 41q0 17 -2.5 35t-8 39t-18 34.5t-29.5 13.5zM245 691l28 5q35 -88 117 -194l-23 -21q-58 44 -109 100q-49 -54 -109 -100l-22 21q80 102 118 189z" />
    <glyph glyph-name="edieresis" unicode="&#xeb;" horiz-adv-x="486" 
d="M455 124q-49 -138 -200 -138q-122 0 -176 68q-45 54 -45 152q0 101 59.5 168t170.5 67q59 0 100.5 -19.5t59.5 -50.5t25 -57t7 -52q0 -31 -17 -40q-24 -12 -119 -15q-28 -1 -130 -1q-2 -62 21 -107q27 -57 93 -57q82 0 120 99zM263 409h-1q-32 0 -50 -46.5t-20 -122.5h50
q42 0 61 6q18 5 18 41q0 17 -2.5 35t-8 39t-18 34.5t-29.5 13.5zM156 638h1q30 0 47 -18t17 -48q0 -32 -21 -51.5t-47 -19.5q-25 0 -43.5 16.5t-18.5 49.5q0 31 18 51t47 20zM353 638h1q29 0 46.5 -18t17.5 -47q0 -33 -20.5 -52.5t-46.5 -19.5t-44.5 17t-18.5 49q0 31 18 51
t47 20z" />
    <glyph glyph-name="igrave" unicode="&#xec;" horiz-adv-x="306" 
d="M287 28v-31q-15 0 -60 1.5t-79 1.5q-37 0 -76 -1.5t-50 -1.5l1 31q36 1 47 7.5t12 22.5q3 28 3 108v101q0 88 -1 104q-2 13 -12 16.5t-44 2.5l1 31q153 9 204 19q-3 -72 -3 -159v-119q0 -33 3 -102q1 -18 10 -23.5t44 -8.5zM191 497l-22 -16q-32 27 -77.5 66l-52.5 45
q-24 26 -24 54q0 23 12 35t29 12q35 0 58 -40q9 -14 40.5 -80.5t36.5 -75.5z" />
    <glyph glyph-name="iacute" unicode="&#xed;" horiz-adv-x="306" 
d="M287 28v-31q-15 0 -60 1.5t-79 1.5q-37 0 -76 -1.5t-50 -1.5l1 31q36 1 47 7.5t12 22.5q3 28 3 108v101q0 88 -1 104q-2 13 -12 16.5t-44 2.5l1 31q153 9 204 19q-3 -72 -3 -159v-119q0 -33 3 -102q1 -18 10 -23.5t44 -8.5zM128 481l-22 17q9 15 48 79.5t48 77.5
q28 39 62 39q37 0 37 -43q0 -32 -37 -63q-11 -9 -30 -24.5t-51.5 -40.5t-54.5 -42z" />
    <glyph glyph-name="icircumflex" unicode="&#xee;" horiz-adv-x="306" 
d="M287 28v-31q-15 0 -60 1.5t-79 1.5q-37 0 -76 -1.5t-50 -1.5l1 31q36 1 47 7.5t12 22.5q3 28 3 108v101q0 88 -1 104q-2 13 -12 16.5t-44 2.5l1 31q153 9 204 19q-3 -72 -3 -159v-119q0 -33 3 -102q1 -18 10 -23.5t44 -8.5zM139 691l28 5q35 -88 117 -194l-23 -21
q-58 44 -109 100q-49 -54 -109 -100l-22 21q80 102 118 189z" />
    <glyph glyph-name="idieresis" unicode="&#xef;" horiz-adv-x="306" 
d="M287 28v-31q-15 0 -60 1.5t-79 1.5q-37 0 -76 -1.5t-50 -1.5l1 31q36 1 47 7.5t12 22.5q3 28 3 108v101q0 88 -1 104q-2 13 -12 16.5t-44 2.5l1 31q153 9 204 19q-3 -72 -3 -159v-119q0 -33 3 -102q1 -18 10 -23.5t44 -8.5zM55 638h1q30 0 47 -18t17 -48q0 -32 -21 -51.5
t-47 -19.5q-25 0 -43.5 16.5t-18.5 49.5q0 31 18 51t47 20zM252 638h1q29 0 46.5 -18t17.5 -47q0 -33 -20.5 -52.5t-46.5 -19.5t-44.5 17t-18.5 49q0 31 18 51t47 20z" />
    <glyph glyph-name="eth" unicode="&#xf0;" horiz-adv-x="553" 
d="M109 638l5 31q133 3 237 -65q28 15 68.5 35.5t48.5 24.5l15 -36q-88 -42 -101 -48q65 -53 98.5 -134.5t33.5 -176.5q0 -133 -65 -208t-185 -75q-108 0 -169 61t-61 159q0 103 64.5 169t172.5 66q45 0 76 -18q-10 70 -47 117q-59 -26 -145 -71l-16 38q28 13 136 62
q-64 66 -166 69zM279 409h-1q-37 0 -56 -34q-27 -48 -27 -156q0 -93 20 -147q20 -53 65 -53q41 0 59 45q22 49 22 186q0 74 -9 116q-22 43 -73 43z" />
    <glyph glyph-name="ntilde" unicode="&#xf1;" horiz-adv-x="590" 
d="M27 -3v31q36 1 45 6.5t11 24.5q3 46 3 109v95q0 72 -3 111q-1 10 -9.5 13.5t-40.5 4.5l1 31q103 0 190 14q7 -41 8 -65q75 69 153 69q83 0 115 -57q15 -26 15 -62v-266q0 -16 9 -20t49 -8l-1 -31q-19 0 -62.5 1.5t-69.5 1.5q-36 0 -76 -1.5t-44 -1.5v31q27 1 36 7.5
t10 21.5q4 40 4 134q1 100 -0.5 125t-7.5 35q-15 26 -46 26q-47 0 -75 -45q-10 -17 -10 -43v-126q0 -80 2 -109q1 -14 10.5 -19t39.5 -7v-31q-9 0 -55.5 1.5t-72.5 1.5q-31 0 -73 -1.5t-55 -1.5zM194 500l-35 4q2 55 23 93t65 38q28 0 68 -32q36 -29 49 -29q28 0 32 62
l34 -7q-4 -130 -81 -130q-29 0 -75 36q-30 25 -45 25q-32 0 -35 -60z" />
    <glyph glyph-name="ograve" unicode="&#xf2;" horiz-adv-x="554" 
d="M282 441h1q107 0 172.5 -60t65.5 -165q0 -107 -66.5 -168.5t-179.5 -61.5q-119 0 -180 61t-61 162q0 103 65.5 167.5t182.5 64.5zM277 408h-1q-36 0 -58 -39q-23 -46 -23 -139q0 -109 25 -164q21 -47 65 -47q41 0 58 41q20 51 20 146q0 110 -26 160q-21 42 -60 42z
M320 497l-22 -16q-32 27 -77.5 66l-52.5 45q-24 26 -24 54q0 23 12 35t29 12q35 0 58 -40q9 -14 40.5 -80.5t36.5 -75.5z" />
    <glyph glyph-name="oacute" unicode="&#xf3;" horiz-adv-x="554" 
d="M282 441h1q107 0 172.5 -60t65.5 -165q0 -107 -66.5 -168.5t-179.5 -61.5q-119 0 -180 61t-61 162q0 103 65.5 167.5t182.5 64.5zM277 408h-1q-36 0 -58 -39q-23 -46 -23 -139q0 -109 25 -164q21 -47 65 -47q41 0 58 41q20 51 20 146q0 110 -26 160q-21 42 -60 42z
M249 481l-22 17q9 15 48 79.5t48 77.5q28 39 62 39q37 0 37 -43q0 -32 -37 -63q-11 -9 -30 -24.5t-51.5 -40.5t-54.5 -42z" />
    <glyph glyph-name="ocircumflex" unicode="&#xf4;" horiz-adv-x="554" 
d="M282 441h1q107 0 172.5 -60t65.5 -165q0 -107 -66.5 -168.5t-179.5 -61.5q-119 0 -180 61t-61 162q0 103 65.5 167.5t182.5 64.5zM277 408h-1q-36 0 -58 -39q-23 -46 -23 -139q0 -109 25 -164q21 -47 65 -47q41 0 58 41q20 51 20 146q0 110 -26 160q-21 42 -60 42z
M272 691l28 5q35 -88 117 -194l-23 -21q-58 44 -109 100q-49 -54 -109 -100l-22 21q80 102 118 189z" />
    <glyph glyph-name="otilde" unicode="&#xf5;" horiz-adv-x="554" 
d="M282 441h1q107 0 172.5 -60t65.5 -165q0 -107 -66.5 -168.5t-179.5 -61.5q-119 0 -180 61t-61 162q0 103 65.5 167.5t182.5 64.5zM277 408h-1q-36 0 -58 -39q-23 -46 -23 -139q0 -109 25 -164q21 -47 65 -47q41 0 58 41q20 51 20 146q0 110 -26 160q-21 42 -60 42z
M175 500l-35 4q2 55 23 93t65 38q28 0 68 -32q36 -29 49 -29q28 0 32 62l34 -7q-4 -130 -81 -130q-29 0 -75 36q-30 25 -45 25q-32 0 -35 -60z" />
    <glyph glyph-name="odieresis" unicode="&#xf6;" horiz-adv-x="554" 
d="M282 441h1q107 0 172.5 -60t65.5 -165q0 -107 -66.5 -168.5t-179.5 -61.5q-119 0 -180 61t-61 162q0 103 65.5 167.5t182.5 64.5zM277 408h-1q-36 0 -58 -39q-23 -46 -23 -139q0 -109 25 -164q21 -47 65 -47q41 0 58 41q20 51 20 146q0 110 -26 160q-21 42 -60 42z
M178 638h1q30 0 47 -18t17 -48q0 -32 -21 -51.5t-47 -19.5q-25 0 -43.5 16.5t-18.5 49.5q0 31 18 51t47 20zM375 638h1q29 0 46.5 -18t17.5 -47q0 -33 -20.5 -52.5t-46.5 -19.5t-44.5 17t-18.5 49q0 31 18 51t47 20z" />
    <glyph glyph-name="divide" unicode="&#xf7;" horiz-adv-x="533" 
d="M267 137h1q22 0 37 -15.5t15 -38.5q0 -21 -15.5 -37t-36.5 -16q-20 0 -36 16t-16 37q0 22 15.5 38t35.5 16zM267 335h-1q-19 0 -34.5 16t-15.5 38q0 20 16 36.5t36 16.5q22 0 37.5 -16t15.5 -37q0 -24 -15.5 -39t-38.5 -15zM52 266h428v-60h-428v60z" />
    <glyph glyph-name="oslash" unicode="&#xf8;" horiz-adv-x="555" 
d="M442 460l39 -20l-38 -47q79 -60 79 -176q0 -102 -68.5 -166.5t-181.5 -64.5q-76 0 -125 27l-37 -48l-37 19l41 49q-80 58 -80 173q0 102 69 168.5t182 66.5q73 0 124 -26zM193 217v-1q0 -49 8 -81q55 76 147 209q-20 65 -67 65q-38 1 -60 -38q-28 -50 -28 -154zM365 216
v1q0 41 -6 80q-28 -39 -80.5 -114t-67.5 -96q24 -69 68 -69q46 0 64 42q22 52 22 156z" />
    <glyph glyph-name="ugrave" unicode="&#xf9;" horiz-adv-x="581" 
d="M298 394v31q93 3 123 5q17 1 36.5 2t31.5 2t17 1q-3 -69 -3 -136v-115q0 -86 3 -122q2 -19 11.5 -23.5t49.5 -3.5l-1 -32q-37 -1 -115 -8q-46 -3 -89 -9q-2 33 -5 79q-72 -79 -168 -79q-86 0 -109 54q-10 20 -10 59q0 37 1 107t1 97q0 56 -1 72q-1 14 -11.5 17.5
t-42.5 3.5l2 31q60 0 114 3q23 1 92 7q-9 -52 -9 -197q0 -136 5 -160q6 -32 39 -32q32 0 55 22t34 53q9 23 9 57v112q0 60 -3 82q-1 12 -12.5 15.5t-44.5 4.5zM329 497l-22 -16q-32 27 -77.5 66l-52.5 45q-24 26 -24 54q0 23 12 35t29 12q35 0 58 -40q9 -14 40.5 -80.5
t36.5 -75.5z" />
    <glyph glyph-name="uacute" unicode="&#xfa;" horiz-adv-x="581" 
d="M298 394v31q93 3 123 5q17 1 36.5 2t31.5 2t17 1q-3 -69 -3 -136v-115q0 -86 3 -122q2 -19 11.5 -23.5t49.5 -3.5l-1 -32q-37 -1 -115 -8q-46 -3 -89 -9q-2 33 -5 79q-72 -79 -168 -79q-86 0 -109 54q-10 20 -10 59q0 37 1 107t1 97q0 56 -1 72q-1 14 -11.5 17.5
t-42.5 3.5l2 31q60 0 114 3q23 1 92 7q-9 -52 -9 -197q0 -136 5 -160q6 -32 39 -32q32 0 55 22t34 53q9 23 9 57v112q0 60 -3 82q-1 12 -12.5 15.5t-44.5 4.5zM260 481l-22 17q9 15 48 79.5t48 77.5q28 39 62 39q37 0 37 -43q0 -32 -37 -63q-11 -9 -30 -24.5t-51.5 -40.5
t-54.5 -42z" />
    <glyph glyph-name="ucircumflex" unicode="&#xfb;" horiz-adv-x="581" 
d="M298 394v31q93 3 123 5q17 1 36.5 2t31.5 2t17 1q-3 -69 -3 -136v-115q0 -86 3 -122q2 -19 11.5 -23.5t49.5 -3.5l-1 -32q-37 -1 -115 -8q-46 -3 -89 -9q-2 33 -5 79q-72 -79 -168 -79q-86 0 -109 54q-10 20 -10 59q0 37 1 107t1 97q0 56 -1 72q-1 14 -11.5 17.5
t-42.5 3.5l2 31q60 0 114 3q23 1 92 7q-9 -52 -9 -197q0 -136 5 -160q6 -32 39 -32q32 0 55 22t34 53q9 23 9 57v112q0 60 -3 82q-1 12 -12.5 15.5t-44.5 4.5zM275 691l28 5q35 -88 117 -194l-23 -21q-58 44 -109 100q-49 -54 -109 -100l-22 21q80 102 118 189z" />
    <glyph glyph-name="udieresis" unicode="&#xfc;" horiz-adv-x="581" 
d="M298 394v31q93 3 123 5q17 1 36.5 2t31.5 2t17 1q-3 -69 -3 -136v-115q0 -86 3 -122q2 -19 11.5 -23.5t49.5 -3.5l-1 -32q-37 -1 -115 -8q-46 -3 -89 -9q-2 33 -5 79q-72 -79 -168 -79q-86 0 -109 54q-10 20 -10 59q0 37 1 107t1 97q0 56 -1 72q-1 14 -11.5 17.5
t-42.5 3.5l2 31q60 0 114 3q23 1 92 7q-9 -52 -9 -197q0 -136 5 -160q6 -32 39 -32q32 0 55 22t34 53q9 23 9 57v112q0 60 -3 82q-1 12 -12.5 15.5t-44.5 4.5zM190 638h1q30 0 47 -18t17 -48q0 -32 -21 -51.5t-47 -19.5q-25 0 -43.5 16.5t-18.5 49.5q0 31 18 51t47 20z
M387 638h1q29 0 46.5 -18t17.5 -47q0 -33 -20.5 -52.5t-46.5 -19.5t-44.5 17t-18.5 49q0 31 18 51t47 20z" />
    <glyph glyph-name="yacute" unicode="&#xfd;" horiz-adv-x="466" 
d="M-10 399v31q96 -3 125 -3q30 0 76 1.5t57 1.5l4 -31l-29 -4q-18 -2 -12 -23q11 -33 29.5 -79.5t39 -96t23.5 -56.5q40 110 67 213q6 23 0 31.5t-30 11.5l-35 3l1 31q12 0 44.5 -2t49.5 -2q13 0 45 2t47 2l-1 -31q-32 -2 -46.5 -13.5t-32.5 -55.5q-41 -99 -153 -408
q-30 -85 -59.5 -123t-79.5 -38q-32 0 -53 18.5t-21 50.5q0 30 17.5 47t40.5 17q26 0 35 -19q12 -29 31 -29q6 0 12.5 5t12 14.5t10.5 19t10 24t8 23t7 22t5 16.5q-18 13 -40 65q-108 261 -138 322q-10 22 -19.5 29.5t-27.5 9.5zM233 481l-22 17q9 15 48 79.5t48 77.5
q28 39 62 39q37 0 37 -43q0 -32 -37 -63q-11 -9 -30 -24.5t-51.5 -40.5t-54.5 -42z" />
    <glyph glyph-name="thorn" unicode="&#xfe;" horiz-adv-x="571" 
d="M-18 -231l6 31q46 4 59.5 9t14.5 21q5 95 5 216v423q0 92 -2 130q-1 13 -12.5 17.5t-49.5 3.5l5 31q34 0 109.5 5.5t100.5 12.5q-2 -25 -2 -293q84 65 157 65q77 0 120 -54q44 -56 44 -151q0 -122 -60.5 -186t-167.5 -64q-65 0 -97 25q0 -123 3 -174q2 -22 14 -28t63 -7
l-5 -31q-3 0 -53.5 1.5t-93.5 1.5q-8 0 -158 -5zM290 21h1q27 0 45.5 19.5t27.5 51.5t12.5 63.5t3.5 66.5q0 82 -23 123q-21 35 -59 35q-47 0 -73 -50q-8 -17 -10 -44q-3 -84 -1 -186q0 -27 12 -44q24 -35 64 -35z" />
    <glyph glyph-name="ydieresis" unicode="&#xff;" horiz-adv-x="466" 
d="M-10 399v31q96 -3 125 -3q30 0 76 1.5t57 1.5l4 -31l-29 -4q-18 -2 -12 -23q11 -33 29.5 -79.5t39 -96t23.5 -56.5q40 110 67 213q6 23 0 31.5t-30 11.5l-35 3l1 31q12 0 44.5 -2t49.5 -2q13 0 45 2t47 2l-1 -31q-32 -2 -46.5 -13.5t-32.5 -55.5q-41 -99 -153 -408
q-30 -85 -59.5 -123t-79.5 -38q-32 0 -53 18.5t-21 50.5q0 30 17.5 47t40.5 17q26 0 35 -19q12 -29 31 -29q6 0 12.5 5t12 14.5t10.5 19t10 24t8 23t7 22t5 16.5q-18 13 -40 65q-108 261 -138 322q-10 22 -19.5 29.5t-27.5 9.5zM160 638h1q30 0 47 -18t17 -48
q0 -32 -21 -51.5t-47 -19.5q-25 0 -43.5 16.5t-18.5 49.5q0 31 18 51t47 20zM357 638h1q29 0 46.5 -18t17.5 -47q0 -33 -20.5 -52.5t-46.5 -19.5t-44.5 17t-18.5 49q0 31 18 51t47 20z" />
    <glyph glyph-name="dotlessi" unicode="&#x131;" horiz-adv-x="306" 
d="M287 28v-31q-15 0 -60 1.5t-79 1.5q-37 0 -76 -1.5t-50 -1.5l1 31q36 1 47 7.5t12 22.5q3 28 3 108v101q0 88 -1 104q-2 13 -12 16.5t-44 2.5l1 31q153 9 204 19q-3 -72 -3 -159v-119q0 -33 3 -102q1 -18 10 -23.5t44 -8.5z" />
    <glyph glyph-name="Lslash" unicode="&#x141;" horiz-adv-x="565" 
d="M41 600l2 31q8 0 67.5 -1.5t87.5 -1.5q26 0 76 1.5t77 1.5l3 -31l-51 -4q-16 -1 -22 -6.5t-7 -17.5q-4 -62 -4 -129v-72q55 32 100 61l25 -30q-64 -35 -125 -71v-121q0 -131 3 -158q1 -18 35 -18q64 0 94.5 8t50.5 31q39 43 61 132l30 -2q-4 -22 -7.5 -59t-7.5 -83
t-6 -65q-21 2 -126 4q-28 0 -98.5 0.5t-108.5 0.5q-24 0 -89 -1.5t-75 -1.5v30l50 4q31 3 32 25q4 58 4 126v69q-50 -29 -66 -40l-25 30q82 46 91 51v147q0 94 -2 136q0 11 -5.5 15t-20.5 6z" />
    <glyph glyph-name="lslash" unicode="&#x142;" horiz-adv-x="308" 
d="M30 636l1 31q71 1 206 13q-4 -108 -4 -191v-64q4 2 54 33l23 -31l-77 -44v-172q0 -123 1 -149q1 -22 10 -27t47 -7l-1 -31q-16 0 -63 1.5t-76 1.5q-32 0 -77 -1.5t-52 -1.5v31q37 1 48 8t13 29q5 110 5 164v83l-20 -13q-20 -13 -30 -18l-23 32q71 40 73 41v131
q0 103 -1 125q-1 17 -10.5 21.5t-46.5 4.5z" />
    <glyph glyph-name="OE" unicode="&#x152;" horiz-adv-x="1024" 
d="M223 309v-1q0 -144 48 -215q41 -64 115 -64q73 0 113 60q19 26 26 69.5t7 159.5q0 148 -12 184q-17 45 -51.5 75.5t-86.5 30.5q-35 0 -58.5 -12t-44.5 -42q-56 -82 -56 -245zM614 628h185q67 0 91 1q38 1 56 6q-6 -55 -4 -185l-29 -2q-11 54 -32 94q-17 32 -46.5 42
t-95.5 10h-28q-18 0 -19 -16q-6 -64 -6 -148v-84q11 -1 49 -1q49 0 72 21.5t30 69.5h27q-12 -127 -3 -236l-29 1q-8 55 -27.5 82t-71.5 27q-35 0 -47 -2v-66q0 -132 3 -184q2 -15 12 -19.5t50 -4.5q61 0 91 6.5t55 26.5q43 36 70 131l29 -6q-2 -20 -12 -98.5t-14 -98.5
q-10 1 -83 3q-70 2 -139 2h-112q-101 0 -114 -3q1 13 1 60q-61 -73 -186 -73q-111 0 -180 46q-56 39 -86.5 109.5t-30.5 162.5q0 95 35 171.5t96 119.5q74 51 181 51q119 0 176 -67q0 39 -1 53q50 -2 87 -2z" />
    <glyph glyph-name="oe" unicode="&#x153;" horiz-adv-x="809" 
d="M282 409q-39 0 -61 -38q-26 -50 -26 -156q0 -97 22 -150q17 -45 61 -45q46 0 64 41q21 55 21 162q0 98 -19 144q-17 42 -62 42zM777 123q-20 -64 -68.5 -100.5t-125.5 -36.5q-108 0 -155 67q-57 -67 -162 -67q-112 0 -172 60.5t-60 159.5q0 103 67 169t179 66
q107 0 161 -70q59 70 153 70q57 0 96.5 -19t57 -50t24.5 -57t7 -51q0 -32 -17 -41q-17 -11 -79 -14q-44 -3 -170 -3q-1 -61 19 -107q28 -57 97 -57q80 0 119 95zM585 409h-1q-30 0 -49 -45.5t-20 -121.5q15 -2 55 -2q37 0 58 7q16 6 16 38q0 124 -59 124z" />
    <glyph glyph-name="Scaron" unicode="&#x160;" horiz-adv-x="522" 
d="M53 217l29 5q1 -86 44 -144.5t119 -58.5q47 0 74.5 25.5t27.5 71.5q0 50 -41 78q-7 4 -72.5 41t-94.5 56q-88 55 -88 158q0 92 59.5 144t154.5 52q96 0 138 -40l19 45l28 -6q-16 -84 -16 -203l-29 -5q-5 78 -42 126.5t-92 48.5q-45 0 -69 -26.5t-24 -67.5q0 -61 57 -90
q30 -18 69.5 -39t64.5 -35t42 -26q74 -47 74 -140q0 -102 -71.5 -152.5t-184.5 -50.5q-93 0 -186 35q8 56 10 198zM276 688l-26 -4q-14 26 -49 62.5t-87 68.5l16 26q80 -25 133 -55q61 32 133 55l16 -26q-93 -61 -136 -127z" />
    <glyph glyph-name="scaron" unicode="&#x161;" horiz-adv-x="427" 
d="M358 286l-29 -6q-4 49 -37.5 88t-80.5 39q-30 0 -47 -15.5t-17 -39.5q0 -27 27 -43q16 -9 78 -32t79 -32q64 -33 64 -103q0 -80 -59 -117.5t-142 -37.5q-88 0 -150 27q4 48 2 153h28q8 -51 27 -82q36 -63 111 -63q34 0 53 15t19 40q0 28 -28 43q-14 7 -122 52
q-87 37 -87 120q0 70 49 109.5t123 39.5t105 -27l14 36l29 -9q-12 -68 -9 -155zM231 485l-28 -5q-35 88 -117 194l23 21q52 -38 110 -100q57 62 108 100l22 -21q-80 -102 -118 -189z" />
    <glyph glyph-name="Ydieresis" unicode="&#x178;" horiz-adv-x="584" 
d="M470 28l4 -31q-30 0 -93 1.5t-95 1.5q-37 0 -91 -1.5t-78 -1.5l-3 31q22 2 64 8q19 2 27.5 10t9.5 25q2 25 5 189q0 24 -11 47q-45 101 -137 249q-17 27 -33.5 35t-55.5 9v31q8 0 63 -1.5t88 -1.5q42 0 94 1.5t64 1.5l3 -31l-42 -4q-20 -3 -8 -28q37 -82 114 -233
q75 149 102 224q6 20 3.5 26.5t-13.5 8.5q-7 1 -26.5 3.5t-29.5 3.5l3 30q7 0 45.5 -1.5t63.5 -1.5q21 0 55 1.5t50 1.5l3 -31q-43 -2 -61 -11t-37 -37q-47 -73 -128 -238q-11 -21 -11 -47q-3 -148 3 -208q3 -21 22 -23q43 -6 67 -8zM218 820h1q28 0 45 -18t17 -45
q0 -31 -20 -50t-45 -19t-43 16t-18 47t17.5 50t45.5 19zM417 820h1q29 0 46 -18t17 -45q0 -31 -19.5 -50t-45.5 -19q-25 0 -43 16t-18 47t17.5 50t44.5 19z" />
    <glyph glyph-name="Zcaron" unicode="&#x17d;" horiz-adv-x="620" 
d="M281 628h49h130q16 0 34.5 0.5t40.5 1.5t35 1q-10 -41 -27 -74q-4 -7 -144 -243q-136 -229 -164 -280q148 -1 192.5 7.5t71.5 40.5q32 38 63 143l29 -8q-22 -166 -23 -224q-52 4 -117 6q-43 1 -131 1h-189q-64 0 -92 -3l-10 20q267 424 351 577h-76q-86 0 -121 -13.5
t-54 -48.5q-19 -36 -43 -122l-28 6q21 138 14 221q24 -6 69 -8q28 -1 140 -1zM326 685l-26 -4q-14 26 -49 62.5t-87 68.5l16 26q80 -25 133 -55q61 32 133 55l16 -26q-93 -61 -136 -127z" />
    <glyph glyph-name="zcaron" unicode="&#x17e;" horiz-adv-x="477" 
d="M79 264l-30 -4q10 163 10 178q18 -7 46 -8q31 -3 75 -3h90q81 0 165 3q-3 -27 -21 -58q-16 -29 -96.5 -169.5t-96.5 -169.5q58 -1 106 7q37 5 58.5 38t37.5 108l29 -11q-15 -98 -17 -180q-57 5 -277 5q-18 0 -43.5 -0.5t-33.5 -0.5q-36 -2 -39 -2l-12 20q45 61 126.5 200
t97.5 177q-55 0 -91 -5q-24 -3 -36 -12t-22 -32q-13 -25 -26 -81zM267 485l-28 -5q-35 88 -117 194l23 21q52 -38 110 -100q57 62 108 100l22 -21q-80 -102 -118 -189z" />
    <glyph glyph-name="longs" unicode="&#x17f;" horiz-adv-x="301" 
d="M24 392l5 33h57v27q0 107 58 164q54 56 140 56q56 0 86.5 -24t30.5 -59q0 -25 -20 -41.5t-51 -16.5q-35 0 -35 36q-2 70 -33 70q-26 0 -32 -48v-184v-175q0 -122 3 -165q1 -17 5.5 -24t16.5 -9q32 -4 38 -4l-3 -31q-15 0 -56 1.5t-69 1.5q-27 0 -77.5 -1.5t-65.5 -1.5
l2 31q35 1 45.5 6t11.5 19q4 58 4 135v197z" />
    <glyph glyph-name="florin" unicode="&#x192;" horiz-adv-x="518" 
d="M38 313l15 44q30 -3 84 -3q23 151 85 215q63 66 156 66q47 0 79 -21.5t32 -60.5q0 -32 -20.5 -48t-45.5 -16q-17 0 -30 8.5t-9 21.5q5 18 5 39q0 44 -28 44q-24 0 -37 -54q-15 -62 -30 -194q55 0 121 3l-11 -45q-87 3 -114 3q-22 -159 -40 -249q-15 -77 -44.5 -124
t-78.5 -76q-55 -33 -123 -33q-41 0 -70.5 19t-29.5 51q0 26 19 43.5t45 17.5q28 0 37 -32q17 -61 40 -61q15 0 23 15.5t15 55.5q11 72 29 213.5t20 159.5q-44 0 -94 -2z" />
    <glyph glyph-name="circumflex" unicode="&#x2c6;" horiz-adv-x="456" 
d="M215 691l28 5q35 -88 117 -194l-23 -21q-58 44 -109 100q-49 -54 -109 -100l-22 21q80 102 118 189z" />
    <glyph glyph-name="caron" unicode="&#x2c7;" horiz-adv-x="456" 
d="M242 485l-28 -5q-35 88 -117 194l23 21q52 -38 110 -100q57 62 108 100l22 -21q-80 -102 -118 -189z" />
    <glyph glyph-name="uni02C9" unicode="&#x2c9;" horiz-adv-x="456" 
d="M106 523l11 73h234l-9 -73h-236z" />
    <glyph glyph-name="breve" unicode="&#x2d8;" horiz-adv-x="456" 
d="M114 654h31q7 -47 29 -64q18 -16 55 -16q36 0 55 16q20 16 28 64h31q-1 -35 -5 -59.5t-15.5 -49.5t-35.5 -38t-60 -13q-30 0 -52 9.5t-33.5 24t-18 37t-8 42.5t-1.5 47z" />
    <glyph glyph-name="dotaccent" unicode="&#x2d9;" horiz-adv-x="398" 
d="M200 642h1q32 0 51 -19.5t19 -51.5q0 -34 -22 -54t-52 -20q-29 0 -49 18.5t-20 51.5t20 54t52 21z" />
    <glyph glyph-name="ring" unicode="&#x2da;" horiz-adv-x="387" 
d="M198 676h1q45 0 72.5 -24t27.5 -69q0 -46 -30.5 -72.5t-75.5 -26.5q-46 0 -74.5 24t-28.5 68q0 48 30 74t78 26zM196 648h-1q-39 0 -39 -66q0 -69 40 -69q38 0 38 70q0 24 -8.5 44.5t-29.5 20.5z" />
    <glyph glyph-name="ogonek" unicode="&#x2db;" horiz-adv-x="456" 
d="M262 12h36q-95 -73 -95 -147q0 -23 12.5 -35.5t31.5 -12.5q37 0 66 27l14 -26q-17 -26 -52 -49.5t-83 -23.5q-35 0 -58.5 22.5t-23.5 59.5q0 51 46.5 100.5t105.5 84.5z" />
    <glyph glyph-name="tilde" unicode="&#x2dc;" horiz-adv-x="456" 
d="M127 500l-35 4q2 55 23 93t65 38q28 0 68 -32q36 -29 49 -29q28 0 32 62l34 -7q-4 -130 -81 -130q-29 0 -75 36q-30 25 -45 25q-32 0 -35 -60z" />
    <glyph glyph-name="hungarumlaut" unicode="&#x2dd;" horiz-adv-x="456" 
d="M155 483l-25 13q24 106 36 139q16 49 56 49q16 0 25.5 -12.5t9.5 -31.5q1 -23 -25 -58q-37 -49 -77 -99zM310 483l-26 13q31 125 35 137q17 50 57 50q16 0 26 -12t10 -31q0 -25 -26 -59q-18 -25 -76 -98z" />
    <glyph glyph-name="pi" unicode="&#x3c0;" horiz-adv-x="508" 
d="M261 368h-101q2 -39 -1 -241q-1 -82 -23.5 -111t-57.5 -29q-25 0 -40.5 13.5t-15.5 40.5q0 16 6.5 25.5t14.5 7.5q18 -3 25 -2q22 2 32.5 18.5t11.5 64.5q2 131 -1 213q-23 0 -42 -2t-27 -3.5t-21.5 -5.5t-16.5 -5q-1 1 -4.5 14.5t-3.5 15.5q60 45 154 45h212q31 0 129 7
l-9 -69q-9 0 -24.5 1t-28 1.5t-22.5 0.5v-293q0 -36 16 -36q13 0 27 16.5t24 53.5l27 -20q-31 -102 -145 -102q-49 0 -72 23t-23 81v277z" />
    <glyph glyph-name="figuredash" unicode="&#x2012;" horiz-adv-x="334" 
d="M38 271l13 78q117 -3 246 0l-12 -78q-129 4 -247 0z" />
    <glyph glyph-name="endash" unicode="&#x2013;" horiz-adv-x="563" 
d="M49 193l14 73q222 -2 451 0l-14 -73q-217 2 -451 0z" />
    <glyph glyph-name="emdash" unicode="&#x2014;" horiz-adv-x="970" 
d="M49 193l14 73q94 -1 427.5 -1t430.5 1l-14 -73q-93 1 -426.5 1t-431.5 -1z" />
    <glyph glyph-name="quoteleft" unicode="&#x2018;" horiz-adv-x="232" 
d="M198 711l6 -28q-51 -8 -83.5 -38.5t-32.5 -68.5q0 -12 9 -3q15 10 39 10q25 0 43.5 -19.5t17.5 -49.5q0 -30 -22.5 -51.5t-52.5 -21.5q-42 0 -65.5 29.5t-23.5 77.5q0 71 51 115t114 48z" />
    <glyph glyph-name="quoteright" unicode="&#x2019;" horiz-adv-x="232" 
d="M37 436l-5 27q50 9 82.5 39.5t32.5 69.5q0 9 -8 3q-16 -11 -39 -11q-26 0 -44.5 19.5t-17.5 49.5q0 30 22.5 51.5t52.5 21.5q42 0 65.5 -29.5t23.5 -77.5q0 -71 -51 -115t-114 -48z" />
    <glyph glyph-name="quotesinglbase" unicode="&#x201a;" horiz-adv-x="240" 
d="M35 -124l-6 29q53 9 87.5 39.5t34.5 72.5q0 3 -1.5 4.5t-3.5 1.5t-4 -2q-14 -10 -41 -10t-46.5 20t-19.5 53q1 31 24.5 53.5t54.5 22.5q45 0 69.5 -32t24.5 -83q0 -76 -55 -120.5t-118 -48.5z" />
    <glyph glyph-name="quotedblleft" unicode="&#x201c;" horiz-adv-x="439" 
d="M402 710l6 -27q-51 -8 -83.5 -38.5t-32.5 -69.5q0 -8 9 -3q14 11 38 11q26 0 44.5 -19.5t17.5 -49.5q0 -30 -22.5 -51.5t-52.5 -21.5q-42 0 -65.5 29.5t-23.5 77.5q0 71 51 114.5t114 47.5zM198 710l6 -27q-51 -8 -83.5 -38.5t-32.5 -68.5q0 -12 9 -3q15 10 39 10
q25 0 43.5 -19.5t18.5 -49.5q-1 -30 -23.5 -51.5t-52.5 -21.5q-42 0 -65.5 29.5t-23.5 77.5q0 71 50.5 114.5t114.5 47.5z" />
    <glyph glyph-name="quotedblright" unicode="&#x201d;" horiz-adv-x="439" 
d="M37 437l-5 26q50 9 82.5 39.5t32.5 69.5q0 9 -8 3q-16 -11 -39 -11q-26 0 -44.5 19.5t-17.5 49.5q0 30 22.5 51.5t52.5 21.5q42 0 65.5 -29.5t23.5 -77.5q0 -71 -51 -114.5t-114 -47.5zM241 437l-6 26q51 9 83.5 39.5t32.5 69.5q0 9 -8 3q-16 -11 -39 -11q-26 0 -44.5 19
t-18.5 50q1 30 23.5 51.5t52.5 21.5q42 0 65.5 -29.5t23.5 -77.5q0 -71 -51 -114.5t-114 -47.5z" />
    <glyph glyph-name="quotedblbase" unicode="&#x201e;" horiz-adv-x="447" 
d="M34 -118l-5 27q52 9 86 39.5t34 71.5q0 3 -1.5 4.5t-3.5 1.5t-4 -2q-13 -10 -40 -10t-46.5 20t-18.5 52q0 31 23 53t55 22q44 0 68 -31.5t24 -81.5q0 -76 -54.5 -119t-116.5 -47zM244 -118l-7 27q52 9 86.5 39.5t34.5 71.5q0 3 -1.5 4.5t-3.5 1.5t-4 -2q-13 -10 -40 -10
q-26 0 -46 20t-19 52q0 31 23 53t55 22q44 0 68 -31.5t24 -81.5q0 -76 -54 -119t-116 -47z" />
    <glyph glyph-name="dagger" unicode="&#x2020;" horiz-adv-x="560" 
d="M283 597q11 -17 33.5 -38t36.5 -28q11 -6 4 -15q-61 -66 -63 -173q41 2 80.5 19t57.5 43q8 12 14 -1q4 -10 25 -33t37 -35q11 -8 -1 -17q-45 -30 -62 -67q-6 -10 -15 -1q-18 26 -57 43t-79 18q0 -232 52 -394q2 -12 -7 -16q-29 -9 -58 -38q-3 -3 -8 0q-24 24 -60 37
q-7 3 -4 13q52 168 52 398q-40 -1 -79 -18t-58 -43q-8 -10 -14 1q-18 36 -62 67q-12 9 -1 17q16 13 37 35.5t25 32.5q6 13 14 1q19 -25 58.5 -42.5t79.5 -19.5q-2 105 -63 173q-8 8 3 15q14 7 36.5 28t33.5 38q7 7 12 0z" />
    <glyph glyph-name="daggerdbl" unicode="&#x2021;" horiz-adv-x="556" 
d="M279 603q10 -17 31.5 -37.5t36.5 -29.5q7 -6 0 -13q-56 -72 -57 -140q39 1 78 17.5t57 38.5q10 12 14 -1q5 -10 25 -30t36 -32q12 -8 -1 -17q-47 -35 -61 -61q-6 -11 -14 -1q-20 22 -58 38t-76 17q0 -64 53 -112q-48 -54 -53 -110q39 2 78 18t57 39q10 12 14 -1
q5 -10 25 -30.5t36 -32.5q12 -8 -1 -17q-47 -35 -61 -62q-5 -10 -14 0q-19 22 -57.5 38t-76.5 17q1 -50 19 -93t40 -69q7 -10 -3 -14q-39 -27 -67 -65q-4 -4 -11 1q-28 37 -67 63q-10 6 -3 14q57 75 59 163q-38 -1 -76.5 -17t-58.5 -38q-7 -10 -14 0q-14 27 -61 62
q-12 9 -1 17q16 12 36.5 32.5t24.5 30.5q7 12 14 1q19 -23 57.5 -39t78.5 -18q-3 52 -53 110q53 48 53 112q-38 -1 -76.5 -17t-58.5 -38q-7 -10 -14 1q-15 28 -62 61q-11 10 0 17q16 12 36 32t25 30q6 13 14 1q19 -22 58 -38.5t78 -17.5q-1 39 -19 78t-38 62q-7 9 0 13
q15 9 36 29.5t31 37.5q7 5 12 0z" />
    <glyph glyph-name="bullet" unicode="&#x2022;" horiz-adv-x="370" 
d="M185 353h1q54 0 90 -38t36 -94q0 -58 -37 -95.5t-90 -37.5t-90.5 37t-37.5 95q0 56 37.5 94.5t90.5 38.5z" />
    <glyph glyph-name="onedotenleader" unicode="&#x2024;" horiz-adv-x="449" 
d="M225 159h1q35 0 58.5 -24.5t23.5 -61.5q0 -38 -24 -62.5t-59 -24.5t-59 24.5t-24 62.5q0 36 24.5 61t58.5 25z" />
    <glyph glyph-name="twodotenleader" unicode="&#x2025;" horiz-adv-x="606" 
d="M152 159h1q35 0 58 -24.5t23 -61.5q0 -38 -24 -62.5t-58 -24.5q-35 0 -59 24.5t-24 62.5q0 37 24 61.5t59 24.5zM457 159h1q36 0 59 -24.5t23 -61.5q0 -38 -24 -62.5t-59 -24.5q-34 0 -58.5 24.5t-24.5 62.5q0 36 24.5 61t58.5 25z" />
    <glyph glyph-name="ellipsis" unicode="&#x2026;" horiz-adv-x="889" 
d="M147 158h1q35 0 58 -24.5t23 -61.5t-24 -61.5t-58 -24.5q-35 0 -59 24.5t-24 61.5t24.5 61.5t58.5 24.5zM444 158h1q35 0 58 -24.5t23 -61.5t-24 -61.5t-58 -24.5q-35 0 -59 24.5t-24 61.5t24.5 61.5t58.5 24.5zM741 158h1q35 0 58 -24.5t23 -61.5t-24 -61.5t-58 -24.5
q-35 0 -59 24.5t-24 61.5t24.5 61.5t58.5 24.5z" />
    <glyph glyph-name="perthousand" unicode="&#x2030;" horiz-adv-x="1087" 
d="M169 -28l-36 28q139 187 393 561q-55 -31 -126 -31q-48 0 -80 13q16 -38 16 -90q0 -83 -40.5 -133t-109.5 -50q-68 0 -108 43t-40 126q-1 85 47 134t117 49q38 0 66 -15l18 13q17 -22 54 -38t80 -16q96 0 136 47q3 4 12 17.5t16 23.5l60 5q-10 -14 -83.5 -118
t-125.5 -178.5t-130 -188t-136 -202.5zM216 587h-1q-22 0 -38 -19q-26 -38 -27 -124q0 -88 25 -120q18 -18 40 -18q29 0 51.5 36.5t22.5 111.5q0 23 -3 44t-10.5 42.5t-22.5 34t-37 12.5zM580 356h1q72 0 105 -48t33 -124q0 -81 -39.5 -130.5t-109.5 -49.5q-69 0 -109.5 43
t-40.5 124q0 87 46.5 136t113.5 49zM601 322h-1q-26 0 -41 -21q-26 -38 -26 -121q0 -93 27 -123q13 -17 38 -17q31 0 53.5 37.5t22.5 108.5q0 31 -5 59t-22.5 52.5t-45.5 24.5zM911 356h1q72 0 105 -47.5t33 -124.5q0 -82 -40 -131t-109 -49q-68 0 -109 43.5t-41 123.5
q0 87 46 136t114 49zM931 322h-1q-25 0 -40 -21q-25 -33 -26 -121q0 -93 27 -123q14 -17 38 -17q31 0 53.5 37.5t22.5 107.5q0 33 -5 61t-23 52t-46 24z" />
    <glyph glyph-name="guilsinglleft" unicode="&#x2039;" horiz-adv-x="336" 
d="M256 417l28 -12q-23 -93 -86 -193q71 -105 86 -188l-24 -16q-34 71 -97.5 125.5t-111.5 67.5l10 24q52 18 107.5 71t87.5 121z" />
    <glyph glyph-name="guilsinglright" unicode="&#x203a;" horiz-adv-x="336" 
d="M79 8l-28 12q23 93 86 193q-71 105 -86 188l24 16q34 -71 97.5 -125.5t111.5 -67.5l-10 -24q-52 -18 -107.5 -71t-87.5 -121z" />
    <glyph glyph-name="fraction" unicode="&#x2044;" horiz-adv-x="97" 
d="M240 678l39 -23q-183 -279 -428 -685l-37 27q222 338 426 681z" />
    <glyph glyph-name="zero.superior" unicode="&#x2070;" horiz-adv-x="389" 
d="M211 780h1q78 0 120.5 -49t42.5 -130q0 -86 -46 -136t-128 -50q-81 0 -123.5 48t-42.5 132q0 82 47.5 133.5t128.5 51.5zM208 750h-1q-25 0 -38 -31q-16 -36 -16 -122q0 -76 15 -118q12 -34 39 -34q25 0 39 33q15 42 15 122q0 79 -15 121q-14 29 -38 29z" />
    <glyph glyph-name="four.superior" unicode="&#x2074;" horiz-adv-x="389" 
d="M199 545q5 93 5 167q-80 -101 -119 -157q28 -10 114 -10zM37 520l-10 24q140 167 177 217q65 8 106 22l6 -4q-3 -65 -3 -193v-39q45 3 70 16v-26q-22 -18 -70 -25q0 -12 0.5 -41t0.5 -45q-83 0 -116 -10l-5 5q2 23 4 86q-119 0 -160 13z" />
    <glyph glyph-name="five.superior" unicode="&#x2075;" horiz-adv-x="389" 
d="M86 561l-21 22q12 34 21.5 104.5t8.5 92.5q46 -12 120 -12q60 0 87 6t42 28l18 -15q-7 -31 -24.5 -56t-37.5 -35q-30 -15 -90 -15q-61 0 -91 6q-13 -63 -19 -82q49 36 119 36q67 0 106 -26t39 -80q0 -44 -29 -73q-46 -46 -147 -46q-62 0 -103 20.5t-41 57.5q0 19 17 32.5
t42 13.5q26 0 34 -34q10 -61 53 -61q24 0 37.5 20.5t13.5 58.5q0 46 -27 66q-15 11 -42 11q-56 0 -86 -40z" />
    <glyph glyph-name="six.superior" unicode="&#x2076;" horiz-adv-x="389" 
d="M333 776l2 -31q-18 5 -38 5q-63 0 -100.5 -38t-42.5 -96q52 42 104 42q57 0 87.5 -28.5t30.5 -79.5q0 -66 -51.5 -100t-121.5 -34q-77 0 -122.5 38.5t-45.5 115.5q0 110 86 168q61 42 159 42q9 0 53 -4zM205 444h1q29 0 42 28.5t13 66.5q0 29 -12.5 52.5t-36.5 23.5
q-39 0 -56 -39q-5 -12 -5 -36q0 -33 13 -64.5t41 -31.5z" />
    <glyph glyph-name="seven.superior" unicode="&#x2077;" horiz-adv-x="389" 
d="M72 621l-26 7q11 38 17.5 86.5t5.5 66.5q30 -8 150 -8q126 0 143 2l4 -7q-16 -58 -38 -90q-108 -158 -108 -257l-7 -6q-49 -2 -76 10q-20 8 -20 26q0 16 10 36q17 36 87.5 109.5t79.5 86.5q-24 3 -100 3q-59 0 -77.5 -3.5t-24.5 -14.5q-11 -19 -20 -47z" />
    <glyph glyph-name="eight.superior" unicode="&#x2078;" horiz-adv-x="389" 
d="M215 780h1q50 0 90.5 -21.5t40.5 -67.5q0 -23 -22 -40q-15 -11 -43 -27q50 -22 68 -42.5t18 -52.5q0 -47 -45 -80q-48 -33 -125 -33q-69 0 -110 24.5t-41 68.5q0 29 27 48q11 7 51 26q-62 30 -62 84q0 40 29 69q40 44 123 44zM202 751h-1q-22 0 -37 -12.5t-15 -30.5
q0 -22 23 -35q33 -19 83 -36q22 15 22 48q0 30 -21.5 48t-53.5 18zM212 444h1q24 0 42 11t18 34q0 18 -24.5 36t-95.5 45q-26 -16 -26 -50q0 -30 22.5 -53t62.5 -23z" />
    <glyph glyph-name="nine.superior" unicode="&#x2079;" horiz-adv-x="389" 
d="M74 422v29q34 -6 68 2q97 19 112 125q-48 -38 -102 -38q-56 0 -86.5 29.5t-30.5 77.5q0 63 50 98.5t120 35.5q79 0 123.5 -42.5t44.5 -119.5q0 -106 -82 -162q-61 -41 -160 -41q-27 0 -57 6zM203 752h-1q-27 0 -39.5 -27.5t-12.5 -62.5q0 -34 14 -56.5t38 -22.5
q34 0 49 29q8 14 8 42q0 98 -56 98z" />
    <glyph glyph-name="parenleft.superior" unicode="&#x207d;" horiz-adv-x="273" 
d="M248 347l-10 -27q-51 19 -97 61q-84 78 -84 219q0 142 85 221q37 35 96 59l10 -24q-64 -30 -83 -121q-11 -48 -11 -135q0 -92 11 -136q19 -90 83 -117z" />
    <glyph glyph-name="parenright.superior" unicode="&#x207e;" horiz-adv-x="273" 
d="M48 853l10 27q57 -22 97 -61q84 -78 84 -219q0 -142 -85 -220q-41 -40 -96 -60l-10 24q65 29 84 121q10 50 10 135q0 86 -11 136q-18 91 -83 117z" />
    <glyph glyph-name="n.superior" unicode="&#x207f;" horiz-adv-x="452" 
d="M25 273v28q28 2 35 5t8 16q2 32 2 67v49q0 56 -2 74q-1 7 -8.5 9.5t-36.5 2.5l2 27q63 -2 147 8q6 -26 10 -50q59 50 118 50q50 0 74 -33q13 -21 13 -60v-92q0 -36 1 -54q1 -10 8.5 -14t34.5 -5l-3 -28q-5 0 -39 1t-56 1q-27 0 -57 -1t-32 -1v28q17 2 23 5.5t7 16.5
q2 36 2 70q0 86 -6 102q-7 17 -26 17q-35 0 -55 -38q-8 -13 -8 -37v-62q0 -22 2 -56q1 -10 7.5 -13t26.5 -5l-2 -28q-5 0 -38 1t-53 1q-22 0 -56.5 -1t-42.5 -1z" />
    <glyph glyph-name="zero.inferior" unicode="&#x2080;" horiz-adv-x="389" 
d="M161 228h1q78 0 120.5 -49t42.5 -130q0 -86 -46 -136t-128 -50q-81 0 -123.5 48t-42.5 132q0 82 47.5 133.5t128.5 51.5zM158 198h-1q-25 0 -38 -31q-16 -36 -16 -122q0 -76 15 -118q12 -34 39 -34q25 0 39 33q15 42 15 122q0 79 -15 121q-14 29 -38 29z" />
    <glyph glyph-name="one.inferior" unicode="&#x2081;" horiz-adv-x="389" 
d="M282 -102l1 -29q-23 0 -67 1.5t-62 1.5q-23 0 -61.5 -1.5t-51.5 -1.5l-3 29l46 4q22 3 22 16q3 54 3 84v92q0 40 -2 76q0 8 -9 8q-33 -6 -57 -10l5 33q149 20 173 28l4 -3q-3 -60 -3 -127v-97q0 -46 2 -84q2 -14 16 -15z" />
    <glyph glyph-name="two.inferior" unicode="&#x2082;" horiz-adv-x="389" 
d="M300 13l28 -8q-22 -70 -28 -137q-44 4 -213 4q-74 0 -95 -2l-3 6q1 3 22 60q132 59 156 136q9 25 9 63q0 63 -41 63q-42 0 -42 -61q0 -10 3 -31q1 -13 -10 -20q-12 -10 -34 -10q-54 0 -54 51q0 36 42 68q43 33 114 33q62 0 98 -23q47 -29 47 -86q0 -50 -44 -80
q-26 -20 -147 -83q111 3 156 6q12 1 18 11q8 16 18 40z" />
    <glyph glyph-name="three.inferior" unicode="&#x2083;" horiz-adv-x="389" 
d="M158 228q32 0 61 -6.5t53.5 -26.5t24.5 -52q0 -42 -47 -62q-16 -6 -72 -20v-3q73 -3 107 -24q35 -19 35 -62q0 -49 -51 -78q-47 -31 -130 -31q-60 0 -103 22t-43 59q0 20 17.5 34t41.5 14q15 0 22 -7.5t11 -25.5q11 -66 57 -66q51 0 51 72q0 73 -68 73q-20 0 -36 -4
l-14 24l4 7q50 2 72 18q30 18 30 57q0 25 -11.5 41.5t-33.5 16.5q-47 0 -47 -53q0 -16 2 -25q1 -10 -9 -16.5t-25 -6.5q-52 0 -52 42q0 32 41.5 60.5t111.5 28.5z" />
    <glyph glyph-name="four.inferior" unicode="&#x2084;" horiz-adv-x="389" 
d="M149 -7q5 93 5 167q-80 -101 -119 -157q28 -10 114 -10zM-13 -32l-10 24q140 167 177 217q65 8 106 22l6 -4q-3 -65 -3 -193v-39q45 3 70 16v-26q-22 -18 -70 -25q0 -12 0.5 -41t0.5 -45q-83 0 -116 -10l-5 5q2 23 4 86q-119 0 -160 13z" />
    <glyph glyph-name="five.inferior" unicode="&#x2085;" horiz-adv-x="389" 
d="M36 9l-21 22q12 34 21.5 104.5t8.5 92.5q46 -12 120 -12q60 0 87 6t42 28l18 -15q-7 -31 -24.5 -56t-37.5 -35q-30 -15 -90 -15q-61 0 -91 6q-13 -63 -19 -82q49 36 119 36q67 0 106 -26t39 -80q0 -44 -29 -73q-46 -46 -147 -46q-62 0 -103 20.5t-41 57.5q0 19 17 32.5
t42 13.5q26 0 34 -34q10 -61 53 -61q24 0 37.5 20.5t13.5 58.5q0 47 -27 66q-15 11 -42 11q-56 0 -86 -40z" />
    <glyph glyph-name="six.inferior" unicode="&#x2086;" horiz-adv-x="389" 
d="M283 224l2 -31q-18 5 -38 5q-63 0 -100.5 -38t-42.5 -96q52 42 104 42q57 0 87.5 -28.5t30.5 -79.5q0 -66 -51.5 -100t-121.5 -34q-77 0 -122.5 38.5t-45.5 115.5q0 110 86 168q61 42 159 42q9 0 53 -4zM155 -108h1q29 0 42 28.5t13 66.5q0 29 -12.5 52.5t-36.5 23.5
q-39 0 -56 -39q-5 -13 -5 -36q0 -33 13 -64.5t41 -31.5z" />
    <glyph glyph-name="seven.inferior" unicode="&#x2087;" horiz-adv-x="389" 
d="M22 69l-26 7q11 38 17.5 86.5t5.5 66.5q30 -8 150 -8q126 0 143 2l4 -7q-16 -58 -38 -90q-108 -158 -108 -257l-7 -6q-49 -2 -76 10q-20 8 -20 26q0 16 10 36q17 36 87.5 109.5t79.5 86.5q-24 3 -100 3q-59 0 -77.5 -3.5t-24.5 -14.5q-11 -19 -20 -47z" />
    <glyph glyph-name="eight.inferior" unicode="&#x2088;" horiz-adv-x="389" 
d="M165 228h1q50 0 90.5 -21.5t40.5 -67.5q0 -23 -22 -40q-15 -11 -43 -27q50 -22 68 -42.5t18 -52.5q0 -47 -45 -80q-48 -33 -125 -33q-69 0 -110 24.5t-41 68.5q0 29 27 48q11 7 51 26q-62 30 -62 84q0 40 29 69q40 44 123 44zM152 199h-1q-22 0 -37 -12.5t-15 -30.5
q0 -22 23 -35q33 -19 83 -36q22 15 22 48q0 30 -21.5 48t-53.5 18zM162 -108h1q24 0 42 11t18 34q0 18 -24.5 36t-95.5 45q-26 -16 -26 -50q0 -30 22.5 -53t62.5 -23z" />
    <glyph glyph-name="nine.inferior" unicode="&#x2089;" horiz-adv-x="389" 
d="M24 -130v29q34 -6 68 2q97 19 112 125q-48 -38 -102 -38q-56 0 -86.5 29.5t-30.5 77.5q0 63 50 98.5t120 35.5q79 0 123.5 -42.5t44.5 -119.5q0 -106 -82 -162q-61 -41 -160 -41q-27 0 -57 6zM153 200h-1q-27 0 -39.5 -27.5t-12.5 -62.5q0 -34 14 -56.5t38 -22.5
q34 0 49 29q8 14 8 42q0 98 -56 98z" />
    <glyph glyph-name="parenleft.inferior" unicode="&#x208d;" horiz-adv-x="273" 
d="M198 -205l-10 -27q-51 19 -97 61q-84 78 -84 219q0 142 85 221q37 35 96 59l10 -24q-64 -30 -83 -121q-11 -48 -11 -135q0 -92 11 -136q19 -90 83 -117z" />
    <glyph glyph-name="parenright.inferior" unicode="&#x208e;" horiz-adv-x="273" 
d="M-2 301l10 27q57 -22 97 -61q84 -78 84 -219q0 -142 -85 -220q-41 -40 -96 -60l-10 24q65 29 84 121q10 50 10 135q0 86 -11 136q-18 91 -83 117z" />
    <glyph glyph-name="colonmonetary" unicode="&#x20a1;" horiz-adv-x="519" 
d="M186 305v-1q0 -179 55 -229q4 58 12.5 159.5t15 186t11.5 161.5q-36 -12 -58.5 -65.5t-29 -105.5t-6.5 -106zM387 613q43 -10 73.5 -35.5t31.5 -65.5q0 -31 -15.5 -43.5t-32.5 -12.5t-24 7q-13 13 -9 24q6 20 6 34q0 46 -34 56q-14 -173 -39 -529q92 16 123 120l25 -13
q-14 -61 -52.5 -99t-97.5 -49l-6 -91l-36 -8l10 94q-22 -3 -44 0q-1 -28 -6 -86l-34 -8l10 97q-107 18 -157 99t-50 197q0 127 67 216.5t187 101.5l4 76l35 6l-8 -80q26 0 44 -3l4 77l35 6zM355 586q-18 4 -44 3q-21 -231 -41 -533q26 -10 43 -9q22 264 42 539z" />
    <glyph glyph-name="Euro" unicode="&#x20ac;" horiz-adv-x="518" 
d="M233 375l200 1l-10 -39l-192 1q-1 -16 -1 -49l178 1l-9 -39l-167 1q8 -212 119 -212q41 0 70 24t50 82l28 -14q-26 -80 -69 -113t-122 -33q-212 0 -232 266h-61l9 37h51q0 33 2 49h-41l10 37h34q7 46 23 86.5t44 78.5t76 60.5t110 22.5q81 0 120 -31t39 -73
q0 -31 -17.5 -47.5t-44.5 -16.5q-18 0 -29 9q-12 12 -8 24q4 26 4 39q0 33 -17 48.5t-45 15.5q-86 0 -102 -216z" />
    <glyph glyph-name="afii61289" unicode="&#x2113;" horiz-adv-x="428" 
d="M376 151l26 -13q-20 -81 -60 -113.5t-103 -32.5q-81 0 -111 43.5t-30 124.5v40q-9 -6 -29 -14.5t-28 -13.5l-14 27q38 20 69 41v180q0 80 16 136.5t42 82t50 35.5t49 10q46 0 73 -34.5t27 -97.5q0 -149 -140 -283v-84q0 -72 15.5 -102t51.5 -30t56.5 22t39.5 76zM213 519
v-195q84 100 84 234q0 34 -11 65t-35 31q-38 0 -38 -135z" />
    <glyph glyph-name="trademark" unicode="&#x2122;" horiz-adv-x="403" 
d="M78 627h28q47 0 63 5q0 -1 -1 -10t-1.5 -20.5t0.5 -32.5l-12 -2q-5 29 -14 38q-6 8 -28 7v-58q0 -12 0.5 -27t0.5 -16q2 -6 27 -7l-1 -16q-1 0 -21.5 0.5t-35.5 0.5q-8 0 -21.5 -0.5t-19.5 -0.5l-1 16q26 1 26 8q2 14 2 43v57q-22 0 -28 -9q-6 -10 -15 -38l-12 2
q0 2 6 65q20 -5 58 -5zM181 614l1 15q27 -1 43 -1q24 0 34 1q1 -3 31 -75q18 41 28 75q7 -1 36 -1q9 0 19.5 0.5t17.5 0.5l1 -15q-20 -1 -20 -8q-1 -4 -1 -24q-1 -42 3 -69q2 -9 21 -9v-16q-2 0 -18.5 0.5t-25.5 0.5t-25 -0.5t-18 -0.5l1 16q17 0 17 11q0 2 1 16t1.5 36.5
t0.5 44.5h-1q-12 -32 -26 -73.5t-16 -46.5l-22 -4q-4 15 -22 61t-23 60h-1v-88q2 -16 13 -17h13v-16q-5 0 -16.5 0.5t-17.5 0.5q-8 0 -21 -0.5t-16 -0.5v16q15 0 20 3.5t5 14.5q4 49 5 83l-1 4q0 3 -6 3z" />
    <glyph glyph-name="Omega" unicode="&#x2126;" horiz-adv-x="719" 
d="M277 97v5q-98 28 -157 90t-59 177q0 134 83.5 204.5t222.5 70.5q133 0 212 -70t79 -202q0 -110 -56.5 -171.5t-160.5 -98.5v-5h95q60 0 81 14t39 68l35 -2q-2 -26 -16.5 -94t-23.5 -86q-10 0 -31 1.5t-53 1.5h-189l-5 6q3 11 10.5 55t8.5 51q41 26 67.5 94t26.5 162
q0 245 -125 245q-63 0 -95 -59.5t-32 -192.5q0 -89 23 -154.5t66 -94.5q4 -17 13 -106l-2 -6h-181q-32 0 -59 -1.5t-37 -1.5q-15 38 -29 176l36 4q20 -55 41.5 -67.5t85.5 -12.5h86z" />
    <glyph glyph-name="estimated" unicode="&#x212e;" horiz-adv-x="829" 
d="M760 288h-559q-5 0 -5 -4v-169q0 -12 8 -20q86 -91 212 -91q134 0 222 103h49q-48 -56 -119.5 -88.5t-153.5 -32.5q-143 0 -244 90.5t-101 219.5t101 220t244 91t244.5 -91t101.5 -220v-8zM633 309v171q0 12 -9 21q-86 88 -208 88q-124 0 -211 -90q-9 -9 -9 -22v-168
q0 -4 5 -4h428q4 0 4 4z" />
    <glyph glyph-name="onethird" unicode="&#x2153;" horiz-adv-x="817" 
d="M295 302l1 -29q-23 0 -67 1.5t-62 1.5q-23 0 -61.5 -1.5t-51.5 -1.5l-3 29l46 4q22 3 22 16q3 57 3 84v92q0 40 -2 76q0 8 -9 8q-33 -6 -57 -10l5 33q149 20 173 28l4 -3q-3 -60 -3 -127v-97q0 -46 2 -84q2 -14 16 -15zM585 669l39 -24q-218 -330 -424 -675l-37 27
q254 389 422 672zM615 381h1q31 0 60 -6.5t53.5 -27t24.5 -51.5q0 -42 -47 -62q-16 -6 -72 -20v-3q73 -3 107 -24q34 -19 34 -62q0 -49 -50 -79q-49 -31 -131 -31q-60 0 -103 22.5t-43 59.5q0 19 17.5 33t41.5 14q15 0 22 -7.5t11 -25.5q12 -66 57 -66q52 0 52 72
q0 74 -69 74q-20 0 -36 -4l-14 23l4 8q51 2 73 18q30 16 30 57q0 25 -11.5 41.5t-33.5 16.5q-48 0 -48 -54q0 -15 2 -24q1 -10 -9 -16.5t-25 -6.5q-52 0 -52 42q0 32 41.5 60.5t112.5 28.5z" />
    <glyph glyph-name="twothirds" unicode="&#x2154;" horiz-adv-x="817" 
d="M336 417l28 -8q-22 -71 -28 -138q-44 4 -213 4q-74 0 -95 -2l-3 6q1 3 22 60q133 61 156 136q9 26 9 64q0 63 -41 63q-42 0 -42 -61q0 -8 3 -32q1 -12 -10 -20q-12 -10 -34 -10q-54 0 -54 52q0 36 42 68q43 33 114 33q62 0 98 -23q47 -29 47 -86q0 -50 -44 -81
q-31 -22 -147 -83q117 4 156 7q12 0 18 11q11 23 18 40zM614 669l38 -24q-235 -358 -423 -675l-38 27q275 421 423 672zM626 381h1q31 0 60 -6.5t53.5 -27t24.5 -51.5q0 -42 -47 -62q-16 -6 -72 -20v-3q72 -3 108 -24q34 -19 34 -62q0 -49 -50 -79q-49 -31 -131 -31
q-60 0 -103 22.5t-43 59.5q0 19 17.5 33t41.5 14q15 0 22 -7.5t11 -25.5q12 -66 57 -66q52 0 52 72q0 74 -69 74q-20 0 -36 -4l-14 23l4 8q50 2 72 18q30 16 30 56q0 26 -11.5 42t-33.5 16q-47 0 -47 -53q0 -16 2 -24q1 -10 -9 -16.5t-25 -6.5q-52 0 -52 42q0 31 41.5 60
t111.5 29z" />
    <glyph glyph-name="oneeighth" unicode="&#x215b;" horiz-adv-x="817" 
d="M299 302v-29q-22 0 -66 1.5t-62 1.5q-23 0 -61.5 -1.5t-51.5 -1.5l-3 29l46 4q22 3 22 16q3 54 3 83v93q0 40 -2 76q0 8 -9 8q-33 -6 -57 -10l5 33q149 20 173 28l3 -3q0 -4 -1 -46t-1 -81v-97q0 -46 2 -84q2 -14 16 -15zM589 669l39 -24q-199 -298 -424 -675l-37 27
q254 389 422 672zM612 381h1q50 0 90.5 -21.5t40.5 -66.5q0 -25 -22 -42q-10 -7 -43 -26q51 -22 69 -42.5t18 -52.5q0 -48 -45 -80q-47 -34 -125 -34q-69 0 -110 24.5t-41 68.5q0 31 28 48q5 4 50 26q-62 32 -62 85q0 42 29 69q40 44 122 44zM600 352h-1q-23 0 -37.5 -12
t-14.5 -31q0 -21 23 -35q33 -19 83 -36q22 15 22 48q0 30 -21.5 48t-53.5 18zM610 44h1q24 0 42 11t18 34q0 19 -24 36t-96 45q-25 -16 -25 -50q0 -30 22.5 -53t61.5 -23z" />
    <glyph glyph-name="threeeighths" unicode="&#x215c;" horiz-adv-x="817" 
d="M199 632h1q32 0 61 -6.5t53.5 -26.5t24.5 -52q0 -42 -47 -62q-16 -6 -72 -20v-3q73 -3 107 -24q35 -19 35 -62q0 -49 -51 -78q-47 -31 -131 -31q-60 0 -103 22t-43 59q0 20 17.5 33.5t41.5 13.5q15 1 22 -7t11 -26q12 -65 57 -65q52 0 52 71q0 74 -69 74q-20 0 -36 -4
l-14 24l4 7q51 2 73 18q30 18 30 57q0 25 -12 41.5t-34 16.5q-47 0 -47 -53q0 -16 2 -25q1 -10 -9 -16.5t-25 -6.5q-52 0 -52 42q0 32 41.5 60.5t111.5 28.5zM605 669l38 -24q-229 -351 -423 -675l-37 27q254 389 422 672zM625 381h1q50 0 90 -21.5t40 -67.5q0 -26 -22 -41
q-15 -11 -43 -27q51 -22 69 -42.5t18 -52.5q0 -47 -45 -79q-47 -34 -125 -34q-69 0 -110 24.5t-41 68.5q0 29 28 48q5 4 50 26q-62 32 -62 85q0 42 29 69q40 44 123 44zM612 352h-1q-22 0 -37 -12.5t-15 -31.5q0 -20 23 -35q32 -17 83 -36q22 17 22 49q0 30 -21.5 48
t-53.5 18zM622 44h1q24 0 42 11t18 34q0 19 -24 36t-96 45q-25 -16 -25 -50q0 -30 22.5 -53t61.5 -23z" />
    <glyph glyph-name="fiveeighths" unicode="&#x215d;" horiz-adv-x="817" 
d="M83 413l-21 22q12 34 21.5 104.5t8.5 92.5q46 -12 120 -12q59 0 86 6t42 28l18 -15q-7 -31 -24.5 -56t-37.5 -35q-30 -15 -90 -15t-90 6q-13 -63 -19 -82q49 36 118 36q67 0 106 -26t39 -81q0 -43 -29 -73q-47 -45 -147 -45q-61 0 -102 20.5t-41 57.5q0 19 17 32t42 13
t33 -34q12 -60 54 -60q50 0 50 78q0 47 -27 67q-17 11 -41 11q-55 0 -86 -40zM607 669l39 -23q-206 -309 -424 -676l-37 27q262 404 422 672zM626 381h1q50 0 90.5 -21.5t40.5 -66.5q0 -26 -22 -41q-10 -9 -43 -27q51 -22 69 -42.5t18 -52.5q0 -48 -45 -80q-47 -34 -125 -34
q-69 0 -110 24.5t-41 68.5q0 30 28 49q9 6 25 13.5t25 12.5q-62 30 -62 84q0 42 29 69q40 44 122 44zM614 352h-1q-23 0 -37.5 -12t-14.5 -31q0 -21 23 -35q32 -17 83 -36q22 17 22 49q0 30 -21.5 47.5t-53.5 17.5zM624 44h1q24 0 42 11t18 34q0 19 -24 36t-96 45
q-25 -14 -25 -49q0 -30 22.5 -53.5t61.5 -23.5z" />
    <glyph glyph-name="seveneighths" unicode="&#x215e;" horiz-adv-x="817" 
d="M84 473l-26 7q11 38 17.5 86.5t5.5 66.5q30 -8 150 -8q126 0 143 2l4 -7q-16 -58 -38 -90q-108 -158 -108 -257l-7 -6q-49 -2 -76 10q-20 8 -20 26q0 16 10 36q17 36 87.5 109.5t79.5 86.5q-24 3 -100 3q-59 0 -77.5 -3.5t-24.5 -14.5q-11 -19 -20 -47zM564 669l39 -24
q-228 -346 -425 -675l-37 27q253 386 423 672zM601 381h1q51 0 91 -21.5t40 -67.5q0 -26 -22 -41q-12 -10 -44 -27q51 -22 69 -42.5t18 -52.5q0 -47 -45 -79q-47 -34 -125 -34q-69 0 -110 24.5t-41 68.5q0 29 28 48q11 7 51 26q-62 32 -62 84q0 43 29 70q40 44 122 44z
M589 352h-1q-22 0 -37 -12.5t-15 -31.5q0 -21 23 -35q32 -17 83 -36q22 17 22 49q0 30 -21.5 48t-53.5 18zM598 44h1q24 0 42 11t18 34q0 18 -24.5 36t-95.5 45q-25 -16 -25 -50q0 -30 22.5 -53t61.5 -23z" />
    <glyph glyph-name="uni2190" unicode="&#x2190;" horiz-adv-x="666" 
d="M632 227h-485l237 -213l-37 -47l-315 288l315 288l37 -47l-237 -213h485v-56z" />
    <glyph glyph-name="uni2192" unicode="&#x2192;" horiz-adv-x="666" 
d="M32 283h486l-238 213l38 47l314 -288l-314 -288l-38 47l238 213h-486v56z" />
    <glyph glyph-name="partialdiff" unicode="&#x2202;" horiz-adv-x="519" 
d="M60 545q-6 10 2 45t19 44q11 10 45 19t82 9q46 0 92 -22t85 -62.5t63.5 -107.5t24.5 -149q0 -153 -69 -242.5t-185 -89.5q-89 0 -136 46.5t-47 125.5q0 82 54.5 136.5t144.5 54.5q73 0 106 -42h2q8 58 8 114q0 102 -31.5 149.5t-97.5 47.5q-42 0 -84.5 -23.5t-72.5 -54.5
zM231 18h1q37 0 64 76t40 178q-23 38 -64 38q-43 0 -70.5 -49t-27.5 -122q0 -121 57 -121z" />
    <glyph glyph-name="Delta" unicode="&#x2206;" horiz-adv-x="586" 
d="M552 -3q-7 0 -31 1t-60 1.5t-75 0.5h-351v30q10 28 184 537q8 21 12 53q26 0 73 6.5t66 14.5q78 -306 182 -613v-31zM247 543q-2 -6 -59.5 -189t-80.5 -266q-5 -27 17 -31q31 -7 111 -7q83 0 110 4q15 2 20 7t1 22q-13 51 -61.5 237t-57.5 223z" />
    <glyph glyph-name="product" unicode="&#x220f;" horiz-adv-x="703" 
d="M108 128v305q0 119 -1 151q-1 19 -12 24.5t-56 6.5l1 31q16 0 67.5 -1.5t71.5 -1.5h337q85 0 148 3v-31q-42 -1 -53 -6.5t-12 -22.5q-4 -66 -4 -140v-327q0 -113 4 -163q2 -15 13 -19.5t56 -6.5l-3 -31q-96 3 -152 3q-54 0 -135 -3l1 31q36 3 46 8.5t11 22.5q4 88 4 142
v470q0 19 -4.5 25t-18.5 8q-23 3 -63 3t-65 -3q-14 -2 -19.5 -8t-5.5 -25v-475q0 -88 2 -138q1 -17 11.5 -22.5t47.5 -7.5v-31q-18 0 -68.5 1.5t-81.5 1.5q-24 0 -71 -1.5t-72 -1.5v31q44 1 56.5 7t14.5 24q5 58 5 167z" />
    <glyph glyph-name="summation" unicode="&#x2211;" horiz-adv-x="550" 
d="M32 620v26q15 0 80 -1.5t90 -1.5h136q92 0 130 6q-5 -52 -1 -181l-32 -1q-11 54 -33 95q-14 25 -34 36t-71 11h-75q-21 0 -14 -15l133 -276q-83 -123 -190 -296q-9 -12 10 -15q27 -5 125 -5q79 0 109.5 6t46.5 19q30 30 48 93l31 -9q-2 -21 -18.5 -108.5t-23.5 -107.5
q-68 5 -179 5h-80q-37 0 -108 -1.5t-83 -1.5v26q88 119 200 304z" />
    <glyph glyph-name="minus" unicode="&#x2212;" horiz-adv-x="533" 
d="M52 263h429v-60h-429v60z" />
    <glyph glyph-name="uni2215" unicode="&#x2215;" horiz-adv-x="97" 
d="M240 678l39 -23q-183 -279 -428 -685l-37 27q222 338 426 681z" />
    <glyph glyph-name="uni2219" unicode="&#x2219;" horiz-adv-x="370" 
d="M185 353h1q54 0 90 -38t36 -94q0 -58 -37 -95.5t-90 -37.5t-90.5 37t-37.5 95q0 56 37.5 94.5t90.5 38.5z" />
    <glyph glyph-name="radical" unicode="&#x221a;" horiz-adv-x="557" 
d="M544 782l-203 -933h-29l-193 431l-66 -31l-12 33l154 74l95 -233q32 -79 43 -114h2q6 46 23 121l137 652h49z" />
    <glyph glyph-name="infinity" unicode="&#x221e;" horiz-adv-x="693" 
d="M507 90h-1q-34 0 -64.5 15t-47.5 31.5t-47 50.5q-24 -26 -35.5 -37t-33.5 -28.5t-45 -24.5t-51 -7q-59 0 -96.5 37.5t-37.5 103.5q0 59 40.5 100.5t100.5 41.5q20 0 38.5 -5t29.5 -9t27.5 -18.5t21 -19t23 -25t20.5 -23.5q29 33 47.5 50.5t50.5 33.5t68 16
q57 0 93.5 -39.5t36.5 -101.5q0 -57 -41 -99.5t-97 -42.5zM191 149h1q23 0 45.5 13t36 26.5t34.5 38.5q-4 4 -20 23.5t-23 26t-20.5 18.5t-26.5 16.5t-27 4.5q-37 0 -59 -24t-22 -61q0 -38 23 -60t58 -22zM505 149h1q35 0 56 23t21 60q0 38 -20.5 61t-55.5 23
q-23 0 -47.5 -14.5t-38 -28.5t-35.5 -39q27 -32 38 -43.5t34.5 -26.5t46.5 -15z" />
    <glyph glyph-name="integral" unicode="&#x222b;" horiz-adv-x="363" 
d="M353 733v-1q0 -44 -46 -44q-16 0 -26.5 8t-15 17.5t-11.5 17.5t-18 8q-34 0 -30 -105q2 -44 15 -235.5t15 -275.5q1 -66 -7 -122.5t-26.5 -104.5t-52.5 -75.5t-81 -27.5q-32 0 -51 14t-19 39q0 21 14 35t38 14q21 0 32 -12.5t19.5 -24.5t23.5 -12q18 0 24.5 30t4.5 102
q-2 68 -13.5 225.5t-13.5 208.5q-18 373 158 373q30 0 48.5 -15t18.5 -37z" />
    <glyph glyph-name="approxequal" unicode="&#x2248;" horiz-adv-x="527" 
d="M422 387l52 -24q-16 -55 -44.5 -81t-76.5 -26q-39 0 -111 39q-48 25 -73 25q-47 0 -70 -60l-50 28q33 96 122 96q36 0 107 -37q52 -27 76 -27q50 0 68 67zM422 213l52 -24q-16 -54 -44.5 -80t-77.5 -26q-37 0 -110 38q-48 26 -73 26q-47 0 -70 -60l-50 27q33 97 123 97
q37 0 107 -38q50 -26 76 -26q49 0 67 66z" />
    <glyph glyph-name="notequal" unicode="&#x2260;" horiz-adv-x="533" 
d="M53 355h238q31 68 48 106l51 -24l-37 -82h128v-60h-154l-56 -124h210v-60h-236q-14 -31 -46 -103q-23 11 -51 23l35 80h-130v60h157l55 124h-212v60z" />
    <glyph glyph-name="lessequal" unicode="&#x2264;" horiz-adv-x="513" 
d="M70 271v70l374 179v-72l-309 -141v-3l309 -141v-72zM70 60h374v-60h-374v60z" />
    <glyph glyph-name="greaterequal" unicode="&#x2265;" horiz-adv-x="513" 
d="M444 341v-71l-375 -179v72l309 141v3l-309 141v72zM69 60h375v-60h-375v60z" />
    <glyph glyph-name="blacksquare" unicode="&#x25a0;" horiz-adv-x="416" 
d="M63 403h291v-298h-291v298z" />
    <glyph glyph-name="blackrightpointingtriangle" unicode="&#x25b6;" horiz-adv-x="621" 
d="M77 20v74.5t0.5 164.5t0.5 164.5v74.5h1l499 -236v-2l-499 -242z" />
    <glyph glyph-name="whiterightpointingtriangle" unicode="&#x25b7;" horiz-adv-x="621" 
d="M133 411l1 -304l320 155zM77 21v74.5t0.5 164.5t0.5 164.5v74.5h1l498 -236v-2l-498 -242z" />
    <glyph glyph-name="blackleftpointingtriangle" unicode="&#x25c0;" horiz-adv-x="621" 
d="M544 496q-2 -478 0 -478h-2l-499 236v2l499 242z" />
    <glyph glyph-name="whiteleftpointingtriangle" unicode="&#x25c1;" horiz-adv-x="621" 
d="M488 107v304l-320 -154zM544 497q-2 -478 0 -478h-2l-498 236v2l498 242z" />
    <glyph glyph-name="blackdiamond" unicode="&#x25c6;" horiz-adv-x="480" 
d="M36 257l202 204l206 -210l-201 -204z" />
    <glyph glyph-name="fisheye" unicode="&#x25c9;" horiz-adv-x="464" 
d="M232 457h1q78 0 132 -56t54 -136q0 -79 -54 -135t-133 -56t-133.5 55.5t-54.5 135.5t54.5 136t133.5 56zM232 405h-1q-55 0 -91 -41t-36 -99q0 -57 36.5 -98t91.5 -41t91 41t36 98q0 58 -36 99t-91 41zM232 341h-1q-30 0 -49.5 -22.5t-19.5 -53.5t20 -53.5t50 -22.5
t49.5 22.5t19.5 53.5t-19.5 53.5t-49.5 22.5z" />
    <glyph glyph-name="lozenge" unicode="&#x25ca;" horiz-adv-x="546" 
d="M496 300l-195 -341h-66l-185 336l184 345h72zM420 294l-150 290h-2l-143 -284l144 -281h2z" />
    <glyph glyph-name="uni2610" unicode="&#x2610;" horiz-adv-x="858" 
d="M137 657h626v-636l-57 -55h-623v640zM127 586v-575h560v575h-560z" />
    <glyph glyph-name="uni2611" unicode="&#x2611;" horiz-adv-x="858" 
d="M137 657h626v-636l-57 -55h-623v640zM127 586v-575h560v575h-560zM528 509q11 14 44.5 27t60.5 16l3 -4q-30 -32 -59.5 -74t-65 -105t-54 -96.5t-61 -116.5t-50.5 -99h-6q-21 18 -76 115t-55 118q5 11 27 30t34 22l1 1q6 -30 33 -100t45 -105q116 285 179 371z" />
    <glyph glyph-name="A.sc" unicode="&#xe000;" horiz-adv-x="557" 
d="M562 28v-31q-141 3 -145 3q-31 0 -80.5 -1.5t-64.5 -1.5l-1 31q37 4 45 10.5t5 22.5q-5 19 -16 60.5t-14 51.5q-36 2 -73 2q-41 0 -71 -2q-25 -81 -28 -108q-2 -18 11.5 -25.5t58.5 -11.5l1 -31q-16 0 -50 1.5t-52 1.5q-14 0 -48 -1.5t-51 -1.5v31q38 4 52 13t27 39
q27 63 122 353q10 31 14 57q29 -2 76.5 2.5t68.5 14.5q98 -342 142 -452q9 -20 39 -24zM223 423q-8 -28 -33 -109.5t-31 -100.5q32 -2 61 -2q26 0 60 2q-9 35 -29.5 110t-27.5 100z" />
    <glyph glyph-name="AE.sc" unicode="&#xe001;" horiz-adv-x="771" 
d="M400 493h172q77 0 133 7q-5 -33 -3 -167l-31 -3q-12 57 -24 82q-13 27 -38 36t-85 9h-23q-13 0 -15 -12q-3 -35 -3 -122v-65h43q33 0 49 16.5t23 57.5h30q-10 -108 -3 -200h-31q-8 48 -22 68.5t-51 20.5h-38v-36q0 -75 2 -131q2 -11 10 -15t33 -4q57 0 85.5 6.5
t45.5 26.5q34 39 56 116l30 -5q0 -1 -22 -184q-120 5 -196 5h-124q-6 0 -31.5 -0.5t-41.5 -0.5q-56 -2 -76 -2v31l46 5q26 3 27 21q4 56 4 141v26q-102 0 -140 -2q-58 -115 -76 -155q-5 -13 1 -20t27 -10l47 -6l-1 -31q-24 0 -58 1.5t-51 1.5q-16 0 -49 -1.5t-52 -1.5v31
q38 4 54 13.5t37 44.5q62 102 196 359q7 14 -8 16l-73 5l-1 31q13 0 97 -2t119 -2zM331 258v199h-15q-13 -22 -31 -56.5t-40.5 -80.5t-30.5 -62h29.5h48h39.5z" />
    <glyph glyph-name="Aacute.sc" unicode="&#xe002;" horiz-adv-x="557" 
d="M562 28v-31q-141 3 -145 3q-31 0 -80.5 -1.5t-64.5 -1.5l-1 31q37 4 45 10.5t5 22.5q-5 19 -16 60.5t-14 51.5q-36 2 -73 2q-41 0 -71 -2q-25 -81 -28 -108q-2 -18 11.5 -25.5t58.5 -11.5l1 -31q-16 0 -50 1.5t-52 1.5q-14 0 -48 -1.5t-51 -1.5v31q38 4 52 13t27 39
q27 63 122 353q10 31 14 57q29 -2 76.5 2.5t68.5 14.5q98 -342 142 -452q9 -20 39 -24zM223 423q-8 -28 -33 -109.5t-31 -100.5q32 -2 61 -2q26 0 60 2q-9 35 -29.5 110t-27.5 100zM248 548l-18 20q11 13 59 72t58 70q30 31 60 31q18 0 29 -10.5t11 -29.5t-14 -38t-33 -29
q-10 -7 -152 -86z" />
    <glyph glyph-name="Acircumflex.sc" unicode="&#xe003;" horiz-adv-x="557" 
d="M562 28v-31q-141 3 -145 3q-31 0 -80.5 -1.5t-64.5 -1.5l-1 31q37 4 45 10.5t5 22.5q-5 19 -16 60.5t-14 51.5q-36 2 -73 2q-41 0 -71 -2q-25 -81 -28 -108q-2 -18 11.5 -25.5t58.5 -11.5l1 -31q-16 0 -50 1.5t-52 1.5q-14 0 -48 -1.5t-51 -1.5v31q38 4 52 13t27 39
q27 63 122 353q10 31 14 57q29 -2 76.5 2.5t68.5 14.5q98 -342 142 -452q9 -20 39 -24zM223 423q-8 -28 -33 -109.5t-31 -100.5q32 -2 61 -2q26 0 60 2q-9 35 -29.5 110t-27.5 100zM265 742l28 5q35 -78 122 -182l-23 -20q-68 46 -114 92q-46 -47 -114 -92l-22 20
q84 95 123 177z" />
    <glyph glyph-name="Adieresis.sc" unicode="&#xe004;" horiz-adv-x="557" 
d="M562 28v-31q-141 3 -145 3q-31 0 -80.5 -1.5t-64.5 -1.5l-1 31q37 4 45 10.5t5 22.5q-5 19 -16 60.5t-14 51.5q-36 2 -73 2q-41 0 -71 -2q-25 -81 -28 -108q-2 -18 11.5 -25.5t58.5 -11.5l1 -31q-16 0 -50 1.5t-52 1.5q-14 0 -48 -1.5t-51 -1.5v31q38 4 52 13t27 39
q27 63 122 353q10 31 14 57q29 -2 76.5 2.5t68.5 14.5q98 -342 142 -452q9 -20 39 -24zM223 423q-8 -28 -33 -109.5t-31 -100.5q32 -2 61 -2q26 0 60 2q-9 35 -29.5 110t-27.5 100zM184 702h1q28 0 45 -18.5t17 -48.5q0 -33 -20.5 -52.5t-45.5 -19.5q-26 0 -44.5 16.5
t-18.5 50.5q0 32 18 52t48 20zM381 702h1q28 0 45 -18.5t17 -48.5q0 -33 -20.5 -52.5t-45.5 -19.5q-26 0 -44.5 16.5t-18.5 50.5q0 32 18 52t48 20z" />
    <glyph glyph-name="Agrave.sc" unicode="&#xe005;" horiz-adv-x="557" 
d="M562 28v-31q-141 3 -145 3q-31 0 -80.5 -1.5t-64.5 -1.5l-1 31q37 4 45 10.5t5 22.5q-5 19 -16 60.5t-14 51.5q-36 2 -73 2q-41 0 -71 -2q-25 -81 -28 -108q-2 -18 11.5 -25.5t58.5 -11.5l1 -31q-16 0 -50 1.5t-52 1.5q-14 0 -48 -1.5t-51 -1.5v31q38 4 52 13t27 39
q27 63 122 353q10 31 14 57q29 -2 76.5 2.5t68.5 14.5q98 -342 142 -452q9 -20 39 -24zM223 423q-8 -28 -33 -109.5t-31 -100.5q32 -2 61 -2q26 0 60 2q-9 35 -29.5 110t-27.5 100zM300 548q-103 60 -144 89q-38 27 -38 61q0 21 12.5 33t31.5 12q32 0 57 -32
q11 -14 50.5 -72.5t48.5 -70.5z" />
    <glyph glyph-name="Aring.sc" unicode="&#xe006;" horiz-adv-x="557" 
d="M562 28v-31q-141 3 -145 3q-31 0 -80.5 -1.5t-64.5 -1.5l-1 31q37 4 45 10.5t5 22.5q-5 19 -16 60.5t-14 51.5q-36 2 -73 2q-41 0 -71 -2q-25 -81 -28 -108q-2 -18 11.5 -25.5t58.5 -11.5l1 -31q-16 0 -50 1.5t-52 1.5q-14 0 -48 -1.5t-51 -1.5v31q38 4 52 13t27 39
q27 63 122 353q10 31 14 57q29 -2 76.5 2.5t68.5 14.5q98 -342 142 -452q9 -20 39 -24zM223 423q-8 -28 -33 -109.5t-31 -100.5q32 -2 61 -2q26 0 60 2q-9 35 -29.5 110t-27.5 100zM282 745h1q44 0 71.5 -24.5t27.5 -70.5q0 -48 -30 -74.5t-76 -26.5q-45 0 -74 24.5
t-29 70.5q0 48 30 74.5t79 26.5zM278 714h-1q-38 0 -38 -66q0 -68 39 -68t39 70q0 64 -39 64z" />
    <glyph glyph-name="Atilde.sc" unicode="&#xe007;" horiz-adv-x="557" 
d="M562 28v-31q-141 3 -145 3q-31 0 -80.5 -1.5t-64.5 -1.5l-1 31q37 4 45 10.5t5 22.5q-5 19 -16 60.5t-14 51.5q-36 2 -73 2q-41 0 -71 -2q-25 -81 -28 -108q-2 -18 11.5 -25.5t58.5 -11.5l1 -31q-16 0 -50 1.5t-52 1.5q-14 0 -48 -1.5t-51 -1.5v31q38 4 52 13t27 39
q27 63 122 353q10 31 14 57q29 -2 76.5 2.5t68.5 14.5q98 -342 142 -452q9 -20 39 -24zM223 423q-8 -28 -33 -109.5t-31 -100.5q32 -2 61 -2q26 0 60 2q-9 35 -29.5 110t-27.5 100zM177 561l-36 5q2 57 23.5 95.5t65.5 38.5q29 0 71 -34q36 -28 50 -28q28 0 32 65l35 -7
q-2 -59 -22.5 -96.5t-61.5 -37.5q-31 0 -76 38q-31 25 -44 25q-14 0 -24.5 -17t-12.5 -47z" />
    <glyph glyph-name="B.sc" unicode="&#xe008;" horiz-adv-x="589" 
d="M22 -3l-1 31q43 1 56 6t14 17q3 29 3 145v132q0 91 -2 115q-1 11 -13.5 16t-51.5 6v32q13 0 63 -2t74 -2q30 0 96 2t82 2q64 0 95 -7t54 -24q33 -26 33 -79q0 -67 -60 -94q-40 -18 -98 -24v-6q98 -4 143 -30q46 -28 46 -91q0 -69 -54 -104q-57 -40 -196 -40q-25 0 -79 1
t-73 1q-20 0 -69 -1.5t-62 -1.5zM246 344v-65q8 -1 39 -1q43 0 63.5 23t20.5 73q0 39 -16 60q-19 28 -73 28q-31 0 -32 -15q-2 -44 -2 -103zM246 243v-96q0 -75 2 -95t40 -20q58 0 84 33q20 26 20 76q0 55 -26 79q-28 24 -81 24q-32 0 -39 -1z" />
    <glyph glyph-name="C.sc" unicode="&#xe009;" horiz-adv-x="567" 
d="M516 302l-31 -1q-8 74 -42 122q-37 49 -98 49q-57 0 -90 -43q-45 -58 -45 -178q0 -113 45 -165q39 -48 107 -48q52 0 87.5 29t60.5 88l29 -17q-28 -79 -82.5 -116.5t-147.5 -37.5q-144 0 -212 75q-59 66 -59 182q0 131 87 204q73 64 198 64q105 0 153 -46l17 48l30 -4
q-10 -83 -7 -205z" />
    <glyph glyph-name="Ccedilla.sc" unicode="&#xe00a;" horiz-adv-x="565" 
d="M339 -14q-14 -22 -21 -34q77 -16 77 -81q0 -40 -28 -65.5t-75 -25.5q-39 0 -69 20l11 31q21 -12 48 -12q40 0 40 32q0 17 -18 27.5t-49 9.5l-6 13q24 35 55 84h-12q-133 5 -196 75q-58 64 -58 181q0 130 86 205q74 62 199 62q105 0 153 -46l17 48l30 -3q-10 -83 -7 -205
l-31 -1q-8 76 -42 121q-37 50 -98 50q-55 0 -90 -43q-45 -58 -45 -179q0 -111 45 -165q41 -47 107 -47q99 0 149 116l28 -16q-26 -73 -73 -110t-127 -42z" />
    <glyph glyph-name="D.sc" unicode="&#xe00b;" horiz-adv-x="633" 
d="M96 194v139q0 89 -1 105q-1 20 -18 22l-49 5l1 32q8 0 57 -2t74 -2q34 0 86 2t72 2q119 0 182 -36q43 -25 69 -78t26 -125q0 -83 -36.5 -147.5t-117.5 -92.5q-57 -20 -151 -20q-23 0 -67 1t-64 1q-37 0 -85.5 -1.5t-53.5 -1.5l1 31l41 3q29 4 30 21q4 32 4 142zM248 324
v-134q0 -121 2 -139q2 -19 32 -19q77 0 112 47q39 54 39 177q0 115 -37 162q-33 44 -113 44q-13 0 -20 -2.5t-9 -5.5t-3 -8q-3 -39 -3 -122z" />
    <glyph glyph-name="E.sc" unicode="&#xe00c;" horiz-adv-x="537" 
d="M26 466v31q11 0 57 -2q48 -2 87 -2h167q85 0 134 9q-6 -50 -4 -165l-30 -3q-12 51 -24 75q-13 29 -37.5 39t-82.5 10h-25q-17 0 -17 -13q-3 -36 -3 -113v-60h39q33 0 48.5 16.5t22.5 60.5h30q-9 -113 -2 -201h-31q-7 44 -21.5 65.5t-49.5 21.5q-32 0 -36 -1v-52
q0 -99 2 -129q1 -10 9 -14t33 -4q59 0 88 6.5t46 26.5q30 33 55 109l29 -5q-1 -25 -10.5 -90t-13.5 -87q-75 5 -195 5h-123q-12 0 -38.5 -0.5t-40.5 -0.5q-54 -2 -69 -2l1 31l44 4q26 3 27 23q4 35 4 140v140q0 76 -2 105q0 21 -24 22z" />
    <glyph glyph-name="Eacute.sc" unicode="&#xe00d;" horiz-adv-x="537" 
d="M26 466v31q11 0 57 -2q48 -2 87 -2h167q85 0 134 9q-6 -50 -4 -165l-30 -3q-12 51 -24 75q-13 29 -37.5 39t-82.5 10h-25q-17 0 -17 -13q-3 -36 -3 -113v-60h39q33 0 48.5 16.5t22.5 60.5h30q-9 -113 -2 -201h-31q-7 44 -21.5 65.5t-49.5 21.5q-32 0 -36 -1v-52
q0 -99 2 -129q1 -10 9 -14t33 -4q59 0 88 6.5t46 26.5q30 33 55 109l29 -5q-1 -25 -10.5 -90t-13.5 -87q-75 5 -195 5h-123q-12 0 -38.5 -0.5t-40.5 -0.5q-54 -2 -69 -2l1 31l44 4q26 3 27 23q4 35 4 140v140q0 76 -2 105q0 21 -24 22zM239 548l-18 20q11 13 59 72t58 70
q30 31 60 31q18 0 29 -10.5t11 -29.5t-14 -38t-33 -29q-10 -7 -152 -86z" />
    <glyph glyph-name="Ecircumflex.sc" unicode="&#xe00e;" horiz-adv-x="537" 
d="M26 466v31q11 0 57 -2q48 -2 87 -2h167q85 0 134 9q-6 -50 -4 -165l-30 -3q-12 51 -24 75q-13 29 -37.5 39t-82.5 10h-25q-17 0 -17 -13q-3 -36 -3 -113v-60h39q33 0 48.5 16.5t22.5 60.5h30q-9 -113 -2 -201h-31q-7 44 -21.5 65.5t-49.5 21.5q-32 0 -36 -1v-52
q0 -99 2 -129q1 -10 9 -14t33 -4q59 0 88 6.5t46 26.5q30 33 55 109l29 -5q-1 -25 -10.5 -90t-13.5 -87q-75 5 -195 5h-123q-12 0 -38.5 -0.5t-40.5 -0.5q-54 -2 -69 -2l1 31l44 4q26 3 27 23q4 35 4 140v140q0 76 -2 105q0 21 -24 22zM262 742l28 5q35 -78 122 -182
l-23 -20q-68 46 -114 92q-46 -47 -114 -92l-22 20q84 95 123 177z" />
    <glyph glyph-name="Edieresis.sc" unicode="&#xe00f;" horiz-adv-x="537" 
d="M26 466v31q11 0 57 -2q48 -2 87 -2h167q85 0 134 9q-6 -50 -4 -165l-30 -3q-12 51 -24 75q-13 29 -37.5 39t-82.5 10h-25q-17 0 -17 -13q-3 -36 -3 -113v-60h39q33 0 48.5 16.5t22.5 60.5h30q-9 -113 -2 -201h-31q-7 44 -21.5 65.5t-49.5 21.5q-32 0 -36 -1v-52
q0 -99 2 -129q1 -10 9 -14t33 -4q59 0 88 6.5t46 26.5q30 33 55 109l29 -5q-1 -25 -10.5 -90t-13.5 -87q-75 5 -195 5h-123q-12 0 -38.5 -0.5t-40.5 -0.5q-54 -2 -69 -2l1 31l44 4q26 3 27 23q4 35 4 140v140q0 76 -2 105q0 21 -24 22zM179 700h1q28 0 45 -18.5t17 -48.5
q0 -33 -20.5 -52.5t-45.5 -19.5q-26 0 -44.5 16.5t-18.5 50.5q0 32 18 52t48 20zM376 700h1q28 0 45 -18.5t17 -48.5q0 -33 -20.5 -52.5t-45.5 -19.5q-26 0 -44.5 16.5t-18.5 50.5q0 32 18 52t48 20z" />
    <glyph glyph-name="Egrave.sc" unicode="&#xe010;" horiz-adv-x="537" 
d="M26 466v31q11 0 57 -2q48 -2 87 -2h167q85 0 134 9q-6 -50 -4 -165l-30 -3q-12 51 -24 75q-13 29 -37.5 39t-82.5 10h-25q-17 0 -17 -13q-3 -36 -3 -113v-60h39q33 0 48.5 16.5t22.5 60.5h30q-9 -113 -2 -201h-31q-7 44 -21.5 65.5t-49.5 21.5q-32 0 -36 -1v-52
q0 -99 2 -129q1 -10 9 -14t33 -4q59 0 88 6.5t46 26.5q30 33 55 109l29 -5q-1 -25 -10.5 -90t-13.5 -87q-75 5 -195 5h-123q-12 0 -38.5 -0.5t-40.5 -0.5q-54 -2 -69 -2l1 31l44 4q26 3 27 23q4 35 4 140v140q0 76 -2 105q0 21 -24 22zM297 548q-103 60 -144 89
q-38 27 -38 61q0 21 12.5 33t31.5 12q32 0 57 -32q11 -14 50.5 -72.5t48.5 -70.5z" />
    <glyph glyph-name="Eth.sc" unicode="&#xe011;" horiz-adv-x="644" 
d="M34 238l2 43q4 0 29 -1t42 -1v49q0 95 -1 112q0 17 -18 20l-51 5l1 32q10 0 58.5 -2t70.5 -2q30 0 81.5 2t74.5 2q128 0 186 -34q97 -56 97 -204q0 -85 -37.5 -149t-118.5 -92q-59 -20 -148 -20q-22 0 -66.5 1t-65.5 1q-40 0 -87 -1.5t-53 -1.5l2 31l42 3q28 4 29 21
q4 32 4 148v41q-40 0 -73 -3zM364 281l-5 -43h-17.5t-37 0.5t-45.5 0.5v-45q0 -107 2 -145q2 -16 31 -16q78 0 114 46q39 52 39 175q0 118 -37 165q-18 23 -43 33t-71 10q-30 0 -32 -15q-3 -39 -3 -131v-37q51 0 105 2z" />
    <glyph glyph-name="Euro.fitted" unicode="&#xe012;" horiz-adv-x="518" 
d="M233 375l200 1l-10 -39l-192 1q-1 -16 -1 -49l178 1l-9 -39l-167 1q8 -212 119 -212q41 0 70 24t50 82l28 -14q-26 -80 -69 -113t-122 -33q-212 0 -232 266h-61l9 37h51q0 33 2 49h-41l10 37h34q7 46 23 86.5t44 78.5t76 60.5t110 22.5q81 0 120 -31t39 -73
q0 -31 -17.5 -47.5t-44.5 -16.5q-18 0 -29 9q-12 12 -8 24q4 26 4 39q0 33 -17 48.5t-45 15.5q-86 0 -102 -216z" />
    <glyph glyph-name="Euro.oldstyle" unicode="&#xe013;" horiz-adv-x="520" 
d="M231 332l196 1l-10 -37l-188 1q-1 -14 -1 -46h175l-10 -36l-163 1q8 -177 118 -177q84 0 121 107l28 -17q-25 -74 -69.5 -108.5t-122.5 -34.5q-63 0 -109 21t-70 57.5t-35.5 73t-14.5 78.5h-61l10 35h50q0 32 2 46h-40l10 35h33q7 39 22.5 73.5t43 68t75 53t109.5 19.5
q83 0 122.5 -31.5t39.5 -69.5q0 -29 -18.5 -45t-43.5 -16q-20 0 -31 10q-11 9 -8 21q4 22 4 39q0 31 -17.5 46.5t-44.5 15.5q-86 0 -102 -184z" />
    <glyph glyph-name="F.sc" unicode="&#xe014;" horiz-adv-x="509" 
d="M27 465l-2 32q11 0 68 -2t85 -2h134q98 0 165 8q-3 -37 -3 -171h-31q-11 55 -28 86q-12 23 -35 32.5t-80 9.5h-33q-14 0 -16 -11q-3 -21 -3 -118v-69q8 -1 43 -1q41 0 58.5 16t23.5 61l30 -2q-4 -47 -3.5 -111.5t3.5 -89.5h-30q-4 25 -8.5 38.5t-13 27.5t-23.5 19.5
t-38 5.5q-9 0 -23.5 -0.5t-18.5 -0.5v-70q0 -81 2 -97q0 -20 20 -21q42 -7 64 -7l-2 -31q-13 0 -72.5 2t-90.5 2q-27 0 -78.5 -2t-66.5 -2l-1 31l44 5q22 3 25 21q4 36 4 136v136q0 28 -0.5 54.5t-1 43t-0.5 18.5q-1 17 -20 19z" />
    <glyph glyph-name="G.sc" unicode="&#xe015;" horiz-adv-x="608" 
d="M519 301l-31 -1q-9 80 -48.5 126.5t-97.5 46.5q-63 0 -97 -52q-40 -62 -40 -175q0 -109 32 -165q36 -62 99 -62q45 0 50 34q1 12 1 113q0 27 -8.5 35t-37.5 11l-35 2v33q90 -3 138 -3q82 0 133 4l1 -32q-26 -3 -34.5 -8t-9.5 -18q-4 -36 -2 -84q0 -41 6 -79
q-9 -2 -22 -5.5t-31.5 -9t-30.5 -8.5q-72 -20 -137 -20q-154 0 -221 75q-58 66 -58 184q0 69 28 125.5t79 91.5q72 48 184 48q106 0 157 -45l18 47l27 -11q-15 -81 -12 -198z" />
    <glyph glyph-name="H.sc" unicode="&#xe016;" horiz-adv-x="653" 
d="M96 195v123q0 99 -1 122q-1 15 -12.5 20t-51.5 6v31q13 0 62 -2t73 -2q22 0 66 2t72 2l-1 -31q-32 -2 -42 -7t-11 -20q-2 -42 -2 -104v-57q38 -2 84 -2q49 0 73 2v68q0 22 -0.5 56t-0.5 42q-1 12 -11.5 16t-42.5 6l2 31q10 0 57 -2t71 -2q28 0 79 2t62 2v-31
q-40 -2 -50.5 -7.5t-11.5 -22.5q-2 -44 -2 -114v-136q0 -101 4 -135q1 -12 13 -17t52 -6l-4 -31q-126 3 -140 3q-78 0 -134 -3l1 31q34 3 43.5 9t10.5 21q2 64 2 117v63q-30 2 -75 2q-44 0 -82 -2v-73q0 -93 2 -112q1 -12 11.5 -17.5t41.5 -7.5v-31q-9 0 -56 1.5t-81 1.5
q-24 0 -71 -1.5t-68 -1.5v31q40 1 52.5 6.5t13.5 20.5q3 54 3 140z" />
    <glyph glyph-name="I.sc" unicode="&#xe017;" horiz-adv-x="344" 
d="M96 166v165q0 93 -1 111q0 13 -11 17.5t-52 6.5l1 31q9 0 56.5 -2t78.5 -2q38 0 85 2t57 2v-31q-38 -2 -48 -7t-11 -18q-3 -57 -3 -108v-167q0 -94 3 -113q2 -14 12 -18t52 -7l-2 -31q-13 0 -65 1.5t-82 1.5q-29 0 -77.5 -1.5t-60.5 -1.5v31q42 3 52.5 7.5t12.5 17.5
q3 27 3 113z" />
    <glyph glyph-name="Iacute.sc" unicode="&#xe018;" horiz-adv-x="344" 
d="M96 166v165q0 93 -1 111q0 13 -11 17.5t-52 6.5l1 31q9 0 56.5 -2t78.5 -2q38 0 85 2t57 2v-31q-38 -2 -48 -7t-11 -18q-3 -57 -3 -108v-167q0 -94 3 -113q2 -14 12 -18t52 -7l-2 -31q-13 0 -65 1.5t-82 1.5q-29 0 -77.5 -1.5t-60.5 -1.5v31q42 3 52.5 7.5t12.5 17.5
q3 27 3 113zM142 548l-18 20q11 13 59 72t58 70q30 31 60 31q18 0 29 -10.5t11 -29.5t-14 -38t-33 -29q-10 -7 -152 -86z" />
    <glyph glyph-name="Icircumflex.sc" unicode="&#xe019;" horiz-adv-x="344" 
d="M96 166v165q0 93 -1 111q0 13 -11 17.5t-52 6.5l1 31q9 0 56.5 -2t78.5 -2q38 0 85 2t57 2v-31q-38 -2 -48 -7t-11 -18q-3 -57 -3 -108v-167q0 -94 3 -113q2 -14 12 -18t52 -7l-2 -31q-13 0 -65 1.5t-82 1.5q-29 0 -77.5 -1.5t-60.5 -1.5v31q42 3 52.5 7.5t12.5 17.5
q3 27 3 113zM155 742l28 5q35 -78 122 -182l-23 -20q-68 46 -114 92q-46 -47 -114 -92l-22 20q84 95 123 177z" />
    <glyph glyph-name="Idieresis.sc" unicode="&#xe01a;" horiz-adv-x="344" 
d="M96 166v165q0 93 -1 111q0 13 -11 17.5t-52 6.5l1 31q9 0 56.5 -2t78.5 -2q38 0 85 2t57 2v-31q-38 -2 -48 -7t-11 -18q-3 -57 -3 -108v-167q0 -94 3 -113q2 -14 12 -18t52 -7l-2 -31q-13 0 -65 1.5t-82 1.5q-29 0 -77.5 -1.5t-60.5 -1.5v31q42 3 52.5 7.5t12.5 17.5
q3 27 3 113zM76 700h1q28 0 45 -18.5t17 -48.5q0 -33 -20.5 -52.5t-45.5 -19.5q-26 0 -44.5 16.5t-18.5 50.5q0 32 18 52t48 20zM273 700h1q28 0 45 -18.5t17 -48.5q0 -33 -20.5 -52.5t-45.5 -19.5q-26 0 -44.5 16.5t-18.5 50.5q0 32 18 52t48 20z" />
    <glyph glyph-name="Igrave.sc" unicode="&#xe01b;" horiz-adv-x="344" 
d="M96 166v165q0 93 -1 111q0 13 -11 17.5t-52 6.5l1 31q9 0 56.5 -2t78.5 -2q38 0 85 2t57 2v-31q-38 -2 -48 -7t-11 -18q-3 -57 -3 -108v-167q0 -94 3 -113q2 -14 12 -18t52 -7l-2 -31q-13 0 -65 1.5t-82 1.5q-29 0 -77.5 -1.5t-60.5 -1.5v31q42 3 52.5 7.5t12.5 17.5
q3 27 3 113zM192 548q-103 60 -144 89q-38 27 -38 61q0 21 12.5 33t31.5 12q32 0 57 -32q11 -14 50.5 -72.5t48.5 -70.5z" />
    <glyph glyph-name="J.sc" unicode="&#xe01c;" horiz-adv-x="331" 
d="M23 466l4 31q14 0 61.5 -2t75.5 -2q30 0 83.5 2t61.5 2l-1 -31l-32 -4q-15 -1 -19.5 -6t-6.5 -16q-3 -54 -3 -295q0 -59 -8 -112q-13 -78 -53 -127q-36 -43 -87 -69.5t-99 -26.5q-33 0 -53 14t-20 31q0 21 17 39.5t33 18.5q15 0 27 -17q28 -38 53 -38q28 0 32 68
q7 104 6 242v159q0 90 -2 111q-1 21 -21 23q-32 4 -49 5z" />
    <glyph glyph-name="K.sc" unicode="&#xe01d;" horiz-adv-x="620" 
d="M96 170v135q0 111 -1 135q-1 15 -11 19.5t-51 6.5l2 31q9 0 58.5 -2t78.5 -2q32 0 80 2t57 2l1 -31q-39 -2 -48.5 -6.5t-10.5 -17.5q-3 -30 -3 -132v-50q47 13 107.5 74.5t86.5 105.5q8 15 -8 18l-58 7l5 30q9 0 47 -0.5t61 -0.5q17 0 35.5 0.5t41.5 1.5t36 1l2 -31
q-64 -4 -91 -24q-46 -37 -130 -129q30 -56 89.5 -146.5t83.5 -117.5q9 -10 21.5 -13.5t52.5 -6.5l-4 -31q-71 3 -131 1q-35 -2 -55 -3q-29 -2 -42 -4q-4 11 -27.5 52t-55 95.5t-42.5 73.5q-15 24 -25 24v-54q0 -93 2 -131q2 -12 12.5 -16.5t50.5 -7.5v-31q-12 0 -59 1.5
t-81 1.5q-30 0 -83 -1.5t-64 -1.5l1 31q43 4 54 8.5t12 15.5q3 48 3 118z" />
    <glyph glyph-name="L.sc" unicode="&#xe01e;" horiz-adv-x="509" 
d="M456 193l31 -6q-1 -5 -22 -192q-48 4 -116 4q-51 1 -171 1q-14 0 -45 -0.5t-46 -0.5q-60 -2 -69 -2v31l48 5q25 3 26 22q4 46 4 144v137q0 36 -0.5 68.5t-0.5 34.5q-2 20 -21 21l-44 5l1 31q10 0 59.5 -1.5t84.5 -1.5q26 0 74.5 1.5t73.5 1.5l2 -31l-52 -5
q-11 -2 -15.5 -6.5t-5.5 -15.5q-4 -52 -4 -138v-103q0 -123 2 -144q0 -18 32 -18q52 0 77 7.5t42 26.5q34 40 55 124z" />
    <glyph glyph-name="Lslash.sc" unicode="&#xe01f;" horiz-adv-x="520" 
d="M44 463v32q10 0 61.5 -1.5t86.5 -1.5q25 0 71 1.5t72 1.5l2 -32l-53 -4q-19 -1 -20 -20q-3 -38 -3 -137l90 45l17 -36q-8 -3 -25.5 -11t-41.5 -19.5t-40 -18.5v-62q0 -129 1 -148q1 -9 7 -13t24 -4q54 0 79 8t42 28q34 37 53 117l32 -6q-6 -31 -13 -108t-7 -78
q-36 3 -120 3q-52 1 -166 1q-13 0 -44 -0.5t-47 -0.5q-60 -2 -71 -2v32l49 4q24 3 25 18q2 19 4 141q-14 -6 -62 -30l-17 35q3 1 79 35v110q0 68 -2 100q-1 16 -20 17z" />
    <glyph glyph-name="M.sc" unicode="&#xe020;" horiz-adv-x="752" 
d="M375 10l-76 -12q-17 55 -160 445h-2q0 -163 6 -343q2 -39 9 -51.5t34 -16.5l41 -4v-31q-15 0 -52 1.5t-63 1.5q-27 0 -59.5 -1.5t-39.5 -1.5v31q17 1 39 5q18 2 27 16t11 48q14 205 11 338q0 3 -0.5 6.5t-0.5 5.5q-4 13 -21 14l-50 4l1 32q49 -1 89 -3q11 0 30.5 -0.5
t29.5 -0.5q69 0 92 3q8 -24 53.5 -133.5t63.5 -157.5q77 199 101 291q24 -3 84 -3q29 0 82 2t64 2l4 -31q-12 -1 -29.5 -3.5t-23.5 -2.5q-12 0 -14 -19q-1 -13 -1 -91q0 -248 5 -294q2 -21 24 -24l44 -4l-1 -31q-5 0 -54 1.5t-89 1.5q-17 0 -40.5 -0.5t-54 -1.5t-47.5 -1
l2 31q36 3 46 8.5t11 20.5q8 131 11 389h-3q-58 -181 -134 -436z" />
    <glyph glyph-name="N.sc" unicode="&#xe021;" horiz-adv-x="603" 
d="M20 466v31q15 0 54.5 -1.5t64.5 -1.5q79 0 117 3q14 -24 42 -64q118 -175 182 -263q0 193 -9 259q-2 18 -13 25.5t-35 9.5l-36 2l3 31q19 0 52.5 -2t52.5 -2q17 0 50.5 2t49.5 2v-31q-34 -5 -40 -6q-21 -4 -27 -32q-9 -52 -9 -235v-193q-85 -2 -107 -9q-206 316 -273 413
q-2 -270 7 -331q3 -19 10 -27t23 -10q36 -7 55 -8l-2 -31q-17 0 -57 1.5t-62 1.5q-13 0 -50.5 -1.5t-51.5 -1.5l1 31q7 1 21 2.5t20 1.5q32 6 36 43q12 84 12 355q-2 10 -8 17q-6 10 -18 14z" />
    <glyph glyph-name="Ntilde.sc" unicode="&#xe022;" horiz-adv-x="603" 
d="M20 466v31q15 0 54.5 -1.5t64.5 -1.5q79 0 117 3q14 -24 42 -64q118 -175 182 -263q0 193 -9 259q-2 18 -13 25.5t-35 9.5l-36 2l3 31q19 0 52.5 -2t52.5 -2q17 0 50.5 2t49.5 2v-31q-34 -5 -40 -6q-21 -4 -27 -32q-9 -52 -9 -235v-193q-85 -2 -107 -9q-206 316 -273 413
q-2 -270 7 -331q3 -19 10 -27t23 -10q36 -7 55 -8l-2 -31q-17 0 -57 1.5t-62 1.5q-13 0 -50.5 -1.5t-51.5 -1.5l1 31q7 1 21 2.5t20 1.5q32 6 36 43q12 84 12 355q-2 10 -8 17q-6 10 -18 14zM213 561l-36 5q2 57 23.5 95.5t65.5 38.5q29 0 71 -34q36 -28 50 -28q28 0 32 65
l35 -7q-2 -59 -22.5 -96.5t-61.5 -37.5q-31 0 -76 38q-31 25 -44 25q-14 0 -24.5 -17t-12.5 -47z" />
    <glyph glyph-name="O.sc" unicode="&#xe023;" horiz-adv-x="620" 
d="M315 509h1q119 0 192.5 -69t73.5 -187q0 -128 -73 -198.5t-201 -70.5q-129 0 -199.5 67t-70.5 188t72 195.5t205 74.5zM310 474h-1q-44 0 -68 -43q-30 -55 -30 -172q0 -130 31 -190q26 -50 75 -50q46 0 68 47q25 50 25 175q0 135 -31 191q-25 42 -69 42z" />
    <glyph glyph-name="OE.sc" unicode="&#xe024;" horiz-adv-x="908" 
d="M470 253v1q0 112 -10 139q-12 34 -40.5 55t-70.5 21q-56 0 -87 -41q-46 -57 -46 -180q0 -114 39 -171q33 -49 96 -49q61 0 94 48q16 22 20.5 62.5t4.5 114.5zM540 493h170q81 0 132 8q-5 -42 -3 -165l-31 -4q-10 51 -23 79q-14 27 -38.5 37t-83.5 10h-24q-14 0 -16 -11
q-4 -31 -4 -125v-45q9 -1 43 -1q33 0 49 15t23 57h29q-8 -110 -2 -199l-31 1q-8 47 -22.5 68t-51.5 21q-28 0 -37 -1v-48q0 -97 3 -136q1 -11 8.5 -15t33.5 -4q59 0 88 7t46 27q34 38 55 109l29 -5q-1 -54 -22 -177q-96 4 -196 4h-122q-57 0 -73 -2v48q-64 -62 -168 -62
q-117 0 -179 50q-83 66 -83 203q0 154 102 225q66 47 176 47q103 0 153 -57v44q24 -3 70 -3z" />
    <glyph glyph-name="Oacute.sc" unicode="&#xe025;" horiz-adv-x="620" 
d="M315 509h1q119 0 192.5 -69t73.5 -187q0 -128 -73 -198.5t-201 -70.5q-129 0 -199.5 67t-70.5 188t72 195.5t205 74.5zM310 474h-1q-44 0 -68 -43q-30 -55 -30 -172q0 -130 31 -190q26 -50 75 -50q46 0 68 47q25 50 25 175q0 135 -31 191q-25 42 -69 42zM276 548l-18 20
q11 13 59 72t58 70q30 31 60 31q18 0 29 -10.5t11 -29.5t-14 -38t-33 -29q-10 -7 -152 -86z" />
    <glyph glyph-name="Ocircumflex.sc" unicode="&#xe026;" horiz-adv-x="620" 
d="M315 509h1q119 0 192.5 -69t73.5 -187q0 -128 -73 -198.5t-201 -70.5q-129 0 -199.5 67t-70.5 188t72 195.5t205 74.5zM310 474h-1q-44 0 -68 -43q-30 -55 -30 -172q0 -130 31 -190q26 -50 75 -50q46 0 68 47q25 50 25 175q0 135 -31 191q-25 42 -69 42zM295 742l28 5
q35 -78 122 -182l-23 -20q-68 46 -114 92q-46 -47 -114 -92l-22 20q84 95 123 177z" />
    <glyph glyph-name="Odieresis.sc" unicode="&#xe027;" horiz-adv-x="620" 
d="M315 509h1q119 0 192.5 -69t73.5 -187q0 -128 -73 -198.5t-201 -70.5q-129 0 -199.5 67t-70.5 188t72 195.5t205 74.5zM310 474h-1q-44 0 -68 -43q-30 -55 -30 -172q0 -130 31 -190q26 -50 75 -50q46 0 68 47q25 50 25 175q0 135 -31 191q-25 42 -69 42zM214 701h1
q28 0 45 -18.5t17 -48.5q0 -33 -20.5 -52.5t-45.5 -19.5q-26 0 -44.5 16.5t-18.5 50.5q0 32 18 52t48 20zM411 701h1q28 0 45 -18.5t17 -48.5q0 -33 -20.5 -52.5t-45.5 -19.5q-26 0 -44.5 16.5t-18.5 50.5q0 32 18 52t48 20z" />
    <glyph glyph-name="Ograve.sc" unicode="&#xe028;" horiz-adv-x="620" 
d="M315 509h1q119 0 192.5 -69t73.5 -187q0 -128 -73 -198.5t-201 -70.5q-129 0 -199.5 67t-70.5 188t72 195.5t205 74.5zM310 474h-1q-44 0 -68 -43q-30 -55 -30 -172q0 -130 31 -190q26 -50 75 -50q46 0 68 47q25 50 25 175q0 135 -31 191q-25 42 -69 42zM333 548
q-103 60 -144 89q-38 27 -38 61q0 21 12.5 33t31.5 12q32 0 57 -32q11 -14 50.5 -72.5t48.5 -70.5z" />
    <glyph glyph-name="Oslash.sc" unicode="&#xe029;" horiz-adv-x="620" 
d="M489 534l40 -20q-5 -6 -17.5 -22t-26.5 -32q45 -31 71 -87.5t26 -122.5q0 -129 -74.5 -197.5t-202.5 -68.5q-90 0 -146 32l-44 -55l-38 20l46 57q-85 63 -85 203q0 122 75.5 195t201.5 73q79 0 135 -29q10 12 22.5 30t16.5 24zM314 474h-1q-44 0 -71 -44
q-35 -62 -35 -185q0 -55 10 -95q22 28 93.5 136t78.5 117q-25 71 -75 71zM307 19h1q46 0 72 44q32 59 32 186q0 77 -10 109q-15 -21 -84.5 -125.5t-88.5 -131.5q26 -82 78 -82z" />
    <glyph glyph-name="Otilde.sc" unicode="&#xe02a;" horiz-adv-x="620" 
d="M315 509h1q119 0 192.5 -69t73.5 -187q0 -128 -73 -198.5t-201 -70.5q-129 0 -199.5 67t-70.5 188t72 195.5t205 74.5zM310 474h-1q-44 0 -68 -43q-30 -55 -30 -172q0 -130 31 -190q26 -50 75 -50q46 0 68 47q25 50 25 175q0 135 -31 191q-25 42 -69 42zM204 560l-36 5
q2 57 23.5 95.5t65.5 38.5q29 0 71 -34q36 -28 50 -28q28 0 32 65l35 -7q-2 -59 -22.5 -96.5t-61.5 -37.5q-31 0 -76 38q-31 25 -44 25q-14 0 -24.5 -17t-12.5 -47z" />
    <glyph glyph-name="P.sc" unicode="&#xe02b;" horiz-adv-x="564" 
d="M96 217v111q0 82 -2 112q-1 21 -22 22l-46 4l5 31q10 0 60 -2t74 -2q35 0 92.5 2t68.5 2q72 0 106.5 -10.5t58.5 -32.5q42 -39 42 -113q0 -73 -43 -114q-52 -52 -153 -52q-29 0 -61 8l1 34q15 -5 34 -5q32 0 47 29q17 36 17 96q0 67 -25 98q-21 27 -71 27q-28 0 -28 -15
q-4 -27 -4 -144v-80v-84q0 -55 2 -83q2 -11 8.5 -16t22.5 -7l53 -5l-1 -31q-5 0 -59 2t-104 1q-24 0 -76 -1.5t-72 -1.5l1 31l35 3q22 2 28.5 7.5t6.5 20.5q4 78 4 158z" />
    <glyph glyph-name="Q.alt" unicode="&#xe02c;" horiz-adv-x="704" 
d="M1137 -171l14 -26q-45 -65 -120.5 -98t-166.5 -33q-136 0 -315 141q-104 84 -153 118q-65 47 -133 63q-43 10 -80 30.5t-70.5 55.5t-53 92.5t-19.5 130.5q0 149 83.5 245t237.5 96q138 0 220.5 -89t82.5 -237q0 -77 -20.5 -138t-55.5 -98t-75 -59t-85 -30v-4
q76 -23 206 -92q223 -117 347 -117q104 0 156 49zM352 611h-1q-54 0 -88 -56q-42 -73 -42 -235q0 -78 13 -147t34 -102q36 -59 93 -59q54 0 85 55q37 71 37 244q0 162 -40 239q-31 61 -91 61z" />
    <glyph glyph-name="Q.sc" unicode="&#xe02d;" horiz-adv-x="620" 
d="M644 -89l1 -26q-55 -52 -142 -52q-49 0 -90 26t-109 89q-35 32 -90 46q-80 21 -128 81.5t-48 160.5q0 126 76 199.5t203 73.5q116 0 190.5 -68t74.5 -191q0 -63 -17.5 -112t-48 -77.5t-61 -44.5t-65.5 -24v-5q7 -3 29.5 -12.5t44.5 -19t40 -16.5q79 -31 140 -28zM311 475
h-1q-44 0 -68 -42q-32 -55 -32 -187q0 -50 10 -104.5t22 -78.5q27 -47 74 -47q46 0 67 46q27 52 27 176q0 137 -31 194q-24 43 -68 43z" />
    <glyph glyph-name="Q.scalt" unicode="&#xe02e;" horiz-adv-x="620" 
d="M1034 -163l13 -26q-44 -58 -114 -88.5t-154 -30.5q-126 0 -288 126q-16 13 -46.5 38t-55.5 44.5t-51 36.5q-57 39 -124 58q-78 22 -127 80.5t-49 160.5q0 127 75.5 200t203.5 73q116 0 190.5 -68.5t74.5 -191.5q0 -63 -17.5 -111t-48 -77t-63.5 -45.5t-71 -23.5v-5
q59 -15 196 -85q105 -53 178.5 -80t138.5 -27q90 0 139 42zM311 475h-1q-44 0 -68 -41q-32 -55 -32 -189q0 -55 10 -106t23 -75q25 -47 73 -47q47 0 68 46q26 54 26 175q0 138 -32 194q-23 43 -67 43z" />
    <glyph glyph-name="R.sc" unicode="&#xe02f;" horiz-adv-x="602" 
d="M96 184v129q0 100 -2 128q-1 17 -23 20l-46 5l4 31q13 0 65.5 -1.5t73.5 -1.5q35 0 96 1.5t82 1.5q104 0 142 -28t38 -90t-54 -93q-38 -22 -111 -29v-5q87 -8 126 -35.5t44 -81.5q3 -21 5 -63q5 -46 41 -46q15 0 23 3l-3 -32q-32 -8 -82 -8q-70 0 -105 21.5t-39 76.5
q-4 37 -5 66q-3 47 -27.5 64t-75.5 17h-15v-56q0 -71 3 -125q1 -13 11.5 -17t55.5 -8l-1 -31q-9 0 -59.5 1.5t-82.5 1.5q-33 0 -86.5 -1.5t-61.5 -1.5v31q42 3 53.5 7t13.5 16q0 2 1 49t1 84zM248 329v-60h17q51 0 73 15q30 21 30 84q0 43 -14 65q-18 29 -63 29
q-18 0 -30 -3q-11 -2 -11 -16q-2 -22 -2 -114z" />
    <glyph glyph-name="S.sc" unicode="&#xe030;" horiz-adv-x="496" 
d="M50 194l31 5q2 -84 47.5 -131.5t115.5 -47.5q40 0 61.5 18t21.5 48q0 38 -43 59q-19 9 -69.5 31t-73.5 33q-90 43 -90 130q0 82 60 128q52 42 142 42q84 0 127 -35l22 44l28 -9q-18 -83 -13 -191l-32 -2q-9 69 -43.5 113t-93.5 44q-32 0 -53 -17.5t-21 -49.5
q0 -41 50 -64q136 -54 172 -76q63 -36 64 -110q0 -69 -46 -113q-59 -59 -184 -59q-52 0 -127 15q-49 12 -63 14q8 47 10 181z" />
    <glyph glyph-name="Scaron.sc" unicode="&#xe031;" horiz-adv-x="496" 
d="M50 194l31 5q2 -84 47.5 -131.5t115.5 -47.5q40 0 61.5 18t21.5 48q0 38 -43 59q-19 9 -69.5 31t-73.5 33q-90 43 -90 130q0 82 60 128q52 42 142 42q84 0 127 -35l22 44l28 -9q-18 -83 -13 -191l-32 -2q-9 69 -43.5 113t-93.5 44q-32 0 -53 -17.5t-21 -49.5
q0 -41 50 -64q136 -54 172 -76q63 -36 64 -110q0 -69 -46 -113q-59 -59 -184 -59q-52 0 -127 15q-49 12 -63 14q8 47 10 181zM270 550l-28 -5q-37 81 -122 182l22 20q67 -44 115 -92q50 50 114 92l22 -20q-80 -92 -123 -177z" />
    <glyph glyph-name="T.sc" unicode="&#xe032;" horiz-adv-x="544" 
d="M347 354v-136q0 -119 2 -157q2 -24 22 -27q12 -1 32 -3t32 -3l-1 -31q-8 0 -70 1.5t-105 1.5q-33 0 -82 -1.5t-67 -1.5l-3 31q8 0 16.5 1t20.5 2t20 2q26 4 27 25q4 92 4 162v120q0 97 -2 119q-51 0 -70 -10.5t-33 -37.5q-20 -41 -38 -102l-31 6q11 87 17 188
q29 -5 73 -8q62 -2 110 -2h106q162 0 192 10q-10 -75 -8 -188l-31 -8q-14 83 -32 117q-10 20 -29.5 28t-70.5 7q-1 -21 -1 -105z" />
    <glyph glyph-name="Thorn.sc" unicode="&#xe034;" horiz-adv-x="571" 
d="M99 206v135q0 80 -1 99q-1 13 -14 18.5t-53 7.5l5 31q2 0 51.5 -2t82.5 -2q30 0 77 2t62 2l1 -31q-36 -1 -46 -7t-11 -21q-1 -8 -1 -35q87 3 110 3q93 0 136 -37q42 -34 42 -109q0 -76 -51 -120q-52 -46 -158 -46q-37 0 -81 11q0 -32 1 -47q1 -16 13 -21t58 -9v-31
q-14 0 -62 1.5t-89 1.5q-28 0 -77.5 -1.5t-66.5 -1.5l2 31q42 2 53 7.5t12 24.5q5 73 5 146zM250 360v-217q20 -12 52 -12q38 0 58 27q23 35 23 94q0 66 -25 95q-22 24 -76 24q-31 0 -32 -11z" />
    <glyph glyph-name="U.sc" unicode="&#xe035;" horiz-adv-x="591" 
d="M26 465v32q14 0 59 -2t72 -2q8 0 140 4l3 -32l-41 -5q-17 0 -18 -20q-4 -49 -5 -149.5t3 -157.5q3 -48 32 -75q28 -23 72 -23q55 0 84.5 26t35.5 104q9 128 -3 266q-1 15 -8 21t-25 8l-44 5l-1 32q10 0 42 -2t52 -2t56 2t46 2l2 -32l-33 -3q-16 -2 -21.5 -8t-7.5 -22
q-2 -31 -6 -144.5t-7 -140.5q-12 -92 -71 -131q-49 -32 -138 -32q-115 0 -165 47q-45 44 -45 123q0 254 -2 285q0 21 -17 22z" />
    <glyph glyph-name="Uacute.sc" unicode="&#xe036;" horiz-adv-x="591" 
d="M26 465v32q14 0 59 -2t72 -2q8 0 140 4l3 -32l-41 -5q-17 0 -18 -20q-4 -49 -5 -149.5t3 -157.5q3 -48 32 -75q28 -23 72 -23q55 0 84.5 26t35.5 104q9 128 -3 266q-1 15 -8 21t-25 8l-44 5l-1 32q10 0 42 -2t52 -2t56 2t46 2l2 -32l-33 -3q-16 -2 -21.5 -8t-7.5 -22
q-2 -31 -6 -144.5t-7 -140.5q-12 -92 -71 -131q-49 -32 -138 -32q-115 0 -165 47q-45 44 -45 123q0 254 -2 285q0 21 -17 22zM290 548l-18 20q11 13 59 72t58 70q30 31 60 31q18 0 29 -10.5t11 -29.5t-14 -38t-33 -29q-10 -7 -152 -86z" />
    <glyph glyph-name="Ucircumflex.sc" unicode="&#xe037;" horiz-adv-x="591" 
d="M26 465v32q14 0 59 -2t72 -2q8 0 140 4l3 -32l-41 -5q-17 0 -18 -20q-4 -49 -5 -149.5t3 -157.5q3 -48 32 -75q28 -23 72 -23q55 0 84.5 26t35.5 104q9 128 -3 266q-1 15 -8 21t-25 8l-44 5l-1 32q10 0 42 -2t52 -2t56 2t46 2l2 -32l-33 -3q-16 -2 -21.5 -8t-7.5 -22
q-2 -31 -6 -144.5t-7 -140.5q-12 -92 -71 -131q-49 -32 -138 -32q-115 0 -165 47q-45 44 -45 123q0 254 -2 285q0 21 -17 22zM305 742l28 5q35 -78 122 -182l-23 -20q-68 46 -114 92q-46 -47 -114 -92l-22 20q84 95 123 177z" />
    <glyph glyph-name="Udieresis.sc" unicode="&#xe038;" horiz-adv-x="591" 
d="M26 465v32q14 0 59 -2t72 -2q8 0 140 4l3 -32l-41 -5q-17 0 -18 -20q-4 -49 -5 -149.5t3 -157.5q3 -48 32 -75q28 -23 72 -23q55 0 84.5 26t35.5 104q9 128 -3 266q-1 15 -8 21t-25 8l-44 5l-1 32q10 0 42 -2t52 -2t56 2t46 2l2 -32l-33 -3q-16 -2 -21.5 -8t-7.5 -22
q-2 -31 -6 -144.5t-7 -140.5q-12 -92 -71 -131q-49 -32 -138 -32q-115 0 -165 47q-45 44 -45 123q0 254 -2 285q0 21 -17 22zM224 702h1q28 0 45 -18.5t17 -48.5q0 -33 -20.5 -52.5t-45.5 -19.5q-26 0 -44.5 16.5t-18.5 50.5q0 32 18 52t48 20zM421 702h1q28 0 45 -18.5
t17 -48.5q0 -33 -20.5 -52.5t-45.5 -19.5q-26 0 -44.5 16.5t-18.5 50.5q0 32 18 52t48 20z" />
    <glyph glyph-name="Ugrave.sc" unicode="&#xe039;" horiz-adv-x="591" 
d="M26 465v32q14 0 59 -2t72 -2q8 0 140 4l3 -32l-41 -5q-17 0 -18 -20q-4 -49 -5 -149.5t3 -157.5q3 -48 32 -75q28 -23 72 -23q55 0 84.5 26t35.5 104q9 128 -3 266q-1 15 -8 21t-25 8l-44 5l-1 32q10 0 42 -2t52 -2t56 2t46 2l2 -32l-33 -3q-16 -2 -21.5 -8t-7.5 -22
q-2 -31 -6 -144.5t-7 -140.5q-12 -92 -71 -131q-49 -32 -138 -32q-115 0 -165 47q-45 44 -45 123q0 254 -2 285q0 21 -17 22zM352 548q-103 60 -144 89q-38 27 -38 61q0 21 12.5 33t31.5 12q32 0 57 -32q11 -14 50.5 -72.5t48.5 -70.5z" />
    <glyph glyph-name="V.sc" unicode="&#xe03a;" horiz-adv-x="567" 
d="M-8 466l-1 31q10 0 65 -2t79 -2q22 0 72 2t81 2l6 -31l-45 -5q-18 -1 -11 -23q57 -179 108 -315q71 186 102 311q4 22 -13 25q-46 6 -57 7l-3 31q9 0 47 -2t58 -2q16 0 50 2t52 2l4 -31q-36 -2 -53 -11t-32 -39q-37 -71 -164 -425q-15 1 -54 1t-49 -1q-102 290 -166 436
q-12 24 -25 31t-51 8z" />
    <glyph glyph-name="W.sc" unicode="&#xe03b;" horiz-adv-x="803" 
d="M624 466l-4 31q16 0 51 -2t52 -2q15 0 46 2t48 2l1 -31q-40 -4 -53 -14t-26 -43q-35 -90 -129 -418q-72 6 -100 0q-11 37 -30 99t-45 144.5t-38 120.5q-75 -287 -94 -364q-8 2 -49.5 2t-52.5 -2q-107 364 -128 421q-13 35 -25 43.5t-50 10.5l-1 31q11 0 58 -2t76 -2
q23 0 70 2t72 2l4 -31l-38 -5q-20 -3 -16 -21q46 -180 80 -301q21 70 54 202t37 154q38 -3 110 0q9 -34 51 -170t59 -193q60 190 78 301q5 25 -18 27z" />
    <glyph glyph-name="X.sc" unicode="&#xe03c;" horiz-adv-x="563" 
d="M538 32l34 -4v-31q-111 3 -145 3q-35 0 -86 -1.5t-73 -1.5l-2 31q31 4 38.5 9.5t2.5 17.5q-5 9 -31 57.5t-47 85.5q-31 -41 -84 -133q-15 -27 16 -32l44 -5l3 -31q-13 0 -49 1.5t-62 1.5q-21 0 -52 -1.5t-47 -1.5l-3 31q32 2 48 8.5t34 24.5q25 27 132 170
q-116 200 -125 214q-8 11 -21.5 15t-49.5 6l-4 31q19 0 67.5 -2t78.5 -2q22 0 72 2t74 2l3 -31l-34 -4q-18 -3 -9 -18q20 -43 64 -119q46 64 73 113q5 11 2 16.5t-18 7.5l-33 4l2 31q21 0 54 -2t42 -2q17 0 48 2t48 2l4 -31q-43 -3 -61.5 -12t-41.5 -32q-11 -11 -25 -29
t-35.5 -47t-38.5 -51q126 -212 145 -236q19 -23 48 -27z" />
    <glyph glyph-name="Y.sc" unicode="&#xe03d;" horiz-adv-x="530" 
d="M433 28l3 -31q-25 0 -83.5 1.5t-95.5 1.5q-35 0 -83.5 -1.5t-69.5 -1.5l-2 31q15 1 36.5 3.5t27.5 3.5q24 3 27 28q4 31 4 129q0 15 -11 36q-15 32 -53 101t-62 103q-15 20 -30 26t-51 8v31q9 0 64 -2t93 -2q35 0 80 2t57 2l4 -31l-35 -4q-18 -2 -12 -18q40 -89 89 -185
q51 97 80 180q6 19 -12 22q-5 0 -21 2t-25 3l1 31q10 0 44.5 -2t55.5 -2q17 0 47 2t45 2l3 -31q-34 -2 -51.5 -9t-32.5 -28q-33 -47 -104 -191q-11 -24 -11 -41q-2 -94 4 -141q1 -17 21 -20q26 -4 59 -8z" />
    <glyph glyph-name="Yacute.sc" unicode="&#xe03e;" horiz-adv-x="530" 
d="M433 28l3 -31q-25 0 -83.5 1.5t-95.5 1.5q-35 0 -83.5 -1.5t-69.5 -1.5l-2 31q15 1 36.5 3.5t27.5 3.5q24 3 27 28q4 31 4 129q0 15 -11 36q-15 32 -53 101t-62 103q-15 20 -30 26t-51 8v31q9 0 64 -2t93 -2q35 0 80 2t57 2l4 -31l-35 -4q-18 -2 -12 -18q40 -89 89 -185
q51 97 80 180q6 19 -12 22q-5 0 -21 2t-25 3l1 31q10 0 44.5 -2t55.5 -2q17 0 47 2t45 2l3 -31q-34 -2 -51.5 -9t-32.5 -28q-33 -47 -104 -191q-11 -24 -11 -41q-2 -94 4 -141q1 -17 21 -20q26 -4 59 -8zM246 548l-18 20q11 13 59 72t58 70q30 31 60 31q18 0 29 -10.5
t11 -29.5t-14 -38t-33 -29q-10 -7 -152 -86z" />
    <glyph glyph-name="Ydieresis.sc" unicode="&#xe03f;" horiz-adv-x="530" 
d="M433 28l3 -31q-25 0 -83.5 1.5t-95.5 1.5q-35 0 -83.5 -1.5t-69.5 -1.5l-2 31q15 1 36.5 3.5t27.5 3.5q24 3 27 28q4 31 4 129q0 15 -11 36q-15 32 -53 101t-62 103q-15 20 -30 26t-51 8v31q9 0 64 -2t93 -2q35 0 80 2t57 2l4 -31l-35 -4q-18 -2 -12 -18q40 -89 89 -185
q51 97 80 180q6 19 -12 22q-5 0 -21 2t-25 3l1 31q10 0 44.5 -2t55.5 -2q17 0 47 2t45 2l3 -31q-34 -2 -51.5 -9t-32.5 -28q-33 -47 -104 -191q-11 -24 -11 -41q-2 -94 4 -141q1 -17 21 -20q26 -4 59 -8zM188 702h1q28 0 45 -18.5t17 -48.5q0 -33 -20.5 -52.5t-45.5 -19.5
q-26 0 -44.5 16.5t-18.5 50.5q0 32 18 52t48 20zM385 702h1q28 0 45 -18.5t17 -48.5q0 -33 -20.5 -52.5t-45.5 -19.5q-26 0 -44.5 16.5t-18.5 50.5q0 32 18 52t48 20z" />
    <glyph glyph-name="Z.sc" unicode="&#xe040;" horiz-adv-x="553" 
d="M79 294l-29 8q20 128 13 201q29 -6 64 -9q19 -1 123 -1h131q100 2 127 3q-10 -42 -24 -64q-7 -10 -20 -30.5t-43 -67.5t-58 -91q-123 -193 -132 -208q103 -1 147 9.5t63 38.5q34 47 56 130l29 -9q-15 -150 -17 -209q-32 2 -104 4q-36 1 -108 1h-182q-52 0 -79 -1l-8 19
q50 68 142.5 212t143.5 228h-63q-60 0 -87 -12.5t-44 -44.5q-22 -41 -41 -107z" />
    <glyph glyph-name="Zcaron.sc" unicode="&#xe041;" horiz-adv-x="553" 
d="M79 294l-29 8q20 128 13 201q29 -6 64 -9q19 -1 123 -1h131q100 2 127 3q-10 -42 -24 -64q-7 -10 -20 -30.5t-43 -67.5t-58 -91q-123 -193 -132 -208q103 -1 147 9.5t63 38.5q34 47 56 130l29 -9q-15 -150 -17 -209q-32 2 -104 4q-36 1 -108 1h-182q-52 0 -79 -1l-8 19
q50 68 142.5 212t143.5 228h-63q-60 0 -87 -12.5t-44 -44.5q-22 -41 -41 -107zM300 549l-28 -5q-37 81 -122 182l22 20q67 -44 115 -92q50 50 114 92l22 -20q-80 -92 -123 -177z" />
    <glyph glyph-name="c_t" unicode="&#xe042;" horiz-adv-x="829" 
d="M812 425l-2 -34l-114 -7q-3 -105 -3 -159q0 -117 4 -158q4 -32 29 -32q27 0 46 24t26 55h14l12 -39q-16 -40 -57.5 -64.5t-99.5 -24.5q-71 0 -102 37q-19 23 -19 65q0 2 4 297l-60 6l4 34h57v74q0 21 -9 28q-7 7 -31 13t-46 6q-58 0 -76.5 -19t-18.5 -63q0 -23 11 -43
q68 -28 68 -91q0 -33 -22.5 -49t-51.5 -16q-23 0 -36 9q-15 9 -12 24q6 28 6 41q0 69 -56 69q-41 0 -63.5 -50.5t-22.5 -131.5q0 -75 21 -120q30 -63 95 -63q43 0 71.5 24.5t48.5 77.5l30 -16q-45 -143 -197 -143q-125 0 -182 71q-44 53 -44 149q0 104 64.5 169.5
t181.5 65.5q25 0 61 -6q-12 19 -12 39q0 17 6.5 33.5t22.5 35.5t50 31t83 12q73 0 85 -6q84 15 123 29l2 -5q-5 -130 -5 -179h116z" />
    <glyph glyph-name="cent.fitted" unicode="&#xe043;" horiz-adv-x="518" 
d="M471 253l5 -42q-22 -43 -69 -71t-101 -33l-3 -82l-42 -10l6 91q-129 1 -185 68q-44 50 -44 138q0 104 70.5 163t180.5 61l3 77l42 8l-6 -85q70 -4 111 -32t41 -74q0 -28 -19.5 -44t-47.5 -16q-22 0 -33.5 10.5t-7.5 24.5q6 28 6 40q0 49 -53 59q-9 -153 -16 -354
q57 0 90 25t52 79zM191 327v-1q0 -83 22 -126q20 -38 58 -47q11 200 17 353q-35 -4 -58 -36t-31 -68.5t-8 -74.5z" />
    <glyph glyph-name="currency.taboldstyle" unicode="&#xe044;" horiz-adv-x="515" 
d="M257 384q-49 1 -75.5 -41.5t-26.5 -107.5q0 -75 28.5 -115.5t73.5 -40.5q48 0 72.5 42.5t24.5 106.5q0 67 -23 111t-74 45zM261 431h1q66 0 107 -32l59 76l52 -49l-74 -64q42 -46 42 -132q0 -83 -46 -132l77 -70l-50 -50l-67 86q-44 -34 -110 -34q-65 0 -108 31l-61 -79
l-46 49l69 65q-45 49 -45 133q0 85 51 136l-72 61l50 51l61 -78q46 32 110 32z" />
    <glyph glyph-name="dollar.fitted" unicode="&#xe045;" horiz-adv-x="518" 
d="M369 127v1q0 18 -5.5 31t-21 25t-27.5 18.5t-42 20.5l-8 -177q43 2 73.5 23t30.5 58zM159 489v-1q0 -32 22 -50.5t68 -39.5l8 172q-49 -2 -73.5 -24.5t-24.5 -56.5zM263 676l40 6l-6 -82q69 -5 108 -33l19 38l24 -7q-20 -100 -18 -192l-28 1q-3 65 -30.5 107t-78.5 52
l-11 -182q127 -57 144 -70q55 -41 55 -119q0 -71 -47 -118q-60 -59 -170 -63l-2 -85l-43 -8l6 93q-58 2 -180 26q12 62 15 188l28 4q0 -87 38 -132.5t102 -52.5l10 189q-100 47 -108 52q-77 47 -77 137q0 81 61 131q54 44 145 45z" />
    <glyph glyph-name="dotlessi.sc" unicode="&#xe046;" horiz-adv-x="344" 
d="M96 166v165q0 93 -1 111q0 13 -11 17.5t-52 6.5l1 31q9 0 56.5 -2t78.5 -2q38 0 85 2t57 2v-31q-38 -2 -48 -7t-11 -18q-3 -57 -3 -108v-167q0 -94 3 -113q2 -14 12 -18t52 -7l-2 -31q-13 0 -65 1.5t-82 1.5q-29 0 -77.5 -1.5t-60.5 -1.5v31q42 3 52.5 7.5t12.5 17.5
q3 27 3 113z" />
    <glyph glyph-name="egrave.superior" unicode="&#xe047;" horiz-adv-x="372" 
d="M227 600l-19 -13q-18 13 -41.5 30.5t-38.5 28.5t-19 14q-18 16 -18 35q-1 16 10 26t26 10q27 0 45 -24q5 -7 26.5 -51.5t28.5 -55.5zM339 358q-33 -90 -146 -90q-88 0 -130 42q-33 35 -33 96q0 66 44 109t125 43q44 0 75 -12.5t44.5 -32.5t19 -37t5.5 -33q0 -23 -12 -30
q-14 -6 -57 -8q-18 -1 -124 -1q-2 -31 12 -57q18 -36 65 -36q33 0 53.5 14t36.5 47zM197 531h-1q-19 0 -30.5 -25.5t-13.5 -69.5q20 -2 38 -2q22 0 36 3q11 4 11 20q0 74 -40 74z" />
    <glyph glyph-name="f_i.sc" unicode="&#xe048;" horiz-adv-x="852" 
d="M27 465l-2 32q11 0 68 -2t85 -2h134q98 0 165 8q-3 -37 -3 -171h-31q-11 55 -28 86q-12 23 -35 32.5t-80 9.5h-33q-14 0 -16 -11q-3 -21 -3 -118v-69q8 -1 43 -1q41 0 58.5 16t23.5 61l30 -2q-4 -47 -3.5 -111.5t3.5 -89.5h-30q-4 25 -8.5 38.5t-13 27.5t-23.5 19.5
t-38 5.5q-9 0 -23.5 -0.5t-18.5 -0.5v-70q0 -81 2 -97q0 -20 20 -21q42 -7 64 -7l-2 -31q-13 0 -72.5 2t-90.5 2q-27 0 -78.5 -2t-66.5 -2l-1 31l44 5q22 3 25 21q4 36 4 136v136q0 28 -0.5 54.5t-1 43t-0.5 18.5q-1 17 -20 19zM605 166v165q0 93 -1 111q0 13 -11 17.5
t-52 6.5l1 31q9 0 56.5 -2t78.5 -2q38 0 85 2t57 2v-31q-38 -2 -48 -7t-11 -18q-3 -57 -3 -108v-167q0 -94 3 -113q2 -14 12 -18t52 -7l-2 -31q-13 0 -65 1.5t-82 1.5q-29 0 -77.5 -1.5t-60.5 -1.5v31q42 3 52.5 7.5t12.5 17.5q3 27 3 113z" />
    <glyph glyph-name="f_l.sc" unicode="&#xe049;" horiz-adv-x="1017" 
d="M27 465l-2 32q11 0 68 -2t85 -2h134q98 0 165 8q-3 -37 -3 -171h-31q-11 55 -28 86q-12 23 -35 32.5t-80 9.5h-33q-14 0 -16 -11q-3 -21 -3 -118v-69q8 -1 43 -1q41 0 58.5 16t23.5 61l30 -2q-4 -47 -3.5 -111.5t3.5 -89.5h-30q-4 25 -8.5 38.5t-13 27.5t-23.5 19.5
t-38 5.5q-9 0 -23.5 -0.5t-18.5 -0.5v-70q0 -81 2 -97q0 -20 20 -21q42 -7 64 -7l-2 -31q-13 0 -72.5 2t-90.5 2q-27 0 -78.5 -2t-66.5 -2l-1 31l44 5q22 3 25 21q4 36 4 136v136q0 28 -0.5 54.5t-1 43t-0.5 18.5q-1 17 -20 19zM965 193l31 -6q-1 -5 -22 -192q-48 4 -116 4
q-51 1 -171 1q-14 0 -45 -0.5t-46 -0.5q-60 -2 -69 -2v31l48 5q25 3 26 22q4 46 4 144v137q0 36 -0.5 68.5t-0.5 34.5q-2 20 -21 21l-44 5l1 31q10 0 59.5 -1.5t84.5 -1.5q26 0 74.5 1.5t73.5 1.5l2 -31l-52 -5q-11 -2 -15.5 -6.5t-5.5 -15.5q-4 -52 -4 -138v-103
q0 -123 2 -144q0 -18 32 -18q52 0 77 7t42 27q34 40 55 124z" />
    <glyph glyph-name="florin.fitted" unicode="&#xe04a;" horiz-adv-x="518" 
d="M38 313l15 44q30 -3 84 -3q23 151 85 215q63 66 156 66q47 0 79 -21.5t32 -60.5q0 -32 -20.5 -48t-45.5 -16q-17 0 -30 8.5t-9 21.5q5 18 5 39q0 44 -28 44q-24 0 -37 -54q-15 -62 -30 -194q55 0 121 3l-11 -45q-87 3 -114 3q-22 -159 -40 -249q-15 -77 -44.5 -124
t-78.5 -76q-55 -33 -123 -33q-41 0 -70.5 19t-29.5 51q0 26 19 43.5t45 17.5q28 0 37 -32q17 -61 40 -61q15 0 23 15.5t15 55.5q11 72 29 213.5t20 159.5q-44 0 -94 -2z" />
    <glyph glyph-name="florin.oldstyle" unicode="&#xe04b;" horiz-adv-x="518" 
d="M45 281l14 44q8 -1 82 -3q21 141 83 204q64 65 157 65q46 0 77 -21t31 -60q0 -31 -20.5 -47t-45.5 -16q-17 0 -30 8t-10 21q5 18 5 39q0 43 -25 43q-26 0 -39 -52q-13 -56 -27 -184q95 2 119 3l-12 -45q-84 3 -112 3q-23 -159 -33 -207q-15 -75 -43.5 -121.5t-76.5 -75.5
q-57 -34 -120 -34q-43 0 -72.5 19t-29.5 50q0 26 19.5 44t44.5 18q26 0 36 -33q16 -60 39 -60q15 0 23 14.5t15 56.5q10 67 24 185.5t18 143.5q-40 0 -91 -2z" />
    <glyph glyph-name="g.superior" unicode="&#xe04c;" horiz-adv-x="400" 
d="M106 231l12 -15q-22 -9 -22 -28t26 -33t73 -14q59 0 89 19t30 42q0 30 -40 30h-135q-68 0 -98 34q-19 19 -19 52q0 48 53 80q-25 22 -25 58q0 53 45 78t103 25q54 0 82 -14q46 35 82 35q14 0 25.5 -7.5t11.5 -15.5q-1 -8 -13.5 -21.5t-21.5 -15.5q-18 12 -39 12
q-13 0 -18 -1q35 -24 35 -69q0 -53 -46 -76.5t-105 -23.5q-65 0 -92 19q-22 -6 -22 -28q0 -11 11 -17.5t29 -6.5q13 0 69.5 1t106.5 1q39 0 65 -18q31 -23 31 -66q0 -67 -63 -102t-152 -35q-71 0 -110 18.5t-39 49.5q0 24 32 40q24 9 49 13zM195 531h-1q-35 0 -35 -71
t37 -71q36 0 36 72q0 70 -37 70z" />
    <glyph glyph-name="germandbls.sc" unicode="&#xe04d;" horiz-adv-x="992" 
d="M50 194l31 5q2 -84 47.5 -131.5t115.5 -47.5q40 0 61.5 18t21.5 48q0 38 -43 59q-19 9 -69.5 31t-73.5 33q-90 43 -90 130q0 82 60 128q52 42 142 42q84 0 127 -35l22 44l28 -9q-18 -83 -13 -191l-32 -2q-9 69 -43.5 113t-93.5 44q-32 0 -53 -17.5t-21 -49.5
q0 -41 50 -64q136 -54 172 -76q63 -36 64 -110q0 -69 -46 -113q-59 -59 -184 -59q-52 0 -127 15q-49 12 -63 14q8 47 10 181zM546 194l31 5q2 -84 47.5 -131.5t115.5 -47.5q40 0 61.5 18t21.5 48q0 38 -43 59q-19 9 -69.5 31t-73.5 33q-90 43 -90 130q0 82 60 128
q52 42 142 42q84 0 127 -35l22 44l28 -9q-18 -83 -13 -191l-32 -2q-9 69 -43.5 113t-93.5 44q-32 0 -53 -17.5t-21 -49.5q0 -41 50 -64q136 -54 172 -76q63 -36 64 -110q0 -69 -46 -113q-59 -59 -184 -59q-52 0 -127 15q-49 12 -63 14q8 47 10 181z" />
    <glyph glyph-name="numbersign.oldstyle" unicode="&#xe04e;" horiz-adv-x="506" 
d="M315 285h-106l-26 -106h106zM221 501l48 3q-12 -31 -38 -130h104q24 94 29 126l50 4q-22 -62 -39 -130q76 0 98 1q-13 -34 -24 -92q-18 1 -95 1l-26 -104q103 2 108 2q-7 -17 -23 -93q-12 1 -46 1h-60q-7 -33 -18.5 -87.5t-11.5 -55.5l-49 -3q12 37 39 146h-105
q-7 -27 -14 -55.5t-12.5 -53.5t-7.5 -34l-47 -6q24 87 41 149h-44.5t-49.5 -1q7 21 21 92q5 0 95 -2l27 106q-42 1 -110 -1q13 38 22 91q21 -1 108 -1q8 28 30 127z" />
    <glyph glyph-name="orn.001" unicode="&#xe04f;" horiz-adv-x="968" 
d="M561 442q37 4 57 23t20 41q0 18 -12 37.5t-26 30.5q-16 9 -9 23q5 8 18.5 13t26.5 2q-4 5 -32 49q-16 28 -3 38.5t39 3.5q48 -13 71 -48.5t23 -76.5q0 -57 -46.5 -107t-127.5 -58q-3 -63 -26 -114q-3 -12 4 -12q4 0 9 8q53 75 124 75q60 0 90 -49t39 -159q4 -51 16 -69
t31 -18q12 0 21.5 13.5t9.5 36.5q0 27 -10.5 41.5t-20.5 18.5q-12 5 -5 15q21 21 46 21q14 0 28 -15t14 -46q0 -55 -60 -112q-45 -40 -86 -40q-89 0 -118 134q-18 83 -84 83q-17 0 -27 -11t-5 -18q22 -44 22 -83q0 -24 -12.5 -52t-24 -45t-33.5 -46q-39 -50 -39 -87
q0 -25 25 -25q21 0 57 54q9 13 17 -7q3 -8 3 -14q1 -34 -20 -53.5t-46 -19.5q-35 0 -59 24q-12 13 -33 18q-27 9 -50 34.5t-23 69.5q0 64 70 142q48 54 45 87q0 16 -15 30.5t-41 14.5q-37 0 -56 -21t-55 -87q-39 -72 -119 -72q-44 0 -84 33t-40 76q0 22 9.5 37.5t18 21
t15.5 6.5q7 2 7.5 -1.5t-1.5 -11.5q-9 -34 9 -55.5t48 -21.5q39 0 53 40t-5 86q-6 13 8 35q9 15 25 31t51.5 33t75.5 17q79 0 110 -63q5 -11 13 -12t12 7q28 40 36 96q-66 5 -105.5 36t-39.5 83q0 28 17.5 51.5t42.5 35.5q-25 19 -80 19q-60 0 -101.5 -36.5t-41.5 -83.5
q0 -17 29 -35q12 -10 12 -20q0 -6 -7.5 -9.5t-14.5 -0.5q-8 3 -16.5 3t-13.5 -1.5t-14.5 -4.5t-12.5 -4q-8 -3 -10.5 -2t-8.5 9q-7 14 -7 38q0 56 41 105q65 79 172 79q42 0 77 -16.5t56.5 -41t36 -54t20.5 -55t6 -45.5v-20zM524 441q1 8 1 21q-6 102 -67 143
q-14 -5 -24.5 -22t-10.5 -37q0 -51 29.5 -76.5t71.5 -28.5z" />
    <glyph glyph-name="orn.002" unicode="&#xe050;" horiz-adv-x="968" 
d="M407 80q-37 -4 -56.5 -23t-19.5 -41q0 -19 12 -38.5t26 -29.5q16 -10 8 -23q-4 -8 -17.5 -13t-26.5 -2q4 -5 31 -49q15 -29 3 -39t-38 -3q-48 12 -71 48t-23 77q0 57 46 107t126 58q5 62 26 114q2 5 1 8.5t-4.5 3t-8.5 -7.5q-53 -75 -123 -75q-60 0 -90 49t-39 159
q-4 51 -16 69t-31 18q-12 0 -21.5 -13.5t-9.5 -36.5q0 -27 10.5 -41.5t20.5 -18.5q12 -5 5 -15q-21 -21 -46 -21q-14 0 -28 15t-14 46q0 55 60 112q45 40 86 40q89 0 118 -134q18 -83 84 -83q16 0 26 11t5 18q-22 44 -22 83q0 24 12.5 52t24 45t33.5 46q39 50 39 87
q0 25 -25 25q-21 0 -57 -54q-9 -13 -17 7q-3 8 -3 14q-1 34 20 53.5t46 19.5q35 0 59 -24q12 -13 33 -18q27 -9 50 -34.5t23 -69.5q0 -64 -70 -142q-48 -56 -45 -87q0 -16 15 -30.5t41 -14.5q37 0 56 21t55 87q39 72 119 72q44 0 84 -33t40 -76q0 -22 -9.5 -37.5t-18 -21
t-15.5 -6.5q-7 -2 -7.5 1.5t1.5 11.5q9 34 -9 55.5t-48 21.5q-39 0 -53 -40t5 -86q6 -13 -8 -35q-9 -15 -25 -31t-51.5 -33t-75.5 -17q-79 0 -110 63q-5 11 -13 12t-12 -7q-28 -40 -36 -96q66 -5 105.5 -36t39.5 -83q0 -28 -17.5 -51.5t-42.5 -35.5q25 -19 80 -19
q60 0 101.5 36.5t41.5 83.5q0 17 -29 35q-12 10 -12 20q0 6 7.5 9.5t14.5 0.5q8 -3 16.5 -3t13.5 1.5t14.5 4.5t12.5 4q8 3 10.5 2t8.5 -9q7 -14 7 -38q0 -56 -41 -105q-65 -79 -172 -79q-42 0 -77 16.5t-56.5 41t-36 54t-20.5 55t-6 45.5v20zM444 81q-1 -8 -1 -21
q6 -102 67 -143q14 5 24.5 22t10.5 37q0 51 -29.5 76.5t-71.5 28.5z" />
    <glyph glyph-name="orn.003" unicode="&#xe051;" horiz-adv-x="968" 
d="M665 185q4 -37 23 -56.5t41 -19.5q19 0 38.5 12t29.5 26q10 16 23 8q8 -4 13 -17.5t2 -26.5q5 4 49 31q29 16 39 3.5t3 -39.5q-13 -48 -48.5 -70.5t-76.5 -22.5q-57 0 -107 46t-58 126q-62 5 -114 26q-5 2 -8.5 1t-3 -4.5t7.5 -8.5q75 -53 75 -123q0 -60 -49 -90
t-159 -39q-51 -4 -69 -16t-18 -31q0 -12 13.5 -21.5t36.5 -9.5q27 0 41.5 10.5t18.5 20.5q5 12 15 5q21 -21 21 -46q0 -14 -15 -28t-46 -14q-55 0 -112 60q-40 45 -40 86q0 88 134 118q83 18 83 84q0 16 -11 26t-18 5q-44 -22 -83 -22q-24 0 -52 12.5t-45 24t-46 33.5
q-50 39 -87 39q-25 0 -25 -25q0 -21 54 -57q13 -9 -7 -17q-8 -3 -14 -3q-34 -1 -53.5 20t-19.5 46q0 35 24 59q13 12 18 33q9 27 34.5 50t69.5 23q64 0 142 -70q54 -48 87 -45q16 0 30.5 15t14.5 41q0 37 -21 56t-87 55q-72 39 -72 119q0 44 33 84t76 40q22 0 37.5 -9.5
t21 -18t6.5 -15.5q2 -7 -1.5 -7.5t-11.5 1.5q-34 9 -55.5 -9t-21.5 -48q0 -39 40 -53t86 5q13 6 35 -8q15 -9 31 -25t33 -51.5t17 -75.5q0 -79 -63 -110q-11 -5 -12 -13t7 -12q40 -28 96 -36q5 66 36 105.5t83 39.5q28 0 51.5 -17.5t35.5 -42.5q19 25 19 80
q0 60 -36.5 101.5t-83.5 41.5q-17 0 -35 -29q-10 -12 -20 -12q-5 0 -9 7.5t-1 14.5q3 8 3 16.5t-1.5 13.5t-4.5 14.5t-4 12.5q-3 8 -2 10.5t9 8.5q14 7 38 7q56 0 105 -41q79 -65 79 -172q0 -42 -16.5 -77t-41 -56.5t-54 -36t-55 -20.5t-45.5 -6h-20zM664 222q8 -1 21 -1
q102 6 143 67q-5 14 -22 24.5t-37 10.5q-51 0 -76.5 -29.5t-28.5 -71.5z" />
    <glyph glyph-name="orn.004" unicode="&#xe052;" horiz-adv-x="968" 
d="M304 338q-4 37 -23 57t-41 20q-18 0 -37.5 -12t-30.5 -26q-9 -16 -23 -9q-8 5 -13 18.5t-2 26.5q-5 -4 -49 -32q-28 -16 -38.5 -3t-3.5 39q13 48 48.5 71t76.5 23q57 0 107 -46t58 -127q62 -5 114 -26q9 -3 12 1t-7 11q-75 53 -75 124q0 60 49 90t159 39q51 4 69 16
t18 31q0 12 -13.5 21.5t-36.5 9.5q-27 0 -41.5 -10.5t-18.5 -20.5q-5 -12 -15 -5q-21 21 -21 46q0 14 15 28t46 14q55 0 112 -60q40 -45 40 -86q0 -89 -134 -118q-83 -18 -83 -84q0 -17 11 -27t18 -5q44 22 83 22q52 0 142 -70q50 -39 88 -39q25 0 25 25q0 21 -55 57
q-12 9 9 17q7 3 13 3q34 1 53.5 -20t19.5 -46q0 -35 -24 -59q-13 -12 -18 -33q-9 -27 -34.5 -50t-70.5 -23q-64 0 -142 70q-54 48 -86 45q-16 0 -30.5 -15t-14.5 -41q0 -37 20.5 -56t86.5 -55q72 -39 72 -119q0 -44 -33 -84t-76 -40q-31 0 -46.5 15t-18.5 28q-1 7 2 7.5
t11 -1.5q34 -8 55.5 10t21.5 47q0 39 -39.5 53t-85.5 -5q-13 -6 -35 8q-15 9 -31 25t-33 51.5t-17 75.5q0 78 63 110q11 5 12 13t-7 12q-40 28 -97 36q-5 -66 -36 -105.5t-83 -39.5q-28 0 -51.5 17.5t-35.5 42.5q-19 -25 -19 -80q0 -60 36.5 -101.5t83.5 -41.5q17 0 35 29
q10 12 20 12q6 0 9.5 -7.5t0.5 -14.5q-3 -8 -3 -16.5t1.5 -13.5t4.5 -14.5t4 -12.5q3 -8 2 -10.5t-9 -8.5q-14 -7 -38 -7q-56 0 -105 41q-79 65 -79 172q0 42 16.5 77t41 56.5t54 36t55 20.5t45.5 6h20zM305 301q-8 1 -21 1q-102 -6 -143 -67q5 -14 22 -24.5t37 -10.5
q51 0 76.5 29.5t28.5 71.5z" />
    <glyph glyph-name="orn.005" unicode="&#xe053;" horiz-adv-x="1021" 
d="M767 391q-9 -33 -9 -61q0 -88 46 -137t88 -49q17 0 21 4q7 12 7 24q0 75 -42 134.5t-111 84.5zM743 433q26 68 78 104q34 22 73 22q43 0 66 -24.5t23 -50.5q0 -22 -13.5 -34t-24.5 -15q-12 -3 -16 7q-21 39 -62 39q-28 0 -52 -17t-34 -40q92 -38 144.5 -117.5
t52.5 -176.5q0 -48 -14 -89t-37 -62q-54 10 -81 -9q-13 -10 -13 6q0 18 12 26q1 1 6.5 4t9 5.5t10 8t11.5 12t11 15.5t11 21.5t9 26.5q-73 -8 -132.5 59.5t-59.5 168.5q0 30 11 77q-23 5 -43 5q-50 0 -88 -23.5t-48 -75.5q53 13 73 -25t20 -77q0 -99 -65 -162
q-71 -67 -203 -66q-156 2 -246 93q-57 57 -57 130q0 45 23 101q26 60 26 87q0 35 -27.5 42t-51.5 -14q-15 -13 -15 8q0 22 13.5 36t33.5 14q26 0 47 -15t31 -37q21 -43 -6 -117q-19 -54 -19 -97q0 -35 18 -57t47 -22q35 0 60.5 27.5t25.5 69.5q0 43 -28 109q-7 17 -8 24.5
t4 27.5q30 75 105 75q73 0 109 -24q24 -14 24 -35q1 -3 4 -20t6.5 -29t9.5 -18q6 38 48 73t117 35q41 0 71 -10z" />
    <glyph glyph-name="orn.006" unicode="&#xe054;" horiz-adv-x="1021" 
d="M767 54q69 25 111 84.5t42 134.5q0 12 -7 24q-4 4 -21 4q-42 0 -88 -49t-46 -137q0 -28 9 -61zM743 12q-30 -10 -71 -10q-75 0 -117 35t-48 73q-6 -6 -9.5 -18t-6.5 -29t-4 -20q0 -21 -24 -35q-36 -24 -109 -24q-75 0 -105 75q-5 20 -4 27.5t8 24.5q28 66 28 109
q0 42 -25.5 69.5t-60.5 27.5q-29 0 -47 -22t-18 -57q0 -43 19 -97q27 -74 6 -117q-10 -22 -31 -37t-47 -15q-20 0 -33.5 14t-13.5 36q0 21 15 8q24 -21 51.5 -14t27.5 42q0 27 -26 88q-23 54 -23 100q0 72 57 130q90 91 246 93q130 1 203 -66q65 -63 65 -163q0 -38 -20 -76
q-20 -37 -73 -26q10 -51 48 -74.5t88 -23.5q20 0 43 5q-11 47 -11 77q0 100 59.5 168t132.5 60q-4 14 -9 26.5t-11 21.5t-11 15.5t-11.5 12t-10 8t-9 5.5t-6.5 4q-12 8 -12 26q0 16 13 6q27 -19 81 -9q23 -21 37 -62t14 -89q0 -97 -52.5 -176.5t-144.5 -117.5
q10 -23 34 -40.5t52 -17.5q41 0 62 40q4 10 16 7q6 -2 13.5 -6t16 -16t8.5 -28q0 -26 -23 -50.5t-66 -24.5q-39 0 -73 22q-53 36 -78 105z" />
    <glyph glyph-name="orn.007" unicode="&#xe055;" horiz-adv-x="1021" 
d="M254 391q-69 -25 -111 -84.5t-42 -134.5q0 -12 7 -24q4 -4 21 -4q42 0 88 49t46 137q0 28 -9 61zM278 433q30 10 71 10q75 0 117 -35t48 -73q6 6 9.5 18t6.5 29t4 20q0 21 24 35q36 24 109 24q75 0 105 -75q5 -20 4 -27.5t-8 -24.5q-28 -66 -28 -109q0 -42 25.5 -69.5
t60.5 -27.5q29 0 47 22t18 57q0 43 -19 97q-27 74 -6 117q10 22 31 37t47 15q20 0 33.5 -14t13.5 -36q0 -21 -15 -8q-24 21 -51.5 14t-27.5 -42q0 -27 26 -88q23 -54 23 -100q0 -73 -57 -130q-90 -91 -246 -93q-132 -1 -203 66q-65 63 -65 162q0 39 20 77t73 25
q-10 52 -48 75.5t-88 23.5q-20 0 -43 -5q11 -45 11 -77q0 -100 -59.5 -168t-132.5 -60q4 -14 9 -26.5t11 -21.5t11 -15.5t11.5 -12t10 -8t9 -5.5t6.5 -4q12 -8 12 -26q0 -16 -13 -6q-27 19 -81 9q-23 21 -37 62.5t-14 89.5q0 96 52.5 175.5t144.5 117.5q-10 23 -34 40
t-52 17q-41 0 -62 -39q-4 -10 -16 -7q-6 2 -13.5 6t-16 16t-8.5 27q0 26 23 50.5t66 24.5q39 0 73 -22q52 -36 78 -104z" />
    <glyph glyph-name="orn.008" unicode="&#xe056;" horiz-adv-x="1021" 
d="M254 54q9 33 9 61q0 88 -46 137t-88 49q-17 0 -21 -4q-7 -12 -7 -24q0 -75 42 -134.5t111 -84.5zM278 12q-26 -68 -78 -105q-34 -22 -73 -22q-43 0 -66 24.5t-23 50.5q0 23 13.5 35t24.5 15q12 3 16 -7q21 -40 62 -40q28 0 52 17.5t34 40.5q-92 38 -144.5 117.5
t-52.5 176.5q0 48 14 89t37 62q54 -10 81 9q13 10 13 -6q0 -18 -12 -26q-1 -1 -6.5 -4t-9 -5.5t-10 -8t-11.5 -12t-11 -15.5t-11 -21.5t-9 -26.5q73 8 132.5 -60t59.5 -168q0 -30 -11 -77q23 -5 43 -5q50 0 88 23.5t48 74.5q-53 -11 -73 26q-20 38 -20 76q0 100 65 163
q73 67 203 66q156 -2 246 -93q57 -58 57 -130q0 -46 -23 -100q-26 -61 -26 -88q0 -35 27.5 -42t51.5 14q15 13 15 -8q0 -22 -13.5 -36t-33.5 -14q-26 0 -47 15t-31 37q-21 43 6 117q19 54 19 97q0 35 -18 57t-47 22q-35 0 -60.5 -27.5t-25.5 -69.5q0 -43 28 -109
q7 -17 8 -24.5t-4 -27.5q-30 -75 -105 -75q-73 0 -109 24q-24 14 -24 35q-1 3 -4 20t-6.5 29t-9.5 18q-6 -38 -48 -73t-117 -35q-41 0 -71 10z" />
    <glyph glyph-name="orn.009" unicode="&#xe057;" horiz-adv-x="885" 
d="M546 28l-9 14q18 23 18 90q0 129 -52 196q-53 67 -149 67q-59 0 -111 -50t-52 -135q0 -70 35.5 -102t76.5 -32q31 0 69 26t38 67q0 34 -20.5 53.5t-49.5 19.5q-30 0 -44.5 -18t-14.5 -42q0 -20 8 -32q5 -7 -4 -6q-5 0 -12 4q-25 17 -25 56q0 31 23 61.5t75 30.5
q56 0 91.5 -50t35.5 -119q0 -90 -58.5 -131t-142.5 -41q-58 0 -103 22t-70 53.5t-41.5 72t-21.5 72t-5 58.5q0 154 105 262q127 131 301 131q179 0 308 -166q60 -77 84 -154t24 -125q0 -130 -51 -175q-13 -10 -26 -5q-34 13 -108.5 21t-121.5 6zM569 291q40 3 80 36.5
t40 96.5q0 28 -12.5 54.5t-33.5 39.5q-6 5 -7 -5q0 -3 1 -6q13 -70 -14 -113q-23 -39 -64 -39q-7 0 -11 9t5 15q8 5 21 24.5t23 47t2.5 60.5t-37.5 57q-11 9 -11 -1q13 -17 3.5 -66t-33.5 -64q-13 -10 -26 -1q-7 5 1 10q10 8 18 31t8 46q0 29 -17 53t-55 25q-15 1 -15 -5
q0 -3 4 -6q34 -31 34 -93q0 -21 -7 -35t-14 -19t-13 -5q-5 0 -6.5 0.5t-2.5 1.5t0 3.5l3 7.5q8 17 8 37q0 42 -30.5 70.5t-64.5 28.5q-25 -1 -43 -13q-10 -7 4 -11q35 -13 56 -42.5t21 -54.5q0 -27 -9 -32q25 -2 39.5 -4.5t38 -11.5t40.5 -23t37.5 -40.5t38.5 -63.5z
M348 427q5 37 -19 72.5t-71 35.5q-45 0 -67 -30q-5 -7 -3.5 -11t7.5 -4q46 0 67 -27q14 -15 14 -30q0 -5 0.5 -7t2 -4t5.5 0q7 4 28.5 5.5t35.5 -0.5zM166 300q4 6 -5 20q-31 32 -65.5 7.5t-34.5 -70.5q0 -15 3.5 -22.5t10.5 -3.5q44 11 60 2q8 -5 12 -7t7 -1.5t3.5 2.5
t0.5 6q0 35 8 67zM147 197q-6 4 -25.5 3.5t-28.5 -6.5q-14 -13 -14 -42q0 -35 24 -56q13 -15 17 -2q13 37 29 49q13 8 10 24q-1 3 -2 8.5t-2 9t-3 7.5t-5 5zM192 75q1 14 0.5 24t-5 15.5t-14.5 5.5q-18 0 -23 -23q-8 -30 2 -58.5t32 -40.5q18 -9 16 -1q0 1 -1 3
q-5 8 -7.5 29t0.5 46zM99 389q-2 -10 7 -10q8 0 33 -10.5t36 -21.5q11 -13 16 -1q11 23 51 53q13 12 8 20q-13 22 -48.5 29t-70.5 -14q-24 -17 -32 -45zM297 -16h1q9 0 10.5 3t-3.5 20q-5 16 -31 38.5t-36 22.5q-9 0 -11 -3t-2 -16q0 -14 7 -34t18 -23q21 -8 47 -8zM797 286
q-6 -41 -30 -69.5t-55 -38t-64 -13t-57 5.5q7 -56 -7 -107q151 -17 199 -29q28 36 31 82q-41 -41 -96 -44q-58 -2 -81 14q-12 8 -7 14q1 1 4 1q33 -7 69.5 -1t57.5 23q47 39 47 105q0 50 -11 57zM577 251q6 -17 11 -47q26 -2 55 3t58.5 18t48.5 41t19 67q0 42 -24 73
q-4 4 -6.5 2.5t-2.5 -5.5q-13 -141 -159 -152zM389 34q5 19 -3 21q-12 7 -47 -6q-23 -10 -13 -24q14 -24 31 -22q25 10 32 31zM426 84q27 12 9 23q-28 9 -28 -14q0 -19 19 -9z" />
    <glyph glyph-name="orn.010" unicode="&#xe058;" horiz-adv-x="885" 
d="M537 539l10 14q47 -2 121 6t107 21q14 5 27 -5q51 -45 51 -174q0 -48 -24 -125t-84 -154q-129 -167 -308 -167q-174 0 -301 131q-105 109 -105 263q0 27 5 58t21.5 71.5t41.5 72t70 53.5t102 22q85 0 143.5 -41t58.5 -131q0 -69 -35.5 -118.5t-91.5 -49.5q-52 0 -75 30.5
t-23 61.5q0 40 25 55q15 9 17 2q0 -2 -1 -4q-8 -11 -8 -32q0 -24 14.5 -41.5t44.5 -17.5q29 0 49.5 19.5t20.5 53.5q0 41 -38 66.5t-69 25.5q-41 0 -76.5 -31.5t-35.5 -101.5q0 -85 52 -135t111 -50q96 0 149 67q52 67 52 195q0 67 -18 90zM568 290q-22 -46 -45.5 -75
t-51.5 -42t-46.5 -17.5t-50.5 -7.5q10 -5 10 -33q0 -24 -21 -54t-56 -42q-12 -5 -4 -12q16 -10 43 -13q34 0 64.5 28.5t30.5 70.5q0 19 -8 38q-3 6 -3.5 8.5t1.5 3.5t8 1t13 -5t14 -19t7 -35q0 -61 -34 -94q-11 -9 4 -11h7q37 1 54.5 25t17.5 53q0 23 -8 46.5t-18 31.5
q-11 7 3 12q12 4 22 -3q23 -15 33 -64.5t-3 -66.5q0 -9 11 -1q30 24 37.5 57t-3 61t-23.5 47.5t-21 24.5q-9 6 -4.5 14.5t10.5 8.5q41 0 65 -38q28 -44 13 -114q-2 -5 0 -9.5t7 -1.5q21 13 33.5 40t12.5 55q0 63 -40 96t-81 36zM348 155q-14 -2 -35.5 -0.5t-28.5 5.5
q-6 3 -7.5 -0.5t-1.5 -10.5q0 -14 -13 -30q-21 -27 -68 -27q-6 0 -7 -4t4 -11q20 -30 66 -30q48 0 72 35.5t19 72.5zM166 282q-8 32 -8 68q0 3 -0.5 4.5t-1 2.5t-2.5 1t-4.5 -1t-6 -2.5t-8.5 -4.5q-19 -12 -60 2q-7 4 -10.5 -4t-3.5 -23q0 -46 34.5 -70.5t66.5 7.5
q7 15 4 20zM147 385q3 1 5 5t3 7.5t2 9t2 8.5q3 16 -10 24q-16 12 -29 49q-4 13 -17 -2q-23 -21 -23 -56q0 -28 13 -42q10 -6 29 -6.5t25 3.5zM192 507q-3 25 -0.5 46t7.5 28q5 12 -15 2q-22 -11 -32 -40t-2 -59q5 -23 23 -23q10 0 14.5 5.5t5 15.5t-0.5 25zM99 193
q8 -28 32 -45q35 -21 70.5 -14t48.5 29q5 8 -8 20q-40 30 -51 53q-5 12 -16 -1q-11 -11 -36 -21.5t-33 -10.5q-9 0 -7 -10zM297 597h-1q-24 0 -46 -7q-11 -4 -18 -23.5t-7 -33.5q0 -13 2 -16t11 -3q10 0 36 22.5t31 37.5q5 17 3.5 20t-11.5 3zM797 295q11 7 11 58
q0 67 -48 105q-21 17 -57 23.5t-70 -0.5q-5 -1 -5 3q0 5 9 11q21 16 80 14q56 -3 97 -44q-3 44 -31 82q-50 -12 -199 -29q13 -47 7 -107q24 9 57 5.5t64 -13.5t55 -38.5t30 -69.5zM577 330q147 -11 159 -152q0 -3 2.5 -5t6.5 2q24 31 24 73q0 39 -19 67t-48.5 41t-58.5 18
t-55 3q-5 -30 -11 -47zM389 547q-7 21 -32 31q-17 2 -31 -22q-10 -14 13 -24q35 -13 47 -6q8 2 3 21zM426 497q-19 9 -19 -9q0 -13 9.5 -16t18.5 2q9 6 5 12t-14 11z" />
    <glyph glyph-name="orn.011" unicode="&#xe059;" horiz-adv-x="885" 
d="M348 42l-10 -14q-47 2 -121.5 -6t-107.5 -21q-14 -5 -27 5q-51 45 -51 175q0 48 24 125t84 154q129 166 309 166q174 0 301 -131q104 -108 104 -262q0 -27 -5 -58.5t-21.5 -71.5t-41.5 -72t-69.5 -54t-101.5 -22q-85 0 -143.5 41t-58.5 131q0 69 35.5 119t91.5 50
q52 0 75 -30.5t23 -61.5q0 -39 -25 -56q-15 -9 -17 -2q0 2 1 4q8 12 8 32q0 24 -14.5 42t-44.5 18q-29 0 -49.5 -19.5t-20.5 -53.5q0 -41 38 -67t69 -26q41 0 76.5 32t35.5 102q0 85 -52 135t-111 50q-96 0 -149 -67q-52 -67 -52 -196q0 -67 18 -90zM317 291q18 37 38 63.5
t37 40.5t40.5 23t38.5 11.5t40 4.5q-10 5 -10 32q0 25 21 54.5t56 42.5q14 4 4 11q-18 12 -43 13q-34 0 -64.5 -28.5t-30.5 -70.5q0 -20 8 -37q3 -6 3.5 -8.5t-1.5 -3.5t-8 -1t-13 5t-14 19t-7 35q0 62 34 93q11 9 -4 11h-7q-37 -1 -54.5 -25t-17.5 -53q0 -23 8 -46t18 -31
q11 -7 -3 -12q-12 -4 -22 3q-23 15 -33 64t3 66q0 9 -11 1q-30 -24 -37.5 -57t3 -60.5t23.5 -47t21 -24.5q9 -6 4.5 -15t-10.5 -9q-42 0 -65 39q-28 44 -13 113q2 6 0 10t-7 1q-21 -13 -33.5 -39.5t-12.5 -54.5q0 -63 40 -96.5t81 -36.5zM537 427q14 2 35.5 0.5t28.5 -5.5
q6 -3 7.5 0.5t1.5 10.5q0 14 13 30q21 27 68 27q6 0 7.5 4t-4.5 11q-20 30 -66 30q-48 0 -72 -35.5t-19 -72.5zM719 300q8 -32 8 -68q0 -3 0.5 -4.5t1 -2.5t2.5 -1t4.5 1t6 2.5t8.5 4.5q20 12 59 -2q7 -4 10.5 4t3.5 23q0 46 -34 70.5t-66 -7.5q-7 -15 -4 -20zM738 197
q-3 -1 -5 -5t-3 -7.5t-2 -9t-2 -8.5q-3 -16 10 -24q16 -12 29 -49q4 -13 17 2q23 21 23 56q0 28 -13 42q-10 6 -29 6.5t-25 -3.5zM693 75q3 -25 0.5 -46t-7.5 -29q-3 -6 2 -6q4 0 13 4q22 12 32 40.5t2 58.5q-5 23 -23 23q-10 0 -14.5 -5.5t-5 -15.5t0.5 -24zM786 389
q-8 28 -32 45q-35 21 -70.5 14t-48.5 -29q-5 -8 8 -20q40 -30 51 -53q5 -12 16 1q11 11 36 21.5t33 10.5q9 0 7 10zM588 -16h1q25 0 46 8q11 3 18 23t7 34q0 13 -2 16t-11 3q-10 0 -36 -22.5t-31 -38.5q-5 -17 -3.5 -20t11.5 -3zM87 286q-11 -7 -11 -57q0 -65 48 -105
q21 -17 57.5 -23t69.5 1q5 1 5 -4q0 -6 -8 -11q-23 -16 -81 -14q-56 3 -97 44q3 -47 32 -82q48 12 199 29q-13 46 -7 107q-24 -9 -57 -5.5t-64 13t-55.5 38t-30.5 69.5zM307 251q-45 4 -77 19.5t-48.5 39.5t-23.5 46t-9 47q0 3 -2.5 5t-6.5 -2q-24 -31 -24 -73q0 -39 19 -67
t48.5 -41t58.5 -18t55 -3q4 25 10 47zM495 34q7 -21 32 -31q18 -2 32 22q10 14 -13 24q-36 13 -48 6q-8 -2 -3 -21zM459 84q18 -10 18 9q0 24 -27 14q-18 -11 9 -23z" />
    <glyph glyph-name="orn.012" unicode="&#xe05a;" horiz-adv-x="885" 
d="M339 553l9 -14q-18 -23 -18 -90q0 -128 52 -195q53 -67 149 -67q59 0 111 50t52 135q0 70 -35.5 101.5t-76.5 31.5q-31 0 -69 -26t-38 -67q0 -34 20.5 -53t49.5 -19q30 0 44.5 17.5t14.5 41.5q0 20 -8 32q-5 7 4 6q5 0 12 -4q25 -15 25 -55q0 -31 -23 -61.5t-75 -30.5
q-56 0 -91.5 50t-35.5 119q0 47 17 81.5t47 53t64 27.5t73 9q57 0 102 -22t70 -53.5t41.5 -71.5t21.5 -71.5t5 -58.5q0 -154 -104 -263q-127 -131 -301 -131q-179 0 -308 167q-60 77 -84.5 154t-24.5 125q0 129 51 174q13 10 27 5q34 -13 108.5 -21t121.5 -6zM316 290
q-40 -3 -80 -36t-40 -96q0 -28 12.5 -55t33.5 -40q6 -5 7 6q0 3 -1 5q-13 71 14 114q24 38 64 38q7 0 11 -8.5t-5 -14.5q-8 -5 -21 -24.5t-23 -47.5t-2.5 -61t37.5 -57q11 -9 11 1q-13 17 -3.5 66.5t33.5 64.5q13 10 26 1q7 -5 -1 -10q-11 -8 -18.5 -31.5t-7.5 -46.5
q0 -29 17 -53t55 -25q15 -1 15 5q0 3 -4 6q-34 33 -34 94q0 21 7 35t14 19t13 5q5 0 6.5 -0.5t2.5 -1.5t0 -3.5l-3 -7.5q-8 -19 -8 -38q0 -42 30.5 -70.5t64.5 -28.5q27 3 43 13q8 7 -4 12q-35 12 -56 42t-21 54q0 28 9 33q-25 2 -39.5 4.5t-38 11t-40.5 22.5t-37.5 40.5
t-38.5 63.5zM537 155q-5 -37 19 -72.5t71 -35.5q45 0 67 30q5 7 3.5 11t-7.5 4q-46 0 -67 27q-14 15 -14 30q0 5 -0.5 7t-2 4t-5.5 0q-7 -4 -28.5 -5.5t-35.5 0.5zM719 282q-4 -6 5 -20q32 -32 65.5 -7.5t33.5 70.5q0 15 -3.5 22.5t-10.5 3.5q-42 -11 -59 -2q-8 5 -12 7
t-7 1.5t-3.5 -2.5t-0.5 -6q0 -35 -8 -67zM738 385q6 -4 25.5 -3.5t28.5 6.5q14 13 14 42q0 35 -24 56q-13 15 -17 2q-13 -37 -29 -49q-13 -8 -10 -24q1 -3 2 -8.5t2 -9t3 -7.5t5 -5zM693 506q-1 -14 -0.5 -24t5 -15.5t14.5 -5.5q18 0 23 23q8 30 -2 59t-32 40q-18 9 -16 1
q0 -1 1 -3q5 -8 7.5 -29t-0.5 -46zM786 193q2 10 -7 10q-8 0 -33 10.5t-36 21.5q-11 13 -16 1q-11 -23 -51 -53q-13 -12 -8 -20q13 -22 48.5 -29t70.5 14q24 17 32 45zM588 597h-1q-9 0 -10.5 -3t3.5 -20q5 -15 31 -38t36 -23q9 0 11 3t2 16q0 14 -7 34t-18 23q-21 8 -47 8z
M88 295q6 41 30 69.5t55 38.5t64 13.5t57 -4.5q-7 54 7 106q-151 17 -199 29q-29 -35 -32 -82q41 41 97 44q59 2 80 -14q12 -8 8 -13q-1 -1 -4 -1q-34 7 -70 0.5t-57 -23.5q-48 -38 -48 -105q0 -50 12 -58zM308 330q-6 17 -11 47q-26 2 -55 -3t-58.5 -18t-48.5 -41t-19 -67
q0 -42 24 -73q4 -4 6.5 -2t2.5 5q12 141 159 152zM495 547q-5 -19 3 -21q12 -7 48 6q23 10 13 24q-14 24 -32 22q-25 -10 -32 -31zM459 497q-10 -5 -14 -11t5 -12q8 -5 17.5 -2t9.5 16q0 19 -18 9z" />
    <glyph glyph-name="orn.013" unicode="&#xe05b;" horiz-adv-x="968" 
d="M313 552h1q45 0 98 -13.5t117 -42.5t131.5 -86.5t122.5 -134.5q-7 32 -21.5 68.5t-41 79.5t-70.5 79t-99 54q14 26 31 32h12q11 1 20 1t26.5 -2t33 -6t37 -11.5t41 -19t42.5 -29t44 -39.5q49 -51 78 -120.5t36.5 -117.5t7.5 -92q0 -59 -9 -105t-21 -64q-5 -5 -19 -10
t-20 -5q-14 0 -5 23q1 2 5.5 13t8.5 22t8.5 28.5t7 41t2.5 50.5q0 171 -78.5 280t-190.5 126q-10 2 -5 -6l4 -4q83 -45 152 -191t69 -318q0 -13 -21 -26q-16 -12 -27 -12q-8 0 -8 22q0 11 -9 5q-42 -34 -52 -34q-11 0 -18 16q-7 30 -39 50.5t-80 20.5q-40 0 -66 -13
q-8 6 -8 8q0 15 14 27q6 6 16.5 11t29.5 11t46 3t57 -16q-16 55 -69 101.5t-119 46.5q-47 0 -63 -8q-15 -8 -15 11q0 37 36.5 62.5t102.5 25.5q52 0 108 -23q-151 189 -364 189q-91 0 -132 -36t-41 -97q0 -55 31 -93.5t73 -38.5q68 0 106 65q6 14 16 5q32 -25 59.5 -71
t27.5 -98q0 -82 -54.5 -130.5t-137.5 -48.5q-109 0 -185 80t-76 212q0 25 6 56.5t26 75t51.5 77.5t89.5 58.5t132 24.5zM231 186h-1q-41 0 -69 35t-38 78t-7 81q1 14 -2.5 16.5t-11.5 -4.5q-54 -45 -54 -135q0 -114 67.5 -183.5t154.5 -69.5q65 0 112 35.5t46 108.5
q1 11 -5 11q-3 0 -4 -4q-32 -93 -142 -93q-90 0 -149 76t-43 165q1 11 6 13q2 2 4 -2v-8q-1 -17 9.5 -44.5t31 -57.5t58.5 -51.5t85 -21.5q54 0 85.5 25.5t31.5 55.5q0 32 -24 46q-37 -72 -141 -72zM784 66l26 -4q-2 46 -16.5 89t-41.5 80t-72 59.5t-101 22.5q-76 0 -96 -18
q-5 -5 -3.5 -8t9.5 -2q89 5 158.5 -44.5t136.5 -174.5z" />
    <glyph glyph-name="orn.014" unicode="&#xe05c;" horiz-adv-x="968" 
d="M313 4h-1q-74 0 -131.5 24.5t-89 58.5t-51.5 77.5t-26 75t-6 56.5q0 133 76 213t185 80q83 0 137.5 -48.5t54.5 -130.5q0 -53 -27.5 -99t-59.5 -71q-10 -8 -17 5q-36 65 -105 65q-42 0 -73 -38.5t-31 -93.5q0 -61 41 -97t132 -36q213 0 364 189q-56 -23 -108 -23
q-66 0 -102.5 25.5t-36.5 62.5q0 19 15 11q16 -8 63 -8q66 0 119 47t69 102q-30 -13 -57 -16t-46 3t-29.5 11t-16.5 11q-14 12 -14 27q0 9 1 9l7 -1q26 -13 66 -13q48 0 80 20.5t39 49.5q7 16 18 16q10 0 52 -34q9 -6 9 5q0 22 8 22q10 0 27 -11q21 -15 21 -27
q0 -172 -69 -318t-152 -191q-10 -10 -2 -10h3q112 17 190.5 126t78.5 280q0 33 -4.5 62.5t-9 44t-11.5 31.5t-7 18q-9 23 5 23q6 0 20 -5t19 -10q30 -47 30 -169q0 -45 -7.5 -93t-36.5 -117.5t-78 -120.5q-21 -22 -44 -39.5t-42.5 -29t-41 -19t-37 -11.5t-33 -6t-26.5 -2
t-20 1h-12q-17 6 -31 32q55 18 99 54t70.5 79t41 79.5t21.5 68.5q-55 -77 -122.5 -134.5t-131.5 -86.5t-117.5 -42.5t-98.5 -13.5zM231 370h1q103 0 140 -72q24 14 24 46q0 30 -31.5 56.5t-85.5 26.5q-47 0 -85.5 -22t-58.5 -52.5t-30.5 -58t-9.5 -44.5q1 -10 -3 -11t-7 11
v3q-16 89 43 166t149 77q110 0 142 -94q2 -8 7 -3q3 3 2 9q1 74 -46 109.5t-112 35.5q-87 0 -154.5 -69.5t-67.5 -184.5q0 -90 54 -135q8 -7 11.5 -4.5t2.5 16.5q-3 38 7 81t38.5 78t69.5 35zM810 495l-26 -4q-67 -126 -136.5 -175.5t-158.5 -44.5q-8 1 -9.5 -2t3.5 -8
q20 -18 96 -18q74 0 127.5 39.5t77 94.5t26.5 118z" />
    <glyph glyph-name="orn.015" unicode="&#xe05d;" horiz-adv-x="968" 
d="M655 552h1q74 0 131.5 -24.5t89 -58.5t51.5 -77.5t26 -75t6 -56.5q0 -132 -76 -212t-185 -80q-83 0 -137.5 48.5t-54.5 130.5q0 52 27.5 98t59.5 71q10 8 17 -5q36 -65 105 -65q42 0 73 38.5t31 93.5q0 61 -41 97t-132 36q-213 0 -364 -189q56 23 108 23
q66 0 102.5 -25.5t36.5 -62.5q0 -19 -15 -11q-16 8 -63 8q-66 0 -119 -46.5t-69 -101.5q30 13 57 16t46 -3t29.5 -11t16.5 -11q14 -12 14 -27q0 -9 -1 -9l-7 1q-26 13 -66 13q-48 0 -80 -20.5t-39 -50.5q-7 -16 -18 -16q-10 0 -52 34q-9 7 -9 -5q0 -22 -8 -22q-11 0 -27 12
q-21 13 -21 26q0 172 69 318t152 191q10 10 2 10h-3q-112 -17 -190.5 -126t-78.5 -280q0 -33 4.5 -62.5t9 -43.5t11.5 -31t7 -18q9 -23 -5 -23q-6 0 -20 5t-19 10q-30 47 -30 169q0 44 7.5 92t36.5 117.5t78 120.5q21 22 44 39.5t42.5 29t41 19t37 11.5t33 6t26.5 2t20 -1
h12q17 -6 31 -32q-55 -18 -99 -54t-70.5 -79t-41 -79.5t-21.5 -68.5q55 77 122.5 134.5t131.5 86.5t117.5 42.5t98.5 13.5zM737 186h-1q-103 0 -140 72q-24 -14 -24 -46q0 -30 31.5 -55.5t85.5 -25.5q47 0 85 21.5t58.5 51.5t31 57.5t9.5 44.5q-1 10 3 11t7 -11v-3
q16 -89 -43 -165t-149 -76q-110 0 -142 93q-3 10 -8 1q-1 -4 -1 -8q-1 -73 46 -108.5t112 -35.5q87 0 154.5 69.5t67.5 183.5q0 90 -54 135q-8 7 -11.5 4.5t-2.5 -16.5q3 -38 -7 -81t-38.5 -78t-69.5 -35zM158 62l26 4q67 125 136.5 174.5t158.5 44.5q8 -1 9.5 2t-3.5 8
q-20 18 -96 18q-56 0 -101 -22.5t-72 -59.5t-41.5 -80t-16.5 -89z" />
    <glyph glyph-name="orn.016" unicode="&#xe05e;" horiz-adv-x="968" 
d="M655 4h-1q-45 0 -98 13.5t-117 42.5t-131.5 86.5t-122.5 134.5q7 -32 21.5 -68.5t41 -79.5t70.5 -79t99 -54q-14 -26 -31 -32h-12q-11 -1 -20 -1t-26.5 2t-33 6t-37 11.5t-41 19t-42.5 29t-44 39.5q-49 51 -78 120.5t-36.5 117.5t-7.5 93q0 123 30 168q5 5 19 10t20 5
q14 0 5 -23q-1 -2 -5.5 -13t-8.5 -22t-8.5 -28.5t-7 -41t-2.5 -50.5q0 -171 78.5 -280t190.5 -126q10 -2 5 6l-4 4q-83 45 -152 191t-69 318q0 12 21 27q17 11 27 11q8 0 8 -22q0 -11 9 -5q42 34 52 34q11 0 18 -16q7 -29 39 -49.5t80 -20.5q40 0 66 13q8 -6 8 -8
q0 -15 -14 -27q-6 -6 -16.5 -11t-29.5 -11t-46 -3t-57 16q16 -55 69 -102t119 -47q47 0 63 8q15 8 15 -11q0 -37 -36.5 -62.5t-102.5 -25.5q-52 0 -108 23q151 -189 364 -189q91 0 132 36t41 97q0 55 -31 93.5t-73 38.5q-68 0 -106 -65q-6 -14 -16 -5q-32 25 -59.5 71
t-27.5 99q0 82 54.5 130.5t137.5 48.5q109 0 185 -80t76 -213q0 -25 -6 -56.5t-26 -75t-51.5 -77.5t-89.5 -58.5t-132 -24.5zM737 370h1q41 0 69 -35t38 -78t7 -81q-1 -14 2.5 -16.5t11.5 4.5q54 45 54 135q0 116 -67.5 185t-154.5 69q-65 0 -112 -35.5t-46 -108.5
q-1 -11 5 -11q3 0 4 4q32 94 142 94q90 0 149 -77t43 -166q-1 -11 -6 -13q-2 -2 -4 2v8q1 17 -9.5 44.5t-30.5 58t-58.5 52.5t-85.5 22q-54 0 -85.5 -26.5t-31.5 -56.5q0 -32 24 -46q37 72 141 72zM184 491l-26 4q3 -63 26.5 -118t77 -94.5t127.5 -39.5q76 0 96 18
q5 5 3.5 8t-9.5 2q-89 -5 -158.5 44.5t-136.5 175.5z" />
    <glyph glyph-name="orn.017" unicode="&#xe05f;" horiz-adv-x="890" 
d="M502 378q8 -1 5.5 -47.5t-2.5 -47.5q0 -12 6 -17.5t17 -0.5q6 3 26 12.5t33 15.5t33.5 12.5t37.5 9.5q-7 8 -20 36.5t-25 45.5q-26 34 -60 47q-23 10 -63 17q-19 3 -3 20q30 39 106 32q29 -3 55.5 -21t41.5 -38q33 -46 9 -104q-9 -18 -12 -30q38 5 99 -9q22 10 35 4
q-3 -19 12.5 -41t31.5 -36q9 -8 2 -27q-1 -2 -6 -3t-12 2t-13 9q-66 71 -146 71q9 -19 22 -36t21.5 -25t24 -20.5t17.5 -13.5q11 -11 20 -35t10 -42q1 -10 4.5 -17.5t5.5 -8.5t10 -8q12 -7 1 -14q-13 -9 -32 0q-6 2 -29.5 4.5t-39.5 6.5q-34 8 -50 37q-8 15 -11 48.5
t-1.5 63.5t-1.5 58q-33 -10 -63 -30.5t-44 -40.5q-11 -11 2 -19q26 -18 48 -28q19 -10 17 -41q0 -14 -12.5 -37.5t-25.5 -36.5q-31 -28 -84 -50t-112 -24q-150 -5 -244 112q-45 60 -38 84q-49 13 -72 49q-16 20 -13.5 47.5t24.5 44.5q16 15 48 19q23 0 34 -11q3 -6 -11 -8
q-18 -2 -32 -21q-7 -11 -7 -27.5t7 -26.5q19 -28 54 -31q41 -8 86 41t70 113q15 38 48 56.5t75 14.5q7 -1 14 -2.5t13 -3t11.5 -5t9.5 -6t8.5 -7t7 -6.5t7 -7.5t5.5 -7.5t5 -7.5t5 -6.5zM468 226q-69 -48 -160.5 -65t-124.5 6q-9 6 -11 0q-1 -5 7 -13q44 -46 123 -46
q100 0 160 69q16 19 20 39q2 11 -1 13.5t-13 -3.5z" />
    <glyph glyph-name="orn.018" unicode="&#xe060;" horiz-adv-x="890" 
d="M388 378l5 7q5 7 6 8.5t6.5 8t8 8.5t8.5 7.5t10.5 7.5t11.5 5.5t14.5 5t15.5 2.5q42 4 75 -14.5t48 -57.5q25 -64 70 -113t86 -41q35 3 54 31q7 10 7 27t-7 27q-14 19 -32 21q-12 0 -13 4q0 2 2 4q11 11 34 11q32 -4 48 -20q21 -17 24 -44t-12 -47q-25 -37 -73 -49
q7 -24 -38 -84q-94 -117 -244 -112q-59 2 -112 24t-84 50q-13 13 -25.5 36.5t-12.5 37.5q-2 31 17 41q22 10 48 28q13 8 2 19q-14 20 -44 40.5t-63 30.5q-3 -28 -1.5 -58t-1.5 -63.5t-11 -48.5q-16 -29 -50 -37q-17 -4 -40.5 -6.5t-29.5 -4.5q-19 -9 -31 0q-11 7 1 14
q1 1 4.5 3.5t4.5 4t3.5 4.5t3.5 5.5t2 7t1 9.5q1 19 10.5 42.5t20.5 34.5q3 3 17 14t23.5 19.5t22.5 25.5t22 36q-80 0 -146 -71q-6 -6 -13.5 -9t-12 -2t-5.5 3q-8 20 2 27q9 8 18.5 18.5t18.5 27.5t7 31q12 6 34 -4q61 14 100 9q-1 5 -6 16.5t-6 13.5q-25 59 9 104
q15 20 41.5 38t55.5 21q76 7 106 -32q16 -17 -3 -20q-40 -7 -63 -17q-36 -13 -60 -47q-12 -17 -25 -45.5t-20 -36.5q17 -3 37.5 -9.5t33.5 -12.5t33 -15.5t26 -12.5q11 -5 17 0.5t6 17.5q0 1 -2.5 47.5t5.5 47.5zM422 226q-10 6 -13 3.5t-1 -13.5q4 -20 20 -39
q60 -69 160 -69q79 0 123 46q12 12 5 15q-3 2 -9 -2q-33 -23 -124.5 -6t-160.5 65z" />
    <glyph glyph-name="orn.019" unicode="&#xe061;" horiz-adv-x="681" 
d="M522 538q6 13 8 42q2 28 -11.5 50t-44.5 22q-12 0 -25 -11t-13 -33q-1 -31 26.5 -50t59.5 -20zM379 430q42 4 76 27t51 52q-43 3 -76.5 25.5t-32.5 68.5q1 35 24 60t55 25q44 0 65 -31.5t20 -69.5q-2 -28 -7 -46q30 5 49.5 28t19.5 50q0 21 -9.5 40.5t-23.5 27.5
q-11 4 -11 9q-1 2 4 3q7 1 25 -2q7 -3 15.5 -9.5t19 -25.5t10.5 -43q0 -50 -35 -78.5t-76 -35.5q-26 -50 -72 -80t-94 -34q-3 -32 -23 -90q56 38 112 38q53 0 83.5 -40t32.5 -96q2 -51 -12.5 -88t-29 -51t-37.5 -30q-4 -3 -6 -4q-10 -8 -31 -2q-30 4 -81 -0.5t-88 -17.5
q-134 -49 -131 -104q1 -19 12.5 -29t29.5 -10q17 0 37.5 7t35 15t44.5 26q75 50 121 50q39 0 64 -23.5t25 -68.5q0 -57 -31.5 -86.5t-67.5 -29.5q-38 0 -53.5 20t-16.5 43q-1 12 4 12q1 0 3 -3q10 -14 42 -12q23 1 44 20.5t21 47.5q0 37 -40 37q-41 0 -109 -48
q-31 -22 -45 -31t-42 -19.5t-54 -10.5q-50 0 -81 29.5t-31 76.5q0 32 11 56t22 41t11 32q-1 28 -41 58q-41 32 -44 90q-2 74 48 119q59 51 133 51q58 0 91 -47q17 33 26 73q-61 5 -97.5 34t-35.5 83q1 38 23 60.5t38 22.5q11 0 31 -4q-34 36 -103 36q-57 0 -103 -46
q-7 -7 -11 -4.5t-3 10.5q0 5 10.5 23t21.5 29q-12 12 4 31q24 12 69 12q55 0 96.5 -20.5t64 -54.5t33 -72t8.5 -78q0 -18 -1 -24zM339 428q3 12 3 34q2 24 -7.5 55.5t-26.5 51.5q-28 -1 -44.5 -18t-16.5 -42q-1 -31 23 -53.5t69 -27.5z" />
    <glyph glyph-name="orn.020" unicode="&#xe062;" horiz-adv-x="660" 
d="M427 550q23 15 44 21q10 0 30 -24q-16 -10 -19 -13q12 -6 69 -28q17 -7 63 12q4 1 8.5 -7.5t6.5 -18.5q-31 -14 -64 -38q-10 -5 -19 1q-61 44 -110 52q-32 -20 -55.5 -58.5t-31.5 -63.5q0 -7 -14 -10q-6 -2 -9 -2.5t-5.5 -0.5t-2.5 1.5v3.5q12 82 72 142q-43 13 -88 15
t-84 -35q-8 2 -12.5 8.5t-2.5 10.5q32 41 35 47q3 11 17 19q4 2 27 7q2 -1 16.5 -9.5t23.5 -10.5q10 -3 23 -5.5t36 -6.5t46 -9zM238 420q27 -4 44 -15.5t21.5 -21.5t1.5 -10q-65 -67 -100 -162.5t-37 -170.5q0 -6 2.5 -9.5t5.5 -2t5 9.5q27 107 62 172.5t98 145.5
q83 49 154 36q43 -7 70.5 -51t12.5 -104q-10 -44 -35 -76.5t-66 -54.5t-79 -35.5t-95 -27.5q-102 -26 -112 -79q-6 -41 20 -63q4 -4 -5 -9q-9 -9 -24 -4q-17 3 -31 30.5t-8 78.5q1 15 -21 36q-13 13 -27.5 30.5t-33 48t-27 69.5t-1.5 77q14 85 71 129q63 44 134 33z" />
    <glyph glyph-name="orn.021" unicode="&#xe063;" horiz-adv-x="975" 
d="M653 464q23 -6 42 -24.5t23 -32.5q5 -12 22 -16q39 -7 95 24q29 16 41 42.5t1 42.5q-4 6 -1.5 10t11.5 3q19 -2 35 18q10 11 19 -1q11 -13 6 -39q-12 -59 -71 -96.5t-113 -50.5q-17 -3 -11 -17q10 -21 7 -33q-17 -67 -60.5 -125.5t-82.5 -86.5t-56 -23q-6 2 -9.5 6t-4 12
t0 15.5t4 21.5t6.5 25t9 32q-104 -120 -137 -112q-20 7 17 102q-62 -63 -107 -98t-61 -41t-24 -4q-15 7 -12 26.5t22 64.5q-70 -34 -120.5 -76t-67.5 -67t-21 -40q-4 -18 -14 -17q-5 0 -7 6q-9 21 -1 53q11 42 34.5 79t59.5 66t71 51t84 42.5t83 33t84 28.5q219 68 228 74
q11 7 9 13t-12 8q-90 3 -261 -57q-141 -51 -230.5 -111.5t-120.5 -103.5q-8 -13 -7 1v4q4 29 49.5 76t124.5 97q-33 8 -45.5 18.5t-9.5 20.5q7 28 178 47q-30 14 -38.5 26t-5 17t14.5 13q44 30 161 49t169 4z" />
    <glyph glyph-name="orn.022" unicode="&#xe064;" horiz-adv-x="1298" 
d="M822 394h1q76 0 148 -13t119 -30.5t87 -38t56 -32t21 -16.5q8 -4 8 -27q0 -3 -2.5 -4.5t-5.5 1.5q-176 124 -438 124q-201 0 -334 -87q-13 -5 -31 3q-13 11 -2 19q43 41 135.5 71t237.5 30zM723 105h-1q-85 0 -157.5 24t-102 44.5t-37.5 31.5q-10 18 -25 21
q-62 11 -145 11q-171 0 -207 -60q-2 -5 -5.5 -7t-6 1t-2.5 12q5 23 27 45q-23 10 4 29q38 24 116 24q104 0 207 -16q332 -47 481 -47q165 0 240 31q17 7 17 -7q0 -9 -16 -26q32 13 91 47q2 0 4 -4t1.5 -9.5t-4.5 -10.5q-46 -46 -195.5 -90t-283.5 -44z" />
    <glyph glyph-name="orn.023" unicode="&#xe065;" horiz-adv-x="892" 
d="M434 -81l-26 22q9 75 9 157q-3 23 -18 14q-48 -38 -102 -38q-111 0 -174.5 63t-87.5 162q-7 29 0 34q8 14 52.5 25.5t90.5 11.5q34 0 71 -11t57 -25q-14 33 -14 77q0 86 50 161.5t89 75.5q41 0 84.5 -75t43.5 -159q0 -46 -14 -98q1 1 10 6.5t13 7t14 7t16.5 8t17.5 7
t21 7t22 5t25.5 3.5t27.5 1q90 0 139 -55q8 -12 8 -20q0 -66 -79.5 -139t-159.5 -73q-81 0 -151 32q-8 3 -10 0t-2 -12q-6 -116 6 -151l-2 -14zM415 609q-25 -19 -53.5 -72.5t-28.5 -129.5q0 -60 24 -106t55 -71q0 22 1.5 125.5t2.5 166t-1 87.5zM454 600q0 -1 -1 -58.5
t-1.5 -122t-1 -124.5t0.5 -68q68 52 68 176q0 70 -21.5 127.5t-43.5 69.5zM603 120h1q19 0 43 5.5t56 19t63 43.5t51 73q-13 2 -63 -9t-128.5 -41t-141.5 -69l10 -4q9 -4 17 -6t21.5 -5.5t31.5 -5t39 -1.5zM813 301q-13 31 -104 31q-74 0 -146 -43.5t-94 -112.5
q53 32 160 74t184 51zM307 111h1q43 0 67 22q-203 77 -304 166q0 -20 15 -50t42.5 -62t75 -54t103.5 -22zM92 323q31 -26 139.5 -83t169.5 -81q0 9 -13 34.5t-45.5 61t-73.5 54.5q-93 44 -177 14z" />
    <glyph glyph-name="orn.024" unicode="&#xe066;" horiz-adv-x="600" 
d="M133 82h-9q-35 72 -51 127t-16 129q0 107 40 167q1 4 4 7.5t8.5 7t6.5 4.5q7 4 16 -7q33 -43 49.5 -110t16.5 -120q0 -58 -19 -142l5 2q3 8 18 57t29.5 89t42.5 94.5t61 92.5q58 66 114.5 92.5t92.5 26.5q16 0 23 -12l-19 -10q1 -32 -23.5 -88.5t-59.5 -104.5
q-38 -52 -80.5 -97t-82.5 -81t-48 -45q64 39 128 39q67 0 99 -34.5t32 -92.5q0 -24 -6 -27q-6 -7 -14 -1q-74 46 -193 46q-98 0 -142 -36q-25 -23 -46 -69q-26 -63 -17 -92q-3 -4 -16 -17q-4 9 -34 39q-5 9 -2 18q15 59 92 148zM115 485q-10 -22 -17.5 -68.5t-4.5 -100.5
q4 -69 15 -114t39 -94q5 80 0 171q-2 50 -11 117.5t-21 88.5zM520 576q-88 -20 -177 -141t-130 -281q60 91 151.5 216.5t155.5 205.5zM487 104q-39 60 -134 60q-42 0 -74 -14q-35 -16 -65 -43q66 21 140.5 15.5t122.5 -33.5q15 -11 15 2q-1 5 -5 13z" />
    </font>
</defs>
</svg>
